<svg version="1.1" xmlns="http://www.w3.org/2000/svg" xmlns:xlink="http://www.w3.org/1999/xlink" width="800" height="800" viewBox="0,0,800,800"><g fill="#000000" fill-rule="nonzero" stroke="none" stroke-width="none" stroke-linecap="butt" stroke-linejoin="miter" stroke-miterlimit="10" stroke-dasharray="" stroke-dashoffset="0" font-family="none" font-weight="none" font-size="none" text-anchor="none" style="mix-blend-mode: normal"><path d="M0,800v-800h800v800z" stroke="none" stroke-width="1"/><path d="M0,800v-800h800v800z" data-paper-data="{&quot;fillable&quot;:true}" stroke="#2a2a3a" stroke-width="1.5"/><path d="M0,22v-22h22v22z" data-paper-data="{&quot;fillable&quot;:true}" stroke="#2a2a3a" stroke-width="1.5"/><path d="M778,22v-22h22v22z" data-paper-data="{&quot;fillable&quot;:true}" stroke="#2a2a3a" stroke-width="1.5"/><path d="M0,800v-22h22v22z" data-paper-data="{&quot;fillable&quot;:true}" stroke="#2a2a3a" stroke-width="1.5"/><path d="M778,800v-22h22v22z" data-paper-data="{&quot;fillable&quot;:true}" stroke="#2a2a3a" stroke-width="1.5"/><path d="M22,44v-22h22v22z" data-paper-data="{&quot;fillable&quot;:true}" stroke="#2a2a3a" stroke-width="1.5"/><path d="M756,44v-22h22v22z" data-paper-data="{&quot;fillable&quot;:true}" stroke="#2a2a3a" stroke-width="1.5"/><path d="M22,778v-22h22v22z" data-paper-data="{&quot;fillable&quot;:true}" stroke="#2a2a3a" stroke-width="1.5"/><path d="M756,778v-22h22v22z" data-paper-data="{&quot;fillable&quot;:true}" stroke="#2a2a3a" stroke-width="1.5"/><path d="M44,66v-22h22v22z" data-paper-data="{&quot;fillable&quot;:true}" stroke="#2a2a3a" stroke-width="1.5"/><path d="M734,66v-22h22v22z" data-paper-data="{&quot;fillable&quot;:true}" stroke="#2a2a3a" stroke-width="1.5"/><path d="M44,756v-22h22v22z" data-paper-data="{&quot;fillable&quot;:true}" stroke="#2a2a3a" stroke-width="1.5"/><path d="M734,756v-22h22v22z" data-paper-data="{&quot;fillable&quot;:true}" stroke="#2a2a3a" stroke-width="1.5"/><path d="M66,88v-22h22v22z" data-paper-data="{&quot;fillable&quot;:true}" stroke="#2a2a3a" stroke-width="1.5"/><path d="M712,88v-22h22v22z" data-paper-data="{&quot;fillable&quot;:true}" stroke="#2a2a3a" stroke-width="1.5"/><path d="M66,734v-22h22v22z" data-paper-data="{&quot;fillable&quot;:true}" stroke="#2a2a3a" stroke-width="1.5"/><path d="M712,734v-22h22v22z" data-paper-data="{&quot;fillable&quot;:true}" stroke="#2a2a3a" stroke-width="1.5"/><path d="M768,400l-0.28371,14.44761l-0.85071,14.42534l-1.41639,14.38082l-1.97988,14.31412l-2.54033,14.22536l-3.09685,14.11466l-3.6486,13.98219l-4.19473,13.82817l-53.25916,-17.30495l3.5564,-11.72388l3.09338,-11.85447l2.62559,-11.96677l2.15375,-12.06063l1.6786,-12.13589l1.20085,-12.19243l0.72125,-12.23018l0.24054,-12.24906z" data-paper-data="{&quot;fillable&quot;:true}" stroke="#2a2a3a" stroke-width="1.5"/><path d="M749.9888,513.71825l-4.73439,13.65282l-5.26674,13.45643l-5.79098,13.23928l-6.30629,13.00172l-6.81187,12.74411l-7.30695,12.46685l-7.79076,12.17037l-8.26256,11.85513l-45.30495,-32.91597l7.00522,-10.05109l6.60521,-10.31836l6.19502,-10.56972l5.77528,-10.80479l5.34663,-11.0232l4.90974,-11.22461l4.46528,-11.40871l4.01394,-11.57522z" data-paper-data="{&quot;fillable&quot;:true}" stroke="#2a2a3a" stroke-width="1.5"/><path d="M697.71825,616.30497l-8.72162,11.5216l-9.16724,11.17031l-9.59871,10.80179l-10.01539,10.41662l-10.41662,10.01539l-10.80179,9.59871l-11.17031,9.16724l-11.5216,8.72162l-32.91597,-45.30495l9.76831,-7.39442l9.47048,-7.77222l9.15804,-8.13804l8.83148,-8.49131l8.49131,-8.83148l8.13804,-9.15804l7.77222,-9.47048l7.39442,-9.76831z" data-paper-data="{&quot;fillable&quot;:true}" stroke="#2a2a3a" stroke-width="1.5"/><path d="M616.30497,697.71825l-11.85513,8.26256l-12.17037,7.79076l-12.46685,7.30695l-12.74411,6.81187l-13.00172,6.30629l-13.23928,5.79098l-13.45643,5.26674l-13.65282,4.73439l-17.30495,-53.25916l11.57522,-4.01394l11.40871,-4.46528l11.22461,-4.90974l11.0232,-5.34663l10.80479,-5.77528l10.56972,-6.19502l10.31836,-6.60521l10.05109,-7.00522z" data-paper-data="{&quot;fillable&quot;:true}" stroke="#2a2a3a" stroke-width="1.5"/><path d="M513.71825,749.9888l-13.82817,4.19473l-13.98219,3.6486l-14.11466,3.09685l-14.22536,2.54033l-14.31412,1.97988l-14.38082,1.41639l-14.42534,0.85071l-14.44761,0.28371v-56l12.24906,-0.24054l12.23018,-0.72125l12.19243,-1.20085l12.13589,-1.6786l12.06063,-2.15375l11.96677,-2.62559l11.85447,-3.09338l11.72388,-3.5564z" data-paper-data="{&quot;fillable&quot;:true}" stroke="#2a2a3a" stroke-width="1.5"/><path d="M400,768l-14.44761,-0.28371l-14.42534,-0.85071l-14.38082,-1.41639l-14.31412,-1.97988l-14.22536,-2.54033l-14.11466,-3.09685l-13.98219,-3.6486l-13.82817,-4.19473l17.30495,-53.25916l11.72388,3.5564l11.85447,3.09338l11.96677,2.62559l12.06063,2.15375l12.13589,1.6786l12.19243,1.20085l12.23018,0.72125l12.24906,0.24054z" data-paper-data="{&quot;fillable&quot;:true}" stroke="#2a2a3a" stroke-width="1.5"/><path d="M286.28175,749.9888l-13.65282,-4.73439l-13.45643,-5.26674l-13.23928,-5.79098l-13.00172,-6.30629l-12.74411,-6.81187l-12.46685,-7.30695l-12.17037,-7.79076l-11.85513,-8.26256l32.91597,-45.30495l10.05109,7.00522l10.31836,6.60521l10.56972,6.19502l10.80479,5.77528l11.0232,5.34663l11.22461,4.90974l11.40871,4.46528l11.57522,4.01394z" data-paper-data="{&quot;fillable&quot;:true}" stroke="#2a2a3a" stroke-width="1.5"/><path d="M183.69503,697.71825l-11.5216,-8.72162l-11.17031,-9.16724l-10.80179,-9.59871l-10.41662,-10.01539l-10.01539,-10.41662l-9.59871,-10.80179l-9.16724,-11.17031l-8.72162,-11.5216l45.30495,-32.91597l7.39442,9.76831l7.77222,9.47048l8.13804,9.15804l8.49131,8.83148l8.83148,8.49131l9.15804,8.13804l9.47048,7.77222l9.76831,7.39442z" data-paper-data="{&quot;fillable&quot;:true}" stroke="#2a2a3a" stroke-width="1.5"/><path d="M102.28175,616.30497l-8.26256,-11.85513l-7.79076,-12.17037l-7.30695,-12.46685l-6.81187,-12.74411l-6.30629,-13.00172l-5.79098,-13.23928l-5.26674,-13.45643l-4.73439,-13.65282l53.25916,-17.30495l4.01394,11.57522l4.46528,11.40871l4.90974,11.22461l5.34663,11.0232l5.77528,10.80479l6.19502,10.56972l6.60521,10.31836l7.00522,10.05109z" data-paper-data="{&quot;fillable&quot;:true}" stroke="#2a2a3a" stroke-width="1.5"/><path d="M50.0112,513.71825l-4.19473,-13.82817l-3.6486,-13.98219l-3.09685,-14.11466l-2.54033,-14.22536l-1.97988,-14.31412l-1.41639,-14.38082l-0.85071,-14.42534l-0.28371,-14.44761h56l0.24054,12.24906l0.72125,12.23018l1.20085,12.19243l1.6786,12.13589l2.15375,12.06063l2.62559,11.96677l3.09338,11.85447l3.5564,11.72388z" data-paper-data="{&quot;fillable&quot;:true}" stroke="#2a2a3a" stroke-width="1.5"/><path d="M32,400l0.28371,-14.44761l0.85071,-14.42534l1.41639,-14.38082l1.97988,-14.31412l2.54033,-14.22536l3.09685,-14.11466l3.6486,-13.98219l4.19473,-13.82817l53.25916,17.30495l-3.5564,11.72388l-3.09338,11.85447l-2.62559,11.96677l-2.15375,12.06063l-1.6786,12.13589l-1.20085,12.19243l-0.72125,12.23018l-0.24054,12.24906z" data-paper-data="{&quot;fillable&quot;:true}" stroke="#2a2a3a" stroke-width="1.5"/><path d="M50.0112,286.28175l4.73439,-13.65282l5.26674,-13.45643l5.79098,-13.23928l6.30629,-13.00172l6.81187,-12.74411l7.30695,-12.46685l7.79076,-12.17037l8.26256,-11.85513l45.30495,32.91597l-7.00522,10.05109l-6.60521,10.31836l-6.19502,10.56972l-5.77528,10.80479l-5.34663,11.0232l-4.90974,11.22461l-4.46528,11.40871l-4.01394,11.57522z" data-paper-data="{&quot;fillable&quot;:true}" stroke="#2a2a3a" stroke-width="1.5"/><path d="M102.28175,183.69503l8.72162,-11.5216l9.16724,-11.17031l9.59871,-10.80179l10.01539,-10.41662l10.41662,-10.01539l10.80179,-9.59871l11.17031,-9.16724l11.5216,-8.72162l32.91597,45.30495l-9.76831,7.39442l-9.47048,7.77222l-9.15804,8.13804l-8.83148,8.49131l-8.49131,8.83148l-8.13804,9.15804l-7.77222,9.47048l-7.39442,9.76831z" data-paper-data="{&quot;fillable&quot;:true}" stroke="#2a2a3a" stroke-width="1.5"/><path d="M183.69503,102.28175l11.85513,-8.26256l12.17037,-7.79076l12.46685,-7.30695l12.74411,-6.81187l13.00172,-6.30629l13.23928,-5.79098l13.45643,-5.26674l13.65282,-4.73439l17.30495,53.25916l-11.57522,4.01394l-11.40871,4.46528l-11.22461,4.90974l-11.0232,5.34663l-10.80479,5.77528l-10.56972,6.19502l-10.31836,6.60521l-10.05109,7.00522z" data-paper-data="{&quot;fillable&quot;:true}" stroke="#2a2a3a" stroke-width="1.5"/><path d="M286.28175,50.0112l13.82817,-4.19473l13.98219,-3.6486l14.11466,-3.09685l14.22536,-2.54033l14.31412,-1.97988l14.38082,-1.41639l14.42534,-0.85071l14.44761,-0.28371v56l-12.24906,0.24054l-12.23018,0.72125l-12.19243,1.20085l-12.13589,1.6786l-12.06063,2.15375l-11.96677,2.62559l-11.85447,3.09338l-11.72388,3.5564z" data-paper-data="{&quot;fillable&quot;:true}" stroke="#2a2a3a" stroke-width="1.5"/><path d="M400,32l14.44761,0.28371l14.42534,0.85071l14.38082,1.41639l14.31412,1.97988l14.22536,2.54033l14.11466,3.09685l13.98219,3.6486l13.82817,4.19473l-17.30495,53.25916l-11.72388,-3.5564l-11.85447,-3.09338l-11.96677,-2.62559l-12.06063,-2.15375l-12.13589,-1.6786l-12.19243,-1.20085l-12.23018,-0.72125l-12.24906,-0.24054z" data-paper-data="{&quot;fillable&quot;:true}" stroke="#2a2a3a" stroke-width="1.5"/><path d="M513.71825,50.0112l13.65282,4.73439l13.45643,5.26674l13.23928,5.79098l13.00172,6.30629l12.74411,6.81187l12.46685,7.30695l12.17037,7.79076l11.85513,8.26256l-32.91597,45.30495l-10.05109,-7.00522l-10.31836,-6.60521l-10.56972,-6.19502l-10.80479,-5.77528l-11.0232,-5.34663l-11.22461,-4.90974l-11.40871,-4.46528l-11.57522,-4.01394z" data-paper-data="{&quot;fillable&quot;:true}" stroke="#2a2a3a" stroke-width="1.5"/><path d="M616.30497,102.28175l11.5216,8.72162l11.17031,9.16724l10.80179,9.59871l10.41662,10.01539l10.01539,10.41662l9.59871,10.80179l9.16724,11.17031l8.72162,11.5216l-45.30495,32.91597l-7.39442,-9.76831l-7.77222,-9.47048l-8.13804,-9.15804l-8.49131,-8.83148l-8.83148,-8.49131l-9.15804,-8.13804l-9.47048,-7.77222l-9.76831,-7.39442z" data-paper-data="{&quot;fillable&quot;:true}" stroke="#2a2a3a" stroke-width="1.5"/><path d="M697.71825,183.69503l8.26256,11.85513l7.79076,12.17037l7.30695,12.46685l6.81187,12.74411l6.30629,13.00172l5.79098,13.23928l5.26674,13.45643l4.73439,13.65282l-53.25916,17.30495l-4.01394,-11.57522l-4.46528,-11.40871l-4.90974,-11.22461l-5.34663,-11.0232l-5.77528,-10.80479l-6.19502,-10.56972l-6.60521,-10.31836l-7.00522,-10.05109z" data-paper-data="{&quot;fillable&quot;:true}" stroke="#2a2a3a" stroke-width="1.5"/><path d="M749.9888,286.28175l4.19473,13.82817l3.6486,13.98219l3.09685,14.11466l2.54033,14.22536l1.97988,14.31412l1.41639,14.38082l0.85071,14.42534l0.28371,14.44761l-56,0l-0.24054,-12.24906l-0.72125,-12.23018l-1.20085,-12.19243l-1.6786,-12.13589l-2.15375,-12.06063l-2.62559,-11.96677l-3.09338,-11.85447l-3.5564,-11.72388z" data-paper-data="{&quot;fillable&quot;:true}" stroke="#2a2a3a" stroke-width="1.5"/><path d="M753.46931,457.56788c0,-5.52285 4.47715,-10 10,-10c5.52285,0 10,4.47715 10,10c0,5.52285 -4.47715,10 -10,10c-5.52285,0 -10,-4.47715 -10,-10z" data-paper-data="{&quot;fillable&quot;:true}" stroke="#2a2a3a" stroke-width="1.5"/><path d="M717.8904,567.0685c0,-5.52285 4.47715,-10 10,-10c5.52285,0 10,4.47715 10,10c0,5.52285 -4.47715,10 -10,10c-5.52285,0 -10,-4.47715 -10,-10z" data-paper-data="{&quot;fillable&quot;:true}" stroke="#2a2a3a" stroke-width="1.5"/><path d="M650.2153,660.2153c0,-5.52285 4.47715,-10 10,-10c5.52285,0 10,4.47715 10,10c0,5.52285 -4.47715,10 -10,10c-5.52285,0 -10,-4.47715 -10,-10z" data-paper-data="{&quot;fillable&quot;:true}" stroke="#2a2a3a" stroke-width="1.5"/><path d="M557.0685,727.8904c0,-5.52285 4.47715,-10 10,-10c5.52285,0 10,4.47715 10,10c0,5.52285 -4.47715,10 -10,10c-5.52285,0 -10,-4.47715 -10,-10z" data-paper-data="{&quot;fillable&quot;:true}" stroke="#2a2a3a" stroke-width="1.5"/><path d="M447.56788,763.46931c0,-5.52285 4.47715,-10 10,-10c5.52285,0 10,4.47715 10,10c0,5.52285 -4.47715,10 -10,10c-5.52285,0 -10,-4.47715 -10,-10z" data-paper-data="{&quot;fillable&quot;:true}" stroke="#2a2a3a" stroke-width="1.5"/><path d="M332.43212,763.46931c0,-5.52285 4.47715,-10 10,-10c5.52285,0 10,4.47715 10,10c0,5.52285 -4.47715,10 -10,10c-5.52285,0 -10,-4.47715 -10,-10z" data-paper-data="{&quot;fillable&quot;:true}" stroke="#2a2a3a" stroke-width="1.5"/><path d="M222.9315,727.8904c0,-5.52285 4.47715,-10 10,-10c5.52285,0 10,4.47715 10,10c0,5.52285 -4.47715,10 -10,10c-5.52285,0 -10,-4.47715 -10,-10z" data-paper-data="{&quot;fillable&quot;:true}" stroke="#2a2a3a" stroke-width="1.5"/><path d="M129.7847,660.2153c0,-5.52285 4.47715,-10 10,-10c5.52285,0 10,4.47715 10,10c0,5.52285 -4.47715,10 -10,10c-5.52285,0 -10,-4.47715 -10,-10z" data-paper-data="{&quot;fillable&quot;:true}" stroke="#2a2a3a" stroke-width="1.5"/><path d="M62.1096,567.0685c0,-5.52285 4.47715,-10 10,-10c5.52285,0 10,4.47715 10,10c0,5.52285 -4.47715,10 -10,10c-5.52285,0 -10,-4.47715 -10,-10z" data-paper-data="{&quot;fillable&quot;:true}" stroke="#2a2a3a" stroke-width="1.5"/><path d="M26.53069,457.56788c0,-5.52285 4.47715,-10 10,-10c5.52285,0 10,4.47715 10,10c0,5.52285 -4.47715,10 -10,10c-5.52285,0 -10,-4.47715 -10,-10z" data-paper-data="{&quot;fillable&quot;:true}" stroke="#2a2a3a" stroke-width="1.5"/><path d="M26.53069,342.43212c0,-5.52285 4.47715,-10 10,-10c5.52285,0 10,4.47715 10,10c0,5.52285 -4.47715,10 -10,10c-5.52285,0 -10,-4.47715 -10,-10z" data-paper-data="{&quot;fillable&quot;:true}" stroke="#2a2a3a" stroke-width="1.5"/><path d="M62.1096,232.9315c0,-5.52285 4.47715,-10 10,-10c5.52285,0 10,4.47715 10,10c0,5.52285 -4.47715,10 -10,10c-5.52285,0 -10,-4.47715 -10,-10z" data-paper-data="{&quot;fillable&quot;:true}" stroke="#2a2a3a" stroke-width="1.5"/><path d="M129.7847,139.7847c0,-5.52285 4.47715,-10 10,-10c5.52285,0 10,4.47715 10,10c0,5.52285 -4.47715,10 -10,10c-5.52285,0 -10,-4.47715 -10,-10z" data-paper-data="{&quot;fillable&quot;:true}" stroke="#2a2a3a" stroke-width="1.5"/><path d="M222.9315,72.1096c0,-5.52285 4.47715,-10 10,-10c5.52285,0 10,4.47715 10,10c0,5.52285 -4.47715,10 -10,10c-5.52285,0 -10,-4.47715 -10,-10z" data-paper-data="{&quot;fillable&quot;:true}" stroke="#2a2a3a" stroke-width="1.5"/><path d="M332.43212,36.53069c0,-5.52285 4.47715,-10 10,-10c5.52285,0 10,4.47715 10,10c0,5.52285 -4.47715,10 -10,10c-5.52285,0 -10,-4.47715 -10,-10z" data-paper-data="{&quot;fillable&quot;:true}" stroke="#2a2a3a" stroke-width="1.5"/><path d="M447.56788,36.53069c0,-5.52285 4.47715,-10 10,-10c5.52285,0 10,4.47715 10,10c0,5.52285 -4.47715,10 -10,10c-5.52285,0 -10,-4.47715 -10,-10z" data-paper-data="{&quot;fillable&quot;:true}" stroke="#2a2a3a" stroke-width="1.5"/><path d="M557.0685,72.1096c0,-5.52285 4.47715,-10 10,-10c5.52285,0 10,4.47715 10,10c0,5.52285 -4.47715,10 -10,10c-5.52285,0 -10,-4.47715 -10,-10z" data-paper-data="{&quot;fillable&quot;:true}" stroke="#2a2a3a" stroke-width="1.5"/><path d="M650.2153,139.7847c0,-5.52285 4.47715,-10 10,-10c5.52285,0 10,4.47715 10,10c0,5.52285 -4.47715,10 -10,10c-5.52285,0 -10,-4.47715 -10,-10z" data-paper-data="{&quot;fillable&quot;:true}" stroke="#2a2a3a" stroke-width="1.5"/><path d="M717.8904,232.9315c0,-5.52285 4.47715,-10 10,-10c5.52285,0 10,4.47715 10,10c0,5.52285 -4.47715,10 -10,10c-5.52285,0 -10,-4.47715 -10,-10z" data-paper-data="{&quot;fillable&quot;:true}" stroke="#2a2a3a" stroke-width="1.5"/><path d="M753.46931,342.43212c0,-5.52285 4.47715,-10 10,-10c5.52285,0 10,4.47715 10,10c0,5.52285 -4.47715,10 -10,10c-5.52285,0 -10,-4.47715 -10,-10z" data-paper-data="{&quot;fillable&quot;:true}" stroke="#2a2a3a" stroke-width="1.5"/><path d="M712,400l-0.24054,12.24906l-0.72125,12.23018l-1.20085,12.19243l-1.6786,12.13589l-2.15375,12.06063l-2.62559,11.96677l-3.09338,11.85447l-3.5564,11.72388l-51.35705,-16.68692l2.94087,-9.69475l2.55799,-9.80273l2.17116,-9.8956l1.78099,-9.97321l1.38807,-10.03544l0.99301,-10.0822l0.59642,-10.11341l0.19891,-10.12903z" data-paper-data="{&quot;fillable&quot;:true}" stroke="#2a2a3a" stroke-width="1.5"/><path d="M671.49118,444.58382c0,-5.52285 4.47715,-10 10,-10c5.52285,0 10,4.47715 10,10c0,5.52285 -4.47715,10 -10,10c-5.52285,0 -10,-4.47715 -10,-10z" data-paper-data="{&quot;fillable&quot;:true}" stroke="#2a2a3a" stroke-width="1.5"/><path d="M696.72963,496.4133l-4.01394,11.57522l-4.46528,11.40871l-4.90974,11.22461l-5.34663,11.0232l-5.77528,10.80479l-6.19502,10.56972l-6.60521,10.31836l-7.00522,10.05109l-43.68692,-31.7404l5.79278,-8.31147l5.462,-8.53249l5.12281,-8.74035l4.77571,-8.93473l4.42126,-9.11534l4.05998,-9.28189l3.69245,-9.43412l3.31922,-9.57182z" data-paper-data="{&quot;fillable&quot;:true}" stroke="#2a2a3a" stroke-width="1.5"/><path d="M653.93686,519.38729l10,20h-20z" data-paper-data="{&quot;fillable&quot;:true}" stroke="#2a2a3a" stroke-width="1.5"/><path d="M652.4133,583.389l-7.39442,9.76831l-7.77222,9.47048l-8.13804,9.15804l-8.49131,8.83148l-8.83148,8.49131l-9.15804,8.13804l-9.47048,7.77222l-9.76831,7.39442l-31.7404,-43.68692l8.07764,-6.11462l7.83136,-6.42703l7.573,-6.72953l7.30296,-7.02166l7.02166,-7.30296l6.72953,-7.573l6.42703,-7.83136l6.11462,-8.07764z" data-paper-data="{&quot;fillable&quot;:true}" stroke="#2a2a3a" stroke-width="1.5"/><path d="M594.52543,608.52543v-14h14v14z" data-paper-data="{&quot;fillable&quot;:true}" stroke="#2a2a3a" stroke-width="1.5"/><path d="M583.389,652.4133l-10.05109,7.00522l-10.31836,6.60521l-10.56972,6.19502l-10.80479,5.77528l-11.0232,5.34663l-11.22461,4.90974l-11.40871,4.46528l-11.57522,4.01394l-16.68692,-51.35705l9.57182,-3.31922l9.43412,-3.69245l9.28189,-4.05998l9.11534,-4.42126l8.93473,-4.77571l8.74035,-5.12281l8.53249,-5.462l8.31147,-5.79278z" data-paper-data="{&quot;fillable&quot;:true}" stroke="#2a2a3a" stroke-width="1.5"/><path d="M529.38729,643.93686l10,10l-10,10l-10,-10z" data-paper-data="{&quot;fillable&quot;:true}" stroke="#2a2a3a" stroke-width="1.5"/><path d="M496.4133,696.72963l-11.72388,3.5564l-11.85447,3.09338l-11.96677,2.62559l-12.06063,2.15375l-12.13589,1.6786l-12.19243,1.20085l-12.23018,0.72125l-12.24906,0.24054v-54l10.12903,-0.19891l10.11341,-0.59642l10.0822,-0.99301l10.03544,-1.38807l9.97321,-1.78099l9.8956,-2.17116l9.80273,-2.55799l9.69475,-2.94087z" data-paper-data="{&quot;fillable&quot;:true}" stroke="#2a2a3a" stroke-width="1.5"/><path d="M434.58382,681.49118c0,-5.52285 4.47715,-10 10,-10c5.52285,0 10,4.47715 10,10c0,5.52285 -4.47715,10 -10,10c-5.52285,0 -10,-4.47715 -10,-10z" data-paper-data="{&quot;fillable&quot;:true}" stroke="#2a2a3a" stroke-width="1.5"/><path d="M400,712l-12.24906,-0.24054l-12.23018,-0.72125l-12.19243,-1.20085l-12.13589,-1.6786l-12.06063,-2.15375l-11.96677,-2.62559l-11.85447,-3.09338l-11.72388,-3.5564l16.68692,-51.35705l9.69475,2.94087l9.80273,2.55799l9.8956,2.17116l9.97321,1.78099l10.03544,1.38807l10.0822,0.99301l10.11341,0.59642l10.12903,0.19891z" data-paper-data="{&quot;fillable&quot;:true}" stroke="#2a2a3a" stroke-width="1.5"/><path d="M355.41618,671.49118l10,20h-20z" data-paper-data="{&quot;fillable&quot;:true}" stroke="#2a2a3a" stroke-width="1.5"/><path d="M303.5867,696.72963l-11.57522,-4.01394l-11.40871,-4.46528l-11.22461,-4.90974l-11.0232,-5.34663l-10.80479,-5.77528l-10.56972,-6.19502l-10.31836,-6.60521l-10.05109,-7.00522l31.7404,-43.68692l8.31147,5.79278l8.53249,5.462l8.74035,5.12281l8.93473,4.77571l9.11534,4.42126l9.28189,4.05998l9.43412,3.69245l9.57182,3.31922z" data-paper-data="{&quot;fillable&quot;:true}" stroke="#2a2a3a" stroke-width="1.5"/><path d="M263.61271,660.93686v-14h14v14z" data-paper-data="{&quot;fillable&quot;:true}" stroke="#2a2a3a" stroke-width="1.5"/><path d="M216.611,652.4133l-9.76831,-7.39442l-9.47048,-7.77222l-9.15804,-8.13804l-8.83148,-8.49131l-8.49131,-8.83148l-8.13804,-9.15804l-7.77222,-9.47048l-7.39442,-9.76831l43.68692,-31.7404l6.11462,8.07764l6.42703,7.83136l6.72953,7.573l7.02166,7.30296l7.30296,7.02166l7.573,6.72953l7.83136,6.42703l8.07764,6.11462z" data-paper-data="{&quot;fillable&quot;:true}" stroke="#2a2a3a" stroke-width="1.5"/><path d="M198.47457,591.52543l10,10l-10,10l-10,-10z" data-paper-data="{&quot;fillable&quot;:true}" stroke="#2a2a3a" stroke-width="1.5"/><path d="M147.5867,583.389l-7.00522,-10.05109l-6.60521,-10.31836l-6.19502,-10.56972l-5.77528,-10.80479l-5.34663,-11.0232l-4.90974,-11.22461l-4.46528,-11.40871l-4.01394,-11.57522l51.35705,-16.68692l3.31922,9.57182l3.69245,9.43412l4.05998,9.28189l4.42126,9.11534l4.77571,8.93473l5.12281,8.74035l5.462,8.53249l5.79278,8.31147z" data-paper-data="{&quot;fillable&quot;:true}" stroke="#2a2a3a" stroke-width="1.5"/><path d="M136.06314,529.38729c0,-5.52285 4.47715,-10 10,-10c5.52285,0 10,4.47715 10,10c0,5.52285 -4.47715,10 -10,10c-5.52285,0 -10,-4.47715 -10,-10z" data-paper-data="{&quot;fillable&quot;:true}" stroke="#2a2a3a" stroke-width="1.5"/><path d="M103.27037,496.4133l-3.5564,-11.72388l-3.09338,-11.85447l-2.62559,-11.96677l-2.15375,-12.06063l-1.6786,-12.13589l-1.20085,-12.19243l-0.72125,-12.23018l-0.24054,-12.24906h54l0.19891,10.12903l0.59642,10.11341l0.99301,10.0822l1.38807,10.03544l1.78099,9.97321l2.17116,9.8956l2.55799,9.80273l2.94087,9.69475z" data-paper-data="{&quot;fillable&quot;:true}" stroke="#2a2a3a" stroke-width="1.5"/><path d="M118.50882,434.58382l10,20h-20z" data-paper-data="{&quot;fillable&quot;:true}" stroke="#2a2a3a" stroke-width="1.5"/><path d="M88,400l0.24054,-12.24906l0.72125,-12.23018l1.20085,-12.19243l1.6786,-12.13589l2.15375,-12.06063l2.62559,-11.96677l3.09338,-11.85447l3.5564,-11.72388l51.35705,16.68692l-2.94087,9.69475l-2.55799,9.80273l-2.17116,9.8956l-1.78099,9.97321l-1.38807,10.03544l-0.99301,10.0822l-0.59642,10.11341l-0.19891,10.12903z" data-paper-data="{&quot;fillable&quot;:true}" stroke="#2a2a3a" stroke-width="1.5"/><path d="M111.50882,362.41618v-14h14v14z" data-paper-data="{&quot;fillable&quot;:true}" stroke="#2a2a3a" stroke-width="1.5"/><path d="M103.27037,303.5867l4.01394,-11.57522l4.46528,-11.40871l4.90974,-11.22461l5.34663,-11.0232l5.77528,-10.80479l6.19502,-10.56972l6.60521,-10.31836l7.00522,-10.05109l43.68692,31.7404l-5.79278,8.31147l-5.462,8.53249l-5.12281,8.74035l-4.77571,8.93473l-4.42126,9.11534l-4.05998,9.28189l-3.69245,9.43412l-3.31922,9.57182z" data-paper-data="{&quot;fillable&quot;:true}" stroke="#2a2a3a" stroke-width="1.5"/><path d="M146.06314,260.61271l10,10l-10,10l-10,-10z" data-paper-data="{&quot;fillable&quot;:true}" stroke="#2a2a3a" stroke-width="1.5"/><path d="M147.5867,216.611l7.39442,-9.76831l7.77222,-9.47048l8.13804,-9.15804l8.49131,-8.83148l8.83148,-8.49131l9.15804,-8.13804l9.47048,-7.77222l9.76831,-7.39442l31.7404,43.68692l-8.07764,6.11462l-7.83136,6.42703l-7.573,6.72953l-7.30296,7.02166l-7.02166,7.30296l-6.72953,7.573l-6.42703,7.83136l-6.11462,8.07764z" data-paper-data="{&quot;fillable&quot;:true}" stroke="#2a2a3a" stroke-width="1.5"/><path d="M188.47457,198.47457c0,-5.52285 4.47715,-10 10,-10c5.52285,0 10,4.47715 10,10c0,5.52285 -4.47715,10 -10,10c-5.52285,0 -10,-4.47715 -10,-10z" data-paper-data="{&quot;fillable&quot;:true}" stroke="#2a2a3a" stroke-width="1.5"/><path d="M216.611,147.5867l10.05109,-7.00522l10.31836,-6.60521l10.56972,-6.19502l10.80479,-5.77528l11.0232,-5.34663l11.22461,-4.90974l11.40871,-4.46528l11.57522,-4.01394l16.68692,51.35705l-9.57182,3.31922l-9.43412,3.69245l-9.28189,4.05998l-9.11534,4.42126l-8.93473,4.77571l-8.74035,5.12281l-8.53249,5.462l-8.31147,5.79278z" data-paper-data="{&quot;fillable&quot;:true}" stroke="#2a2a3a" stroke-width="1.5"/><path d="M270.61271,136.06314l10,20h-20z" data-paper-data="{&quot;fillable&quot;:true}" stroke="#2a2a3a" stroke-width="1.5"/><path d="M303.5867,103.27037l11.72388,-3.5564l11.85447,-3.09338l11.96677,-2.62559l12.06063,-2.15375l12.13589,-1.6786l12.19243,-1.20085l12.23018,-0.72125l12.24906,-0.24054v54l-10.12903,0.19891l-10.11341,0.59642l-10.0822,0.99301l-10.03544,1.38807l-9.97321,1.78099l-9.8956,2.17116l-9.80273,2.55799l-9.69475,2.94087z" data-paper-data="{&quot;fillable&quot;:true}" stroke="#2a2a3a" stroke-width="1.5"/><path d="M348.41618,125.50882v-14h14v14z" data-paper-data="{&quot;fillable&quot;:true}" stroke="#2a2a3a" stroke-width="1.5"/><path d="M400,88l12.24906,0.24054l12.23018,0.72125l12.19243,1.20085l12.13589,1.6786l12.06063,2.15375l11.96677,2.62559l11.85447,3.09338l11.72388,3.5564l-16.68692,51.35705l-9.69475,-2.94087l-9.80273,-2.55799l-9.8956,-2.17116l-9.97321,-1.78099l-10.03544,-1.38807l-10.0822,-0.99301l-10.11341,-0.59642l-10.12903,-0.19891z" data-paper-data="{&quot;fillable&quot;:true}" stroke="#2a2a3a" stroke-width="1.5"/><path d="M444.58382,108.50882l10,10l-10,10l-10,-10z" data-paper-data="{&quot;fillable&quot;:true}" stroke="#2a2a3a" stroke-width="1.5"/><path d="M496.4133,103.27037l11.57522,4.01394l11.40871,4.46528l11.22461,4.90974l11.0232,5.34663l10.80479,5.77528l10.56972,6.19502l10.31836,6.60521l10.05109,7.00522l-31.7404,43.68692l-8.31147,-5.79278l-8.53249,-5.462l-8.74035,-5.12281l-8.93473,-4.77571l-9.11534,-4.42126l-9.28189,-4.05998l-9.43412,-3.69245l-9.57182,-3.31922z" data-paper-data="{&quot;fillable&quot;:true}" stroke="#2a2a3a" stroke-width="1.5"/><path d="M519.38729,146.06314c0,-5.52285 4.47715,-10 10,-10c5.52285,0 10,4.47715 10,10c0,5.52285 -4.47715,10 -10,10c-5.52285,0 -10,-4.47715 -10,-10z" data-paper-data="{&quot;fillable&quot;:true}" stroke="#2a2a3a" stroke-width="1.5"/><path d="M583.389,147.5867l9.76831,7.39442l9.47048,7.77222l9.15804,8.13804l8.83148,8.49131l8.49131,8.83148l8.13804,9.15804l7.77222,9.47048l7.39442,9.76831l-43.68692,31.7404l-6.11462,-8.07764l-6.42703,-7.83136l-6.72953,-7.573l-7.02166,-7.30296l-7.30296,-7.02166l-7.573,-6.72953l-7.83136,-6.42703l-8.07764,-6.11462z" data-paper-data="{&quot;fillable&quot;:true}" stroke="#2a2a3a" stroke-width="1.5"/><path d="M601.52543,188.47457l10,20h-20z" data-paper-data="{&quot;fillable&quot;:true}" stroke="#2a2a3a" stroke-width="1.5"/><path d="M652.4133,216.611l7.00522,10.05109l6.60521,10.31836l6.19502,10.56972l5.77528,10.80479l5.34663,11.0232l4.90974,11.22461l4.46528,11.40871l4.01394,11.57522l-51.35705,16.68692l-3.31922,-9.57182l-3.69245,-9.43412l-4.05998,-9.28189l-4.42126,-9.11534l-4.77571,-8.93473l-5.12281,-8.74035l-5.462,-8.53249l-5.79278,-8.31147z" data-paper-data="{&quot;fillable&quot;:true}" stroke="#2a2a3a" stroke-width="1.5"/><path d="M646.93686,277.61271v-14h14v14z" data-paper-data="{&quot;fillable&quot;:true}" stroke="#2a2a3a" stroke-width="1.5"/><path d="M696.72963,303.5867l3.5564,11.72388l3.09338,11.85447l2.62559,11.96677l2.15375,12.06063l1.6786,12.13589l1.20085,12.19243l0.72125,12.23018l0.24054,12.24906h-54l-0.19891,-10.12903l-0.59642,-10.11341l-0.99301,-10.0822l-1.38807,-10.03544l-1.78099,-9.97321l-2.17116,-9.8956l-2.55799,-9.80273l-2.94087,-9.69475z" data-paper-data="{&quot;fillable&quot;:true}" stroke="#2a2a3a" stroke-width="1.5"/><path d="M681.49118,345.41618l10,10l-10,10l-10,-10z" data-paper-data="{&quot;fillable&quot;:true}" stroke="#2a2a3a" stroke-width="1.5"/><path d="M600,400l54.82359,40.36009l-64.61229,21.44331z" data-paper-data="{&quot;fillable&quot;:true}" stroke="#2a2a3a" stroke-width="1.5"/><path d="M600,400l-24.19148,27.84533l14.40278,33.95806z" data-paper-data="{&quot;fillable&quot;:true}" stroke="#2a2a3a" stroke-width="1.5"/><path d="M590.2113,461.8034l39.66838,55.32615l-68.07628,0.4275z" data-paper-data="{&quot;fillable&quot;:true}" stroke="#2a2a3a" stroke-width="1.5"/><path d="M590.2113,461.8034l-31.61214,19.00691l3.20424,36.74674z" data-paper-data="{&quot;fillable&quot;:true}" stroke="#2a2a3a" stroke-width="1.5"/><path d="M561.8034,517.55705l20.63015,64.8765l-64.8765,-20.63015z" data-paper-data="{&quot;fillable&quot;:true}" stroke="#2a2a3a" stroke-width="1.5"/><path d="M561.8034,517.55705l-35.93839,8.30796l-8.30796,35.93839z" data-paper-data="{&quot;fillable&quot;:true}" stroke="#2a2a3a" stroke-width="1.5"/><path d="M517.55705,561.8034l-0.4275,68.07628l-55.32615,-39.66838z" data-paper-data="{&quot;fillable&quot;:true}" stroke="#2a2a3a" stroke-width="1.5"/><path d="M517.55705,561.8034l-36.74674,-3.20424l-19.00691,31.61214z" data-paper-data="{&quot;fillable&quot;:true}" stroke="#2a2a3a" stroke-width="1.5"/><path d="M461.8034,590.2113l-21.44331,64.61229l-40.36009,-54.82359z" data-paper-data="{&quot;fillable&quot;:true}" stroke="#2a2a3a" stroke-width="1.5"/><path d="M461.8034,590.2113l-33.95806,-14.40278l-27.84533,24.19148z" data-paper-data="{&quot;fillable&quot;:true}" stroke="#2a2a3a" stroke-width="1.5"/><path d="M400,600l-40.36009,54.82359l-21.44331,-64.61229z" data-paper-data="{&quot;fillable&quot;:true}" stroke="#2a2a3a" stroke-width="1.5"/><path d="M400,600l-27.84533,-24.19148l-33.95806,14.40278z" data-paper-data="{&quot;fillable&quot;:true}" stroke="#2a2a3a" stroke-width="1.5"/><path d="M338.1966,590.2113l-55.32615,39.66838l-0.4275,-68.07628z" data-paper-data="{&quot;fillable&quot;:true}" stroke="#2a2a3a" stroke-width="1.5"/><path d="M338.1966,590.2113l-19.00691,-31.61214l-36.74674,3.20424z" data-paper-data="{&quot;fillable&quot;:true}" stroke="#2a2a3a" stroke-width="1.5"/><path d="M282.44295,561.8034l-64.8765,20.63015l20.63015,-64.8765z" data-paper-data="{&quot;fillable&quot;:true}" stroke="#2a2a3a" stroke-width="1.5"/><path d="M282.44295,561.8034l-8.30796,-35.93839l-35.93839,-8.30796z" data-paper-data="{&quot;fillable&quot;:true}" stroke="#2a2a3a" stroke-width="1.5"/><path d="M238.1966,517.55705l-68.07628,-0.4275l39.66838,-55.32615z" data-paper-data="{&quot;fillable&quot;:true}" stroke="#2a2a3a" stroke-width="1.5"/><path d="M238.1966,517.55705l3.20424,-36.74674l-31.61214,-19.00691z" data-paper-data="{&quot;fillable&quot;:true}" stroke="#2a2a3a" stroke-width="1.5"/><path d="M209.7887,461.8034l-64.61229,-21.44331l54.82359,-40.36009z" data-paper-data="{&quot;fillable&quot;:true}" stroke="#2a2a3a" stroke-width="1.5"/><path d="M209.7887,461.8034l14.40278,-33.95806l-24.19148,-27.84533z" data-paper-data="{&quot;fillable&quot;:true}" stroke="#2a2a3a" stroke-width="1.5"/><path d="M200,400l-54.82359,-40.36009l64.61229,-21.44331z" data-paper-data="{&quot;fillable&quot;:true}" stroke="#2a2a3a" stroke-width="1.5"/><path d="M200,400l24.19148,-27.84533l-14.40278,-33.95806z" data-paper-data="{&quot;fillable&quot;:true}" stroke="#2a2a3a" stroke-width="1.5"/><path d="M209.7887,338.1966l-39.66838,-55.32615l68.07628,-0.4275z" data-paper-data="{&quot;fillable&quot;:true}" stroke="#2a2a3a" stroke-width="1.5"/><path d="M209.7887,338.1966l31.61214,-19.00691l-3.20424,-36.74674z" data-paper-data="{&quot;fillable&quot;:true}" stroke="#2a2a3a" stroke-width="1.5"/><path d="M238.1966,282.44295l-20.63015,-64.8765l64.8765,20.63015z" data-paper-data="{&quot;fillable&quot;:true}" stroke="#2a2a3a" stroke-width="1.5"/><path d="M238.1966,282.44295l35.93839,-8.30796l8.30796,-35.93839z" data-paper-data="{&quot;fillable&quot;:true}" stroke="#2a2a3a" stroke-width="1.5"/><path d="M282.44295,238.1966l0.4275,-68.07628l55.32615,39.66838z" data-paper-data="{&quot;fillable&quot;:true}" stroke="#2a2a3a" stroke-width="1.5"/><path d="M282.44295,238.1966l36.74674,3.20424l19.00691,-31.61214z" data-paper-data="{&quot;fillable&quot;:true}" stroke="#2a2a3a" stroke-width="1.5"/><path d="M338.1966,209.7887l21.44331,-64.61229l40.36009,54.82359z" data-paper-data="{&quot;fillable&quot;:true}" stroke="#2a2a3a" stroke-width="1.5"/><path d="M338.1966,209.7887l33.95806,14.40278l27.84533,-24.19148z" data-paper-data="{&quot;fillable&quot;:true}" stroke="#2a2a3a" stroke-width="1.5"/><path d="M400,200l40.36009,-54.82359l21.44331,64.61229z" data-paper-data="{&quot;fillable&quot;:true}" stroke="#2a2a3a" stroke-width="1.5"/><path d="M400,200l27.84533,24.19148l33.95806,-14.40278z" data-paper-data="{&quot;fillable&quot;:true}" stroke="#2a2a3a" stroke-width="1.5"/><path d="M461.8034,209.7887l55.32615,-39.66838l0.4275,68.07628z" data-paper-data="{&quot;fillable&quot;:true}" stroke="#2a2a3a" stroke-width="1.5"/><path d="M461.8034,209.7887l19.00691,31.61214l36.74674,-3.20424z" data-paper-data="{&quot;fillable&quot;:true}" stroke="#2a2a3a" stroke-width="1.5"/><path d="M517.55705,238.1966l64.8765,-20.63015l-20.63015,64.8765z" data-paper-data="{&quot;fillable&quot;:true}" stroke="#2a2a3a" stroke-width="1.5"/><path d="M517.55705,238.1966l8.30796,35.93839l35.93839,8.30796z" data-paper-data="{&quot;fillable&quot;:true}" stroke="#2a2a3a" stroke-width="1.5"/><path d="M561.8034,282.44295l68.07628,0.4275l-39.66838,55.32615z" data-paper-data="{&quot;fillable&quot;:true}" stroke="#2a2a3a" stroke-width="1.5"/><path d="M561.8034,282.44295l-3.20424,36.74674l31.61214,19.00691z" data-paper-data="{&quot;fillable&quot;:true}" stroke="#2a2a3a" stroke-width="1.5"/><path d="M590.2113,338.1966l64.61229,21.44331l-54.82359,40.36009z" data-paper-data="{&quot;fillable&quot;:true}" stroke="#2a2a3a" stroke-width="1.5"/><path d="M590.2113,338.1966l-14.40278,33.95806l24.19148,27.84533z" data-paper-data="{&quot;fillable&quot;:true}" stroke="#2a2a3a" stroke-width="1.5"/><path d="M600,400l-0.15419,7.85196l-0.46234,7.83986l-0.76978,7.81566l-1.07602,7.77941l-1.38061,7.73117l-1.68307,7.67101l-1.98294,7.59902l-2.27974,7.51531l-36.14015,-11.74265l1.84659,-6.0874l1.60618,-6.1552l1.36329,-6.21352l1.1183,-6.26225l0.87158,-6.30132l0.62352,-6.33068l0.3745,-6.35028l0.1249,-6.36009z" data-paper-data="{&quot;fillable&quot;:true}" stroke="#2a2a3a" stroke-width="1.5"/><path d="M571.77159,428.31464c0,-3.86599 3.13401,-7 7,-7c3.86599,0 7,3.13401 7,7c0,3.86599 -3.13401,7 -7,7c-3.86599,0 -7,-3.13401 -7,-7z" data-paper-data="{&quot;fillable&quot;:true}" stroke="#2a2a3a" stroke-width="1.5"/><path d="M590.2113,461.8034l-2.57304,7.42001l-2.86236,7.31328l-3.14727,7.19526l-3.42733,7.06615l-3.7021,6.92615l-3.97117,6.77546l-4.23411,6.61433l-4.49052,6.443l-30.74265,-22.33584l3.63732,-5.21883l3.42963,-5.35761l3.21665,-5.48813l2.9987,-5.61018l2.77614,-5.72358l2.54929,-5.82816l2.31851,-5.92375l2.08416,-6.01021z" data-paper-data="{&quot;fillable&quot;:true}" stroke="#2a2a3a" stroke-width="1.5"/><path d="M554.27218,482.17228c0,-3.86599 3.13401,-7 7,-7c3.86599,0 7,3.13401 7,7c0,3.86599 -3.13401,7 -7,7c-3.86599,0 -7,-3.13401 -7,-7z" data-paper-data="{&quot;fillable&quot;:true}" stroke="#2a2a3a" stroke-width="1.5"/><path d="M561.8034,517.55705l-4.74001,6.26174l-4.98219,6.07082l-5.21669,5.87054l-5.44315,5.66121l-5.66121,5.44315l-5.87054,5.21669l-6.07082,4.98219l-6.26174,4.74001l-22.33584,-30.74265l5.07201,-3.83941l4.91736,-4.03558l4.75514,-4.22552l4.58558,-4.40895l4.40895,-4.58558l4.22552,-4.75514l4.03558,-4.91736l3.83941,-5.07201z" data-paper-data="{&quot;fillable&quot;:true}" stroke="#2a2a3a" stroke-width="1.5"/><path d="M520.98633,527.98633c0,-3.86599 3.13401,-7 7,-7c3.86599,0 7,3.13401 7,7c0,3.86599 -3.13401,7 -7,7c-3.86599,0 -7,-3.13401 -7,-7z" data-paper-data="{&quot;fillable&quot;:true}" stroke="#2a2a3a" stroke-width="1.5"/><path d="M517.55705,561.8034l-6.443,4.49052l-6.61433,4.23411l-6.77546,3.97117l-6.92615,3.7021l-7.06615,3.42733l-7.19526,3.14727l-7.31328,2.86236l-7.42001,2.57304l-11.74265,-36.14015l6.01021,-2.08416l5.92375,-2.31851l5.82816,-2.54929l5.72358,-2.77614l5.61018,-2.9987l5.48813,-3.21665l5.35761,-3.42963l5.21883,-3.63732z" data-paper-data="{&quot;fillable&quot;:true}" stroke="#2a2a3a" stroke-width="1.5"/><path d="M475.17228,561.27218c0,-3.86599 3.13401,-7 7,-7c3.86599,0 7,3.13401 7,7c0,3.86599 -3.13401,7 -7,7c-3.86599,0 -7,-3.13401 -7,-7z" data-paper-data="{&quot;fillable&quot;:true}" stroke="#2a2a3a" stroke-width="1.5"/><path d="M461.8034,590.2113l-7.51531,2.27974l-7.59902,1.98294l-7.67101,1.68307l-7.73117,1.38061l-7.77941,1.07602l-7.81566,0.76978l-7.83986,0.46234l-7.85196,0.15419v-38l6.36009,-0.1249l6.35028,-0.3745l6.33068,-0.62352l6.30132,-0.87158l6.26225,-1.1183l6.21352,-1.36329l6.1552,-1.60618l6.0874,-1.84659z" data-paper-data="{&quot;fillable&quot;:true}" stroke="#2a2a3a" stroke-width="1.5"/><path d="M421.31464,578.77159c0,-3.86599 3.13401,-7 7,-7c3.86599,0 7,3.13401 7,7c0,3.86599 -3.13401,7 -7,7c-3.86599,0 -7,-3.13401 -7,-7z" data-paper-data="{&quot;fillable&quot;:true}" stroke="#2a2a3a" stroke-width="1.5"/><path d="M400,600l-7.85196,-0.15419l-7.83986,-0.46234l-7.81566,-0.76978l-7.77941,-1.07602l-7.73117,-1.38061l-7.67101,-1.68307l-7.59902,-1.98294l-7.51531,-2.27974l11.74265,-36.14015l6.0874,1.84659l6.1552,1.60618l6.21352,1.36329l6.26225,1.1183l6.30132,0.87158l6.33068,0.62352l6.35028,0.3745l6.36009,0.1249z" data-paper-data="{&quot;fillable&quot;:true}" stroke="#2a2a3a" stroke-width="1.5"/><path d="M364.68536,578.77159c0,-3.86599 3.13401,-7 7,-7c3.86599,0 7,3.13401 7,7c0,3.86599 -3.13401,7 -7,7c-3.86599,0 -7,-3.13401 -7,-7z" data-paper-data="{&quot;fillable&quot;:true}" stroke="#2a2a3a" stroke-width="1.5"/><path d="M338.1966,590.2113l-7.42001,-2.57304l-7.31328,-2.86236l-7.19526,-3.14727l-7.06615,-3.42733l-6.92615,-3.7021l-6.77546,-3.97117l-6.61433,-4.23411l-6.443,-4.49052l22.33584,-30.74265l5.21883,3.63732l5.35761,3.42963l5.48813,3.21665l5.61018,2.9987l5.72358,2.77614l5.82816,2.54929l5.92375,2.31851l6.01021,2.08416z" data-paper-data="{&quot;fillable&quot;:true}" stroke="#2a2a3a" stroke-width="1.5"/><path d="M310.82772,561.27218c0,-3.86599 3.13401,-7 7,-7c3.86599,0 7,3.13401 7,7c0,3.86599 -3.13401,7 -7,7c-3.86599,0 -7,-3.13401 -7,-7z" data-paper-data="{&quot;fillable&quot;:true}" stroke="#2a2a3a" stroke-width="1.5"/><path d="M282.44295,561.8034l-6.26174,-4.74001l-6.07082,-4.98219l-5.87054,-5.21669l-5.66121,-5.44315l-5.44315,-5.66121l-5.21669,-5.87054l-4.98219,-6.07082l-4.74001,-6.26174l30.74265,-22.33584l3.83941,5.07201l4.03558,4.91736l4.22552,4.75514l4.40895,4.58558l4.58558,4.40895l4.75514,4.22552l4.91736,4.03558l5.07201,3.83941z" data-paper-data="{&quot;fillable&quot;:true}" stroke="#2a2a3a" stroke-width="1.5"/><path d="M265.01367,527.98633c0,-3.86599 3.13401,-7 7,-7c3.86599,0 7,3.13401 7,7c0,3.86599 -3.13401,7 -7,7c-3.86599,0 -7,-3.13401 -7,-7z" data-paper-data="{&quot;fillable&quot;:true}" stroke="#2a2a3a" stroke-width="1.5"/><path d="M238.1966,517.55705l-4.49052,-6.443l-4.23411,-6.61433l-3.97117,-6.77546l-3.7021,-6.92615l-3.42733,-7.06615l-3.14727,-7.19526l-2.86236,-7.31328l-2.57304,-7.42001l36.14015,-11.74265l2.08416,6.01021l2.31851,5.92375l2.54929,5.82816l2.77614,5.72358l2.9987,5.61018l3.21665,5.48813l3.42963,5.35761l3.63732,5.21883z" data-paper-data="{&quot;fillable&quot;:true}" stroke="#2a2a3a" stroke-width="1.5"/><path d="M231.72782,482.17228c0,-3.86599 3.13401,-7 7,-7c3.86599,0 7,3.13401 7,7c0,3.86599 -3.13401,7 -7,7c-3.86599,0 -7,-3.13401 -7,-7z" data-paper-data="{&quot;fillable&quot;:true}" stroke="#2a2a3a" stroke-width="1.5"/><path d="M209.7887,461.8034l-2.27974,-7.51531l-1.98294,-7.59902l-1.68307,-7.67101l-1.38061,-7.73117l-1.07602,-7.77941l-0.76978,-7.81566l-0.46234,-7.83986l-0.15419,-7.85196h38l0.1249,6.36009l0.3745,6.35028l0.62352,6.33068l0.87158,6.30132l1.1183,6.26225l1.36329,6.21352l1.60618,6.1552l1.84659,6.0874z" data-paper-data="{&quot;fillable&quot;:true}" stroke="#2a2a3a" stroke-width="1.5"/><path d="M214.22841,428.31464c0,-3.86599 3.13401,-7 7,-7c3.86599,0 7,3.13401 7,7c0,3.86599 -3.13401,7 -7,7c-3.86599,0 -7,-3.13401 -7,-7z" data-paper-data="{&quot;fillable&quot;:true}" stroke="#2a2a3a" stroke-width="1.5"/><path d="M200,400l0.15419,-7.85196l0.46234,-7.83986l0.76978,-7.81566l1.07602,-7.77941l1.38061,-7.73117l1.68307,-7.67101l1.98294,-7.59902l2.27974,-7.51531l36.14015,11.74265l-1.84659,6.0874l-1.60618,6.1552l-1.36329,6.21352l-1.1183,6.26225l-0.87158,6.30132l-0.62352,6.33068l-0.3745,6.35028l-0.1249,6.36009z" data-paper-data="{&quot;fillable&quot;:true}" stroke="#2a2a3a" stroke-width="1.5"/><path d="M214.22841,371.68536c0,-3.86599 3.13401,-7 7,-7c3.86599,0 7,3.13401 7,7c0,3.86599 -3.13401,7 -7,7c-3.86599,0 -7,-3.13401 -7,-7z" data-paper-data="{&quot;fillable&quot;:true}" stroke="#2a2a3a" stroke-width="1.5"/><path d="M209.7887,338.1966l2.57304,-7.42001l2.86236,-7.31328l3.14727,-7.19526l3.42733,-7.06615l3.7021,-6.92615l3.97117,-6.77546l4.23411,-6.61433l4.49052,-6.443l30.74265,22.33584l-3.63732,5.21883l-3.42963,5.35761l-3.21665,5.48813l-2.9987,5.61018l-2.77614,5.72358l-2.54929,5.82816l-2.31851,5.92375l-2.08416,6.01021z" data-paper-data="{&quot;fillable&quot;:true}" stroke="#2a2a3a" stroke-width="1.5"/><path d="M231.72782,317.82772c0,-3.86599 3.13401,-7 7,-7c3.86599,0 7,3.13401 7,7c0,3.86599 -3.13401,7 -7,7c-3.86599,0 -7,-3.13401 -7,-7z" data-paper-data="{&quot;fillable&quot;:true}" stroke="#2a2a3a" stroke-width="1.5"/><path d="M238.1966,282.44295l4.74001,-6.26174l4.98219,-6.07082l5.21669,-5.87054l5.44315,-5.66121l5.66121,-5.44315l5.87054,-5.21669l6.07082,-4.98219l6.26174,-4.74001l22.33584,30.74265l-5.07201,3.83941l-4.91736,4.03558l-4.75514,4.22552l-4.58558,4.40895l-4.40895,4.58558l-4.22552,4.75514l-4.03558,4.91736l-3.83941,5.07201z" data-paper-data="{&quot;fillable&quot;:true}" stroke="#2a2a3a" stroke-width="1.5"/><path d="M265.01367,272.01367c0,-3.86599 3.13401,-7 7,-7c3.86599,0 7,3.13401 7,7c0,3.86599 -3.13401,7 -7,7c-3.86599,0 -7,-3.13401 -7,-7z" data-paper-data="{&quot;fillable&quot;:true}" stroke="#2a2a3a" stroke-width="1.5"/><path d="M282.44295,238.1966l6.443,-4.49052l6.61433,-4.23411l6.77546,-3.97117l6.92615,-3.7021l7.06615,-3.42733l7.19526,-3.14727l7.31328,-2.86236l7.42001,-2.57304l11.74265,36.14015l-6.01021,2.08416l-5.92375,2.31851l-5.82816,2.54929l-5.72358,2.77614l-5.61018,2.9987l-5.48813,3.21665l-5.35761,3.42963l-5.21883,3.63732z" data-paper-data="{&quot;fillable&quot;:true}" stroke="#2a2a3a" stroke-width="1.5"/><path d="M310.82772,238.72782c0,-3.86599 3.13401,-7 7,-7c3.86599,0 7,3.13401 7,7c0,3.86599 -3.13401,7 -7,7c-3.86599,0 -7,-3.13401 -7,-7z" data-paper-data="{&quot;fillable&quot;:true}" stroke="#2a2a3a" stroke-width="1.5"/><path d="M338.1966,209.7887l7.51531,-2.27974l7.59902,-1.98294l7.67101,-1.68307l7.73117,-1.38061l7.77941,-1.07602l7.81566,-0.76978l7.83986,-0.46234l7.85196,-0.15419v38l-6.36009,0.1249l-6.35028,0.3745l-6.33068,0.62352l-6.30132,0.87158l-6.26225,1.1183l-6.21352,1.36329l-6.1552,1.60618l-6.0874,1.84659z" data-paper-data="{&quot;fillable&quot;:true}" stroke="#2a2a3a" stroke-width="1.5"/><path d="M364.68536,221.22841c0,-3.86599 3.13401,-7 7,-7c3.86599,0 7,3.13401 7,7c0,3.86599 -3.13401,7 -7,7c-3.86599,0 -7,-3.13401 -7,-7z" data-paper-data="{&quot;fillable&quot;:true}" stroke="#2a2a3a" stroke-width="1.5"/><path d="M400,200l7.85196,0.15419l7.83986,0.46234l7.81566,0.76978l7.77941,1.07602l7.73117,1.38061l7.67101,1.68307l7.59902,1.98294l7.51531,2.27974l-11.74265,36.14015l-6.0874,-1.84659l-6.1552,-1.60618l-6.21352,-1.36329l-6.26225,-1.1183l-6.30132,-0.87158l-6.33068,-0.62352l-6.35028,-0.3745l-6.36009,-0.1249z" data-paper-data="{&quot;fillable&quot;:true}" stroke="#2a2a3a" stroke-width="1.5"/><path d="M421.31464,221.22841c0,-3.86599 3.13401,-7 7,-7c3.86599,0 7,3.13401 7,7c0,3.86599 -3.13401,7 -7,7c-3.86599,0 -7,-3.13401 -7,-7z" data-paper-data="{&quot;fillable&quot;:true}" stroke="#2a2a3a" stroke-width="1.5"/><path d="M461.8034,209.7887l7.42001,2.57304l7.31328,2.86236l7.19526,3.14727l7.06615,3.42733l6.92615,3.7021l6.77546,3.97117l6.61433,4.23411l6.443,4.49052l-22.33584,30.74265l-5.21883,-3.63732l-5.35761,-3.42963l-5.48813,-3.21665l-5.61018,-2.9987l-5.72358,-2.77614l-5.82816,-2.54929l-5.92375,-2.31851l-6.01021,-2.08416z" data-paper-data="{&quot;fillable&quot;:true}" stroke="#2a2a3a" stroke-width="1.5"/><path d="M475.17228,238.72782c0,-3.86599 3.13401,-7 7,-7c3.86599,0 7,3.13401 7,7c0,3.86599 -3.13401,7 -7,7c-3.86599,0 -7,-3.13401 -7,-7z" data-paper-data="{&quot;fillable&quot;:true}" stroke="#2a2a3a" stroke-width="1.5"/><path d="M517.55705,238.1966l6.26174,4.74001l6.07082,4.98219l5.87054,5.21669l5.66121,5.44315l5.44315,5.66121l5.21669,5.87054l4.98219,6.07082l4.74001,6.26174l-30.74265,22.33584l-3.83941,-5.07201l-4.03558,-4.91736l-4.22552,-4.75514l-4.40895,-4.58558l-4.58558,-4.40895l-4.75514,-4.22552l-4.91736,-4.03558l-5.07201,-3.83941z" data-paper-data="{&quot;fillable&quot;:true}" stroke="#2a2a3a" stroke-width="1.5"/><path d="M520.98633,272.01367c0,-3.86599 3.13401,-7 7,-7c3.86599,0 7,3.13401 7,7c0,3.86599 -3.13401,7 -7,7c-3.86599,0 -7,-3.13401 -7,-7z" data-paper-data="{&quot;fillable&quot;:true}" stroke="#2a2a3a" stroke-width="1.5"/><path d="M561.8034,282.44295l4.49052,6.443l4.23411,6.61433l3.97117,6.77546l3.7021,6.92615l3.42733,7.06615l3.14727,7.19526l2.86236,7.31328l2.57304,7.42001l-36.14015,11.74265l-2.08416,-6.01021l-2.31851,-5.92375l-2.54929,-5.82816l-2.77614,-5.72358l-2.9987,-5.61018l-3.21665,-5.48813l-3.42963,-5.35761l-3.63732,-5.21883z" data-paper-data="{&quot;fillable&quot;:true}" stroke="#2a2a3a" stroke-width="1.5"/><path d="M554.27218,317.82772c0,-3.86599 3.13401,-7 7,-7c3.86599,0 7,3.13401 7,7c0,3.86599 -3.13401,7 -7,7c-3.86599,0 -7,-3.13401 -7,-7z" data-paper-data="{&quot;fillable&quot;:true}" stroke="#2a2a3a" stroke-width="1.5"/><path d="M590.2113,338.1966l2.27974,7.51531l1.98294,7.59902l1.68307,7.67101l1.38061,7.73117l1.07602,7.77941l0.76978,7.81566l0.46234,7.83986l0.15419,7.85196h-38l-0.1249,-6.36009l-0.3745,-6.35028l-0.62352,-6.33068l-0.87158,-6.30132l-1.1183,-6.26225l-1.36329,-6.21352l-1.60618,-6.1552l-1.84659,-6.0874z" data-paper-data="{&quot;fillable&quot;:true}" stroke="#2a2a3a" stroke-width="1.5"/><path d="M571.77159,371.68536c0,-3.86599 3.13401,-7 7,-7c3.86599,0 7,3.13401 7,7c0,3.86599 -3.13401,7 -7,7c-3.86599,0 -7,-3.13401 -7,-7z" data-paper-data="{&quot;fillable&quot;:true}" stroke="#2a2a3a" stroke-width="1.5"/><path d="M562,400l-0.22202,8.47842l-0.66544,8.45519l-1.10704,8.40877l-1.5456,8.33931l-1.97993,8.24699l-2.40883,8.13207l-2.83113,7.99485l-3.24566,7.83573l-3.65131,7.65512l-4.04694,7.45354l-4.43148,7.23152l-4.80388,6.98969l-5.16311,6.72869l-5.50818,6.44925l-5.83816,6.15214l-25.45584,-25.45584l4.54079,-4.785l4.28414,-5.01609l4.01575,-5.23343l3.73635,-5.43642l3.44671,-5.62452l3.14762,-5.7972l2.83991,-5.95399l2.52441,-6.09446l2.20199,-6.21822l1.87353,-6.32494l1.53994,-6.41433l1.20213,-6.48613l0.86103,-6.54016l0.51756,-6.57626l0.17268,-6.59433z" data-paper-data="{&quot;fillable&quot;:true}" stroke="#2a2a3a" stroke-width="1.5"/><path d="M514.5513,514.5513l-6.15214,5.83816l-6.44925,5.50818l-6.72869,5.16311l-6.98969,4.80388l-7.23152,4.43148l-7.45354,4.04694l-7.65512,3.65131l-7.83573,3.24566l-7.99485,2.83113l-8.13207,2.40883l-8.24699,1.97993l-8.33931,1.5456l-8.40877,1.10704l-8.45519,0.66544l-8.47842,0.22202v-36l6.59433,-0.17268l6.57626,-0.51756l6.54016,-0.86103l6.48613,-1.20213l6.41433,-1.53994l6.32494,-1.87353l6.21822,-2.20199l6.09446,-2.52441l5.95399,-2.83991l5.7972,-3.14762l5.62452,-3.44671l5.43642,-3.73635l5.23343,-4.01575l5.01609,-4.28414l4.785,-4.54079z" data-paper-data="{&quot;fillable&quot;:true}" stroke="#2a2a3a" stroke-width="1.5"/><path d="M400,562l-8.47842,-0.22202l-8.45519,-0.66544l-8.40877,-1.10704l-8.33931,-1.5456l-8.24699,-1.97993l-8.13207,-2.40883l-7.99485,-2.83113l-7.83573,-3.24566l-7.65512,-3.65131l-7.45354,-4.04694l-7.23152,-4.43148l-6.98969,-4.80388l-6.72869,-5.16311l-6.44925,-5.50818l-6.15214,-5.83816l25.45584,-25.45584l4.785,4.54079l5.01609,4.28414l5.23343,4.01575l5.43642,3.73635l5.62452,3.44671l5.7972,3.14762l5.95399,2.83991l6.09446,2.52441l6.21822,2.20199l6.32494,1.87353l6.41433,1.53994l6.48613,1.20213l6.54016,0.86103l6.57626,0.51756l6.59433,0.17268z" data-paper-data="{&quot;fillable&quot;:true}" stroke="#2a2a3a" stroke-width="1.5"/><path d="M285.4487,514.5513l-5.83816,-6.15214l-5.50818,-6.44925l-5.16311,-6.72869l-4.80388,-6.98969l-4.43148,-7.23152l-4.04694,-7.45354l-3.65131,-7.65512l-3.24566,-7.83573l-2.83113,-7.99485l-2.40883,-8.13207l-1.97993,-8.24699l-1.5456,-8.33931l-1.10704,-8.40877l-0.66544,-8.45519l-0.22202,-8.47842h36l0.17268,6.59433l0.51756,6.57626l0.86103,6.54016l1.20213,6.48613l1.53994,6.41433l1.87353,6.32494l2.20199,6.21822l2.52441,6.09446l2.83991,5.95399l3.14762,5.7972l3.44671,5.62452l3.73635,5.43642l4.01575,5.23343l4.28414,5.01609l4.54079,4.785z" data-paper-data="{&quot;fillable&quot;:true}" stroke="#2a2a3a" stroke-width="1.5"/><path d="M238,400l0.22202,-8.47842l0.66544,-8.45519l1.10704,-8.40877l1.5456,-8.33931l1.97993,-8.24699l2.40883,-8.13207l2.83113,-7.99485l3.24566,-7.83573l3.65131,-7.65512l4.04694,-7.45354l4.43148,-7.23152l4.80388,-6.98969l5.16311,-6.72869l5.50818,-6.44925l5.83816,-6.15214l25.45584,25.45584l-4.54079,4.785l-4.28414,5.01609l-4.01575,5.23343l-3.73635,5.43642l-3.44671,5.62452l-3.14762,5.7972l-2.83991,5.95399l-2.52441,6.09446l-2.20199,6.21822l-1.87353,6.32494l-1.53994,6.41433l-1.20213,6.48613l-0.86103,6.54016l-0.51756,6.57626l-0.17268,6.59433z" data-paper-data="{&quot;fillable&quot;:true}" stroke="#2a2a3a" stroke-width="1.5"/><path d="M285.4487,285.4487l6.15214,-5.83816l6.44925,-5.50818l6.72869,-5.16311l6.98969,-4.80388l7.23152,-4.43148l7.45354,-4.04694l7.65512,-3.65131l7.83573,-3.24566l7.99485,-2.83113l8.13207,-2.40883l8.24699,-1.97993l8.33931,-1.5456l8.40877,-1.10704l8.45519,-0.66544l8.47842,-0.22202l0,36l-6.59433,0.17268l-6.57626,0.51756l-6.54016,0.86103l-6.48613,1.20213l-6.41433,1.53994l-6.32494,1.87353l-6.21822,2.20199l-6.09446,2.52441l-5.95399,2.83991l-5.7972,3.14762l-5.62452,3.44671l-5.43642,3.73635l-5.23343,4.01575l-5.01609,4.28414l-4.785,4.54079z" data-paper-data="{&quot;fillable&quot;:true}" stroke="#2a2a3a" stroke-width="1.5"/><path d="M400,238l8.47842,0.22202l8.45519,0.66544l8.40877,1.10704l8.33931,1.5456l8.24699,1.97993l8.13207,2.40883l7.99485,2.83113l7.83573,3.24566l7.65512,3.65131l7.45354,4.04694l7.23152,4.43148l6.98969,4.80388l6.72869,5.16311l6.44925,5.50818l6.15214,5.83816l-25.45584,25.45584l-4.785,-4.54079l-5.01609,-4.28414l-5.23343,-4.01575l-5.43642,-3.73635l-5.62452,-3.44671l-5.7972,-3.14762l-5.95399,-2.83991l-6.09446,-2.52441l-6.21822,-2.20199l-6.32494,-1.87353l-6.41433,-1.53994l-6.48613,-1.20213l-6.54016,-0.86103l-6.57626,-0.51756l-6.59433,-0.17268z" data-paper-data="{&quot;fillable&quot;:true}" stroke="#2a2a3a" stroke-width="1.5"/><path d="M514.5513,285.4487l5.83816,6.15214l5.50818,6.44925l5.16311,6.72869l4.80388,6.98969l4.43148,7.23152l4.04694,7.45354l3.65131,7.65512l3.24566,7.83573l2.83113,7.99485l2.40883,8.13207l1.97993,8.24699l1.5456,8.33931l1.10704,8.40877l0.66544,8.45519l0.22202,8.47842h-36l-0.17268,-6.59433l-0.51756,-6.57626l-0.86103,-6.54016l-1.20213,-6.48613l-1.53994,-6.41433l-1.87353,-6.32494l-2.20199,-6.21822l-2.52441,-6.09446l-2.83991,-5.95399l-3.14762,-5.7972l-3.44671,-5.62452l-3.73635,-5.43642l-4.01575,-5.23343l-4.28414,-5.01609l-4.54079,-4.785z" data-paper-data="{&quot;fillable&quot;:true}" stroke="#2a2a3a" stroke-width="1.5"/><path d="M274,400c0,-69.58788 56.41212,-126 126,-126c69.58788,0 126,56.41212 126,126c0,69.58788 -56.41212,126 -126,126c-69.58788,0 -126,-56.41212 -126,-126z" data-paper-data="{&quot;fillable&quot;:true}" stroke="#2a2a3a" stroke-width="1.5"/><path d="M312,400c0,-48.60106 39.39894,-88 88,-88c48.60106,0 88,39.39894 88,88c0,48.60106 -39.39894,88 -88,88c-48.60106,0 -88,-39.39894 -88,-88z" data-paper-data="{&quot;fillable&quot;:true}" stroke="#2a2a3a" stroke-width="1.5"/><path d="M352,400c0,-26.50967 21.49033,-48 48,-48c26.50967,0 48,21.49033 48,48c0,26.50967 -21.49033,48 -48,48c-26.50967,0 -48,-21.49033 -48,-48z" data-paper-data="{&quot;fillable&quot;:true}" stroke="#2a2a3a" stroke-width="1.5"/><path d="M341,378c0,-8.28427 6.71573,-15 15,-15c8.28427,0 15,6.71573 15,15c0,8.28427 -6.71573,15 -15,15c-8.28427,0 -15,-6.71573 -15,-15z" data-paper-data="{&quot;fillable&quot;:true}" stroke="#2a2a3a" stroke-width="1.5"/><path d="M350,378c0,-3.31371 2.68629,-6 6,-6c3.31371,0 6,2.68629 6,6c0,3.31371 -2.68629,6 -6,6c-3.31371,0 -6,-2.68629 -6,-6z" data-paper-data="{&quot;fillable&quot;:true}" stroke="#2a2a3a" stroke-width="1.5"/><path d="M429,378c0,-8.28427 6.71573,-15 15,-15c8.28427,0 15,6.71573 15,15c0,8.28427 -6.71573,15 -15,15c-8.28427,0 -15,-6.71573 -15,-15z" data-paper-data="{&quot;fillable&quot;:true}" stroke="#2a2a3a" stroke-width="1.5"/><path d="M438,378c0,-3.31371 2.68629,-6 6,-6c3.31371,0 6,2.68629 6,6c0,3.31371 -2.68629,6 -6,6c-3.31371,0 -6,-2.68629 -6,-6z" data-paper-data="{&quot;fillable&quot;:true}" stroke="#2a2a3a" stroke-width="1.5"/><path d="M390,408v-16h20v16z" data-paper-data="{&quot;fillable&quot;:true}" stroke="#2a2a3a" stroke-width="1.5"/><path d="M386,426l14,24l14,-24z" data-paper-data="{&quot;fillable&quot;:true}" stroke="#2a2a3a" stroke-width="1.5"/><path d="M340,337l8,7l-8,7l-8,-7z" data-paper-data="{&quot;fillable&quot;:true}" stroke="#2a2a3a" stroke-width="1.5"/><path d="M374,331l8,7l-8,7l-8,-7z" data-paper-data="{&quot;fillable&quot;:true}" stroke="#2a2a3a" stroke-width="1.5"/><path d="M426,331l8,7l-8,7l-8,-7z" data-paper-data="{&quot;fillable&quot;:true}" stroke="#2a2a3a" stroke-width="1.5"/><path d="M460,337l8,7l-8,7l-8,-7z" data-paper-data="{&quot;fillable&quot;:true}" stroke="#2a2a3a" stroke-width="1.5"/><path d="M386,400c0,-7.73199 6.26801,-14 14,-14c7.73199,0 14,6.26801 14,14c0,7.73199 -6.26801,14 -14,14c-7.73199,0 -14,-6.26801 -14,-14z" data-paper-data="{&quot;fillable&quot;:true}" stroke="#2a2a3a" stroke-width="1.5"/></g></svg>