<svg version="1.1" xmlns="http://www.w3.org/2000/svg" xmlns:xlink="http://www.w3.org/1999/xlink" width="800" height="800" viewBox="0,0,800,800"><g fill="#000000" fill-rule="nonzero" stroke="none" stroke-width="none" stroke-linecap="butt" stroke-linejoin="miter" stroke-miterlimit="10" stroke-dasharray="" stroke-dashoffset="0" font-family="none" font-weight="none" font-size="none" text-anchor="none" style="mix-blend-mode: normal"><path d="M0,800v-800h800v800z" stroke="none" stroke-width="1"/><path d="M0,800v-800h800v800z" data-paper-data="{&quot;fillable&quot;:true}" stroke="#2a2a3a" stroke-width="1.5"/><path d="M16,34v-18h35.57143v18z" data-paper-data="{&quot;fillable&quot;:true}" stroke="#2a2a3a" stroke-width="1.5"/><path d="M16,784v-18h35.57143v18z" data-paper-data="{&quot;fillable&quot;:true}" stroke="#2a2a3a" stroke-width="1.5"/><path d="M16,51.57143v-35.57143h18v35.57143z" data-paper-data="{&quot;fillable&quot;:true}" stroke="#2a2a3a" stroke-width="1.5"/><path d="M766,51.57143v-35.57143h18v35.57143z" data-paper-data="{&quot;fillable&quot;:true}" stroke="#2a2a3a" stroke-width="1.5"/><path d="M52.57143,34v-18h35.57143v18z" data-paper-data="{&quot;fillable&quot;:true}" stroke="#2a2a3a" stroke-width="1.5"/><path d="M52.57143,784v-18h35.57143v18z" data-paper-data="{&quot;fillable&quot;:true}" stroke="#2a2a3a" stroke-width="1.5"/><path d="M16,88.14286v-35.57143h18v35.57143z" data-paper-data="{&quot;fillable&quot;:true}" stroke="#2a2a3a" stroke-width="1.5"/><path d="M766,88.14286v-35.57143h18v35.57143z" data-paper-data="{&quot;fillable&quot;:true}" stroke="#2a2a3a" stroke-width="1.5"/><path d="M89.14286,34v-18h35.57143v18z" data-paper-data="{&quot;fillable&quot;:true}" stroke="#2a2a3a" stroke-width="1.5"/><path d="M89.14286,784v-18h35.57143v18z" data-paper-data="{&quot;fillable&quot;:true}" stroke="#2a2a3a" stroke-width="1.5"/><path d="M16,124.71429v-35.57143h18v35.57143z" data-paper-data="{&quot;fillable&quot;:true}" stroke="#2a2a3a" stroke-width="1.5"/><path d="M766,124.71429v-35.57143h18v35.57143z" data-paper-data="{&quot;fillable&quot;:true}" stroke="#2a2a3a" stroke-width="1.5"/><path d="M125.71429,34v-18h35.57143v18z" data-paper-data="{&quot;fillable&quot;:true}" stroke="#2a2a3a" stroke-width="1.5"/><path d="M125.71429,784v-18h35.57143v18z" data-paper-data="{&quot;fillable&quot;:true}" stroke="#2a2a3a" stroke-width="1.5"/><path d="M16,161.28571v-35.57143h18v35.57143z" data-paper-data="{&quot;fillable&quot;:true}" stroke="#2a2a3a" stroke-width="1.5"/><path d="M766,161.28571v-35.57143h18v35.57143z" data-paper-data="{&quot;fillable&quot;:true}" stroke="#2a2a3a" stroke-width="1.5"/><path d="M162.28571,34v-18h35.57143v18z" data-paper-data="{&quot;fillable&quot;:true}" stroke="#2a2a3a" stroke-width="1.5"/><path d="M162.28571,784v-18h35.57143v18z" data-paper-data="{&quot;fillable&quot;:true}" stroke="#2a2a3a" stroke-width="1.5"/><path d="M16,197.85714v-35.57143h18v35.57143z" data-paper-data="{&quot;fillable&quot;:true}" stroke="#2a2a3a" stroke-width="1.5"/><path d="M766,197.85714v-35.57143h18v35.57143z" data-paper-data="{&quot;fillable&quot;:true}" stroke="#2a2a3a" stroke-width="1.5"/><path d="M198.85714,34v-18h35.57143v18z" data-paper-data="{&quot;fillable&quot;:true}" stroke="#2a2a3a" stroke-width="1.5"/><path d="M198.85714,784v-18h35.57143v18z" data-paper-data="{&quot;fillable&quot;:true}" stroke="#2a2a3a" stroke-width="1.5"/><path d="M16,234.42857v-35.57143h18v35.57143z" data-paper-data="{&quot;fillable&quot;:true}" stroke="#2a2a3a" stroke-width="1.5"/><path d="M766,234.42857v-35.57143h18v35.57143z" data-paper-data="{&quot;fillable&quot;:true}" stroke="#2a2a3a" stroke-width="1.5"/><path d="M235.42857,34v-18h35.57143v18z" data-paper-data="{&quot;fillable&quot;:true}" stroke="#2a2a3a" stroke-width="1.5"/><path d="M235.42857,784v-18h35.57143v18z" data-paper-data="{&quot;fillable&quot;:true}" stroke="#2a2a3a" stroke-width="1.5"/><path d="M16,271v-35.57143h18v35.57143z" data-paper-data="{&quot;fillable&quot;:true}" stroke="#2a2a3a" stroke-width="1.5"/><path d="M766,271v-35.57143h18v35.57143z" data-paper-data="{&quot;fillable&quot;:true}" stroke="#2a2a3a" stroke-width="1.5"/><path d="M272,34v-18h35.57143v18z" data-paper-data="{&quot;fillable&quot;:true}" stroke="#2a2a3a" stroke-width="1.5"/><path d="M272,784v-18h35.57143v18z" data-paper-data="{&quot;fillable&quot;:true}" stroke="#2a2a3a" stroke-width="1.5"/><path d="M16,307.57143v-35.57143h18v35.57143z" data-paper-data="{&quot;fillable&quot;:true}" stroke="#2a2a3a" stroke-width="1.5"/><path d="M766,307.57143v-35.57143h18v35.57143z" data-paper-data="{&quot;fillable&quot;:true}" stroke="#2a2a3a" stroke-width="1.5"/><path d="M308.57143,34v-18h35.57143v18z" data-paper-data="{&quot;fillable&quot;:true}" stroke="#2a2a3a" stroke-width="1.5"/><path d="M308.57143,784v-18h35.57143v18z" data-paper-data="{&quot;fillable&quot;:true}" stroke="#2a2a3a" stroke-width="1.5"/><path d="M16,344.14286v-35.57143h18v35.57143z" data-paper-data="{&quot;fillable&quot;:true}" stroke="#2a2a3a" stroke-width="1.5"/><path d="M766,344.14286v-35.57143h18v35.57143z" data-paper-data="{&quot;fillable&quot;:true}" stroke="#2a2a3a" stroke-width="1.5"/><path d="M345.14286,34v-18h35.57143v18z" data-paper-data="{&quot;fillable&quot;:true}" stroke="#2a2a3a" stroke-width="1.5"/><path d="M345.14286,784v-18h35.57143v18z" data-paper-data="{&quot;fillable&quot;:true}" stroke="#2a2a3a" stroke-width="1.5"/><path d="M16,380.71429v-35.57143h18v35.57143z" data-paper-data="{&quot;fillable&quot;:true}" stroke="#2a2a3a" stroke-width="1.5"/><path d="M766,380.71429v-35.57143h18v35.57143z" data-paper-data="{&quot;fillable&quot;:true}" stroke="#2a2a3a" stroke-width="1.5"/><path d="M381.71429,34v-18h35.57143v18z" data-paper-data="{&quot;fillable&quot;:true}" stroke="#2a2a3a" stroke-width="1.5"/><path d="M381.71429,784v-18h35.57143v18z" data-paper-data="{&quot;fillable&quot;:true}" stroke="#2a2a3a" stroke-width="1.5"/><path d="M16,417.28571v-35.57143h18v35.57143z" data-paper-data="{&quot;fillable&quot;:true}" stroke="#2a2a3a" stroke-width="1.5"/><path d="M766,417.28571v-35.57143h18v35.57143z" data-paper-data="{&quot;fillable&quot;:true}" stroke="#2a2a3a" stroke-width="1.5"/><path d="M418.28571,34v-18h35.57143v18z" data-paper-data="{&quot;fillable&quot;:true}" stroke="#2a2a3a" stroke-width="1.5"/><path d="M418.28571,784v-18h35.57143v18z" data-paper-data="{&quot;fillable&quot;:true}" stroke="#2a2a3a" stroke-width="1.5"/><path d="M16,453.85714v-35.57143h18v35.57143z" data-paper-data="{&quot;fillable&quot;:true}" stroke="#2a2a3a" stroke-width="1.5"/><path d="M766,453.85714v-35.57143h18v35.57143z" data-paper-data="{&quot;fillable&quot;:true}" stroke="#2a2a3a" stroke-width="1.5"/><path d="M454.85714,34v-18h35.57143v18z" data-paper-data="{&quot;fillable&quot;:true}" stroke="#2a2a3a" stroke-width="1.5"/><path d="M454.85714,784v-18h35.57143v18z" data-paper-data="{&quot;fillable&quot;:true}" stroke="#2a2a3a" stroke-width="1.5"/><path d="M16,490.42857v-35.57143h18v35.57143z" data-paper-data="{&quot;fillable&quot;:true}" stroke="#2a2a3a" stroke-width="1.5"/><path d="M766,490.42857v-35.57143h18v35.57143z" data-paper-data="{&quot;fillable&quot;:true}" stroke="#2a2a3a" stroke-width="1.5"/><path d="M491.42857,34v-18h35.57143v18z" data-paper-data="{&quot;fillable&quot;:true}" stroke="#2a2a3a" stroke-width="1.5"/><path d="M491.42857,784v-18h35.57143v18z" data-paper-data="{&quot;fillable&quot;:true}" stroke="#2a2a3a" stroke-width="1.5"/><path d="M16,527v-35.57143h18v35.57143z" data-paper-data="{&quot;fillable&quot;:true}" stroke="#2a2a3a" stroke-width="1.5"/><path d="M766,527v-35.57143h18v35.57143z" data-paper-data="{&quot;fillable&quot;:true}" stroke="#2a2a3a" stroke-width="1.5"/><path d="M528,34v-18h35.57143v18z" data-paper-data="{&quot;fillable&quot;:true}" stroke="#2a2a3a" stroke-width="1.5"/><path d="M528,784v-18h35.57143v18z" data-paper-data="{&quot;fillable&quot;:true}" stroke="#2a2a3a" stroke-width="1.5"/><path d="M16,563.57143v-35.57143h18v35.57143z" data-paper-data="{&quot;fillable&quot;:true}" stroke="#2a2a3a" stroke-width="1.5"/><path d="M766,563.57143v-35.57143h18v35.57143z" data-paper-data="{&quot;fillable&quot;:true}" stroke="#2a2a3a" stroke-width="1.5"/><path d="M564.57143,34v-18h35.57143v18z" data-paper-data="{&quot;fillable&quot;:true}" stroke="#2a2a3a" stroke-width="1.5"/><path d="M564.57143,784v-18h35.57143v18z" data-paper-data="{&quot;fillable&quot;:true}" stroke="#2a2a3a" stroke-width="1.5"/><path d="M16,600.14286v-35.57143h18v35.57143z" data-paper-data="{&quot;fillable&quot;:true}" stroke="#2a2a3a" stroke-width="1.5"/><path d="M766,600.14286v-35.57143h18v35.57143z" data-paper-data="{&quot;fillable&quot;:true}" stroke="#2a2a3a" stroke-width="1.5"/><path d="M601.14286,34v-18h35.57143v18z" data-paper-data="{&quot;fillable&quot;:true}" stroke="#2a2a3a" stroke-width="1.5"/><path d="M601.14286,784v-18h35.57143v18z" data-paper-data="{&quot;fillable&quot;:true}" stroke="#2a2a3a" stroke-width="1.5"/><path d="M16,636.71429v-35.57143h18v35.57143z" data-paper-data="{&quot;fillable&quot;:true}" stroke="#2a2a3a" stroke-width="1.5"/><path d="M766,636.71429v-35.57143h18v35.57143z" data-paper-data="{&quot;fillable&quot;:true}" stroke="#2a2a3a" stroke-width="1.5"/><path d="M637.71429,34v-18h35.57143v18z" data-paper-data="{&quot;fillable&quot;:true}" stroke="#2a2a3a" stroke-width="1.5"/><path d="M637.71429,784v-18h35.57143v18z" data-paper-data="{&quot;fillable&quot;:true}" stroke="#2a2a3a" stroke-width="1.5"/><path d="M16,673.28571v-35.57143h18v35.57143z" data-paper-data="{&quot;fillable&quot;:true}" stroke="#2a2a3a" stroke-width="1.5"/><path d="M766,673.28571v-35.57143h18v35.57143z" data-paper-data="{&quot;fillable&quot;:true}" stroke="#2a2a3a" stroke-width="1.5"/><path d="M674.28571,34v-18h35.57143v18z" data-paper-data="{&quot;fillable&quot;:true}" stroke="#2a2a3a" stroke-width="1.5"/><path d="M674.28571,784v-18h35.57143v18z" data-paper-data="{&quot;fillable&quot;:true}" stroke="#2a2a3a" stroke-width="1.5"/><path d="M16,709.85714v-35.57143h18v35.57143z" data-paper-data="{&quot;fillable&quot;:true}" stroke="#2a2a3a" stroke-width="1.5"/><path d="M766,709.85714v-35.57143h18v35.57143z" data-paper-data="{&quot;fillable&quot;:true}" stroke="#2a2a3a" stroke-width="1.5"/><path d="M710.85714,34v-18h35.57143v18z" data-paper-data="{&quot;fillable&quot;:true}" stroke="#2a2a3a" stroke-width="1.5"/><path d="M710.85714,784v-18h35.57143v18z" data-paper-data="{&quot;fillable&quot;:true}" stroke="#2a2a3a" stroke-width="1.5"/><path d="M16,746.42857v-35.57143h18v35.57143z" data-paper-data="{&quot;fillable&quot;:true}" stroke="#2a2a3a" stroke-width="1.5"/><path d="M766,746.42857v-35.57143h18v35.57143z" data-paper-data="{&quot;fillable&quot;:true}" stroke="#2a2a3a" stroke-width="1.5"/><path d="M747.42857,34v-18h35.57143v18z" data-paper-data="{&quot;fillable&quot;:true}" stroke="#2a2a3a" stroke-width="1.5"/><path d="M747.42857,784v-18h35.57143v18z" data-paper-data="{&quot;fillable&quot;:true}" stroke="#2a2a3a" stroke-width="1.5"/><path d="M16,783v-35.57143h18v35.57143z" data-paper-data="{&quot;fillable&quot;:true}" stroke="#2a2a3a" stroke-width="1.5"/><path d="M766,783v-35.57143h18v35.57143z" data-paper-data="{&quot;fillable&quot;:true}" stroke="#2a2a3a" stroke-width="1.5"/><path d="M38,762v-724h724v724z" data-paper-data="{&quot;fillable&quot;:true}" stroke="#2a2a3a" stroke-width="1.5"/><path d="M364,752v-704h72v704z" data-paper-data="{&quot;fillable&quot;:true}" stroke="#2a2a3a" stroke-width="1.5"/><path d="M48,436v-72h704v72z" data-paper-data="{&quot;fillable&quot;:true}" stroke="#2a2a3a" stroke-width="1.5"/><path d="M364,48c0,-19.88225 16.11775,-36 36,-36c19.88225,0 36,16.11775 36,36c0,19.88225 -16.11775,36 -36,36c-19.88225,0 -36,-16.11775 -36,-36z" data-paper-data="{&quot;fillable&quot;:true}" stroke="#2a2a3a" stroke-width="1.5"/><path d="M364,752c0,-19.88225 16.11775,-36 36,-36c19.88225,0 36,16.11775 36,36c0,19.88225 -16.11775,36 -36,36c-19.88225,0 -36,-16.11775 -36,-36z" data-paper-data="{&quot;fillable&quot;:true}" stroke="#2a2a3a" stroke-width="1.5"/><path d="M12,400c0,-19.88225 16.11775,-36 36,-36c19.88225,0 36,16.11775 36,36c0,19.88225 -16.11775,36 -36,36c-19.88225,0 -36,-16.11775 -36,-36z" data-paper-data="{&quot;fillable&quot;:true}" stroke="#2a2a3a" stroke-width="1.5"/><path d="M716,400c0,-19.88225 16.11775,-36 36,-36c19.88225,0 36,16.11775 36,36c0,19.88225 -16.11775,36 -36,36c-19.88225,0 -36,-16.11775 -36,-36z" data-paper-data="{&quot;fillable&quot;:true}" stroke="#2a2a3a" stroke-width="1.5"/><path d="M386,116c0,-7.73199 6.26801,-14 14,-14c7.73199,0 14,6.26801 14,14c0,7.73199 -6.26801,14 -14,14c-7.73199,0 -14,-6.26801 -14,-14z" data-paper-data="{&quot;fillable&quot;:true}" stroke="#2a2a3a" stroke-width="1.5"/><path d="M395,116c0,-2.76142 2.23858,-5 5,-5c2.76142,0 5,2.23858 5,5c0,2.76142 -2.23858,5 -5,5c-2.76142,0 -5,-2.23858 -5,-5z" data-paper-data="{&quot;fillable&quot;:true}" stroke="#2a2a3a" stroke-width="1.5"/><path d="M386,684c0,-7.73199 6.26801,-14 14,-14c7.73199,0 14,6.26801 14,14c0,7.73199 -6.26801,14 -14,14c-7.73199,0 -14,-6.26801 -14,-14z" data-paper-data="{&quot;fillable&quot;:true}" stroke="#2a2a3a" stroke-width="1.5"/><path d="M395,684c0,-2.76142 2.23858,-5 5,-5c2.76142,0 5,2.23858 5,5c0,2.76142 -2.23858,5 -5,5c-2.76142,0 -5,-2.23858 -5,-5z" data-paper-data="{&quot;fillable&quot;:true}" stroke="#2a2a3a" stroke-width="1.5"/><path d="M102,400c0,-7.73199 6.26801,-14 14,-14c7.73199,0 14,6.26801 14,14c0,7.73199 -6.26801,14 -14,14c-7.73199,0 -14,-6.26801 -14,-14z" data-paper-data="{&quot;fillable&quot;:true}" stroke="#2a2a3a" stroke-width="1.5"/><path d="M111,400c0,-2.76142 2.23858,-5 5,-5c2.76142,0 5,2.23858 5,5c0,2.76142 -2.23858,5 -5,5c-2.76142,0 -5,-2.23858 -5,-5z" data-paper-data="{&quot;fillable&quot;:true}" stroke="#2a2a3a" stroke-width="1.5"/><path d="M670,400c0,-7.73199 6.26801,-14 14,-14c7.73199,0 14,6.26801 14,14c0,7.73199 -6.26801,14 -14,14c-7.73199,0 -14,-6.26801 -14,-14z" data-paper-data="{&quot;fillable&quot;:true}" stroke="#2a2a3a" stroke-width="1.5"/><path d="M679,400c0,-2.76142 2.23858,-5 5,-5c2.76142,0 5,2.23858 5,5c0,2.76142 -2.23858,5 -5,5c-2.76142,0 -5,-2.23858 -5,-5z" data-paper-data="{&quot;fillable&quot;:true}" stroke="#2a2a3a" stroke-width="1.5"/><path d="M508,400l-0.13009,5.29931l-0.38996,5.28654l-0.64889,5.26104l-0.90625,5.22286l-1.16143,5.1721l-1.41382,5.10889l-1.6628,5.03336l-1.90777,4.94571l-20.32535,-8.41904l1.51915,-3.93825l1.32408,-4.00805l1.12582,-4.06819l0.92485,-4.11853l0.72165,-4.15895l0.51671,-4.18935l0.31052,-4.20965l0.10359,-4.21982z" data-paper-data="{&quot;fillable&quot;:true}" stroke="#2a2a3a" stroke-width="1.5"/><path d="M499.77899,441.32981l-2.14815,4.84614l-2.38335,4.7349l-2.61281,4.61225l-2.83597,4.47849l-3.0523,4.33394l-3.26128,4.17895l-3.46241,4.01389l-3.65519,3.83917l-15.55635,-15.55635l2.91061,-3.05711l2.7571,-3.19625l2.59695,-3.32768l2.43054,-3.4511l2.25827,-3.5662l2.08057,-3.67272l1.89785,-3.77038l1.71056,-3.85896z" data-paper-data="{&quot;fillable&quot;:true}" stroke="#2a2a3a" stroke-width="1.5"/><path d="M476.36753,476.36753l-3.83917,3.65519l-4.01389,3.46241l-4.17895,3.26128l-4.33394,3.0523l-4.47849,2.83597l-4.61225,2.61281l-4.7349,2.38335l-4.84614,2.14815l-8.41904,-20.32535l3.85896,-1.71056l3.77038,-1.89785l3.67272,-2.08057l3.5662,-2.25827l3.4511,-2.43054l3.32768,-2.59695l3.19625,-2.7571l3.05711,-2.91061z" data-paper-data="{&quot;fillable&quot;:true}" stroke="#2a2a3a" stroke-width="1.5"/><path d="M441.32981,499.77899l-4.94571,1.90777l-5.03336,1.6628l-5.10889,1.41382l-5.1721,1.16143l-5.22286,0.90625l-5.26104,0.64889l-5.28654,0.38996l-5.29931,0.13009v-22l4.21982,-0.10359l4.20965,-0.31052l4.18935,-0.51671l4.15895,-0.72165l4.11853,-0.92485l4.06819,-1.12582l4.00805,-1.32408l3.93825,-1.51915z" data-paper-data="{&quot;fillable&quot;:true}" stroke="#2a2a3a" stroke-width="1.5"/><path d="M400,508l-5.29931,-0.13009l-5.28654,-0.38996l-5.26104,-0.64889l-5.22286,-0.90625l-5.1721,-1.16143l-5.10889,-1.41382l-5.03336,-1.6628l-4.94571,-1.90777l8.41904,-20.32535l3.93825,1.51915l4.00805,1.32408l4.06819,1.12582l4.11853,0.92485l4.15895,0.72165l4.18935,0.51671l4.20965,0.31052l4.21982,0.10359z" data-paper-data="{&quot;fillable&quot;:true}" stroke="#2a2a3a" stroke-width="1.5"/><path d="M358.67019,499.77899l-4.84614,-2.14815l-4.7349,-2.38335l-4.61225,-2.61281l-4.47849,-2.83597l-4.33394,-3.0523l-4.17895,-3.26128l-4.01389,-3.46241l-3.83917,-3.65519l15.55635,-15.55635l3.05711,2.91061l3.19625,2.7571l3.32768,2.59695l3.4511,2.43054l3.5662,2.25827l3.67272,2.08057l3.77038,1.89785l3.85896,1.71056z" data-paper-data="{&quot;fillable&quot;:true}" stroke="#2a2a3a" stroke-width="1.5"/><path d="M323.63247,476.36753l-3.65519,-3.83917l-3.46241,-4.01389l-3.26128,-4.17895l-3.0523,-4.33394l-2.83597,-4.47849l-2.61281,-4.61225l-2.38335,-4.7349l-2.14815,-4.84614l20.32535,-8.41904l1.71056,3.85896l1.89785,3.77038l2.08057,3.67272l2.25827,3.5662l2.43054,3.4511l2.59695,3.32768l2.7571,3.19625l2.91061,3.05711z" data-paper-data="{&quot;fillable&quot;:true}" stroke="#2a2a3a" stroke-width="1.5"/><path d="M300.22101,441.32981l-1.90777,-4.94571l-1.6628,-5.03336l-1.41382,-5.10889l-1.16143,-5.1721l-0.90625,-5.22286l-0.64889,-5.26104l-0.38996,-5.28654l-0.13009,-5.29931h22l0.10359,4.21982l0.31052,4.20965l0.51671,4.18935l0.72165,4.15895l0.92485,4.11853l1.12582,4.06819l1.32408,4.00805l1.51915,3.93825z" data-paper-data="{&quot;fillable&quot;:true}" stroke="#2a2a3a" stroke-width="1.5"/><path d="M292,400l0.13009,-5.29931l0.38996,-5.28654l0.64889,-5.26104l0.90625,-5.22286l1.16143,-5.1721l1.41382,-5.10889l1.6628,-5.03336l1.90777,-4.94571l20.32535,8.41904l-1.51915,3.93825l-1.32408,4.00805l-1.12582,4.06819l-0.92485,4.11853l-0.72165,4.15895l-0.51671,4.18935l-0.31052,4.20965l-0.10359,4.21982z" data-paper-data="{&quot;fillable&quot;:true}" stroke="#2a2a3a" stroke-width="1.5"/><path d="M300.22101,358.67019l2.14815,-4.84614l2.38335,-4.7349l2.61281,-4.61225l2.83597,-4.47849l3.0523,-4.33394l3.26128,-4.17895l3.46241,-4.01389l3.65519,-3.83917l15.55635,15.55635l-2.91061,3.05711l-2.7571,3.19625l-2.59695,3.32768l-2.43054,3.4511l-2.25827,3.5662l-2.08057,3.67272l-1.89785,3.77038l-1.71056,3.85896z" data-paper-data="{&quot;fillable&quot;:true}" stroke="#2a2a3a" stroke-width="1.5"/><path d="M323.63247,323.63247l3.83917,-3.65519l4.01389,-3.46241l4.17895,-3.26128l4.33394,-3.0523l4.47849,-2.83597l4.61225,-2.61281l4.7349,-2.38335l4.84614,-2.14815l8.41904,20.32535l-3.85896,1.71056l-3.77038,1.89785l-3.67272,2.08057l-3.5662,2.25827l-3.4511,2.43054l-3.32768,2.59695l-3.19625,2.7571l-3.05711,2.91061z" data-paper-data="{&quot;fillable&quot;:true}" stroke="#2a2a3a" stroke-width="1.5"/><path d="M358.67019,300.22101l4.94571,-1.90777l5.03336,-1.6628l5.10889,-1.41382l5.1721,-1.16143l5.22286,-0.90625l5.26104,-0.64889l5.28654,-0.38996l5.29931,-0.13009v22l-4.21982,0.10359l-4.20965,0.31052l-4.18935,0.51671l-4.15895,0.72165l-4.11853,0.92485l-4.06819,1.12582l-4.00805,1.32408l-3.93825,1.51915z" data-paper-data="{&quot;fillable&quot;:true}" stroke="#2a2a3a" stroke-width="1.5"/><path d="M400,292l5.29931,0.13009l5.28654,0.38996l5.26104,0.64889l5.22286,0.90625l5.1721,1.16143l5.10889,1.41382l5.03336,1.6628l4.94571,1.90777l-8.41904,20.32535l-3.93825,-1.51915l-4.00805,-1.32408l-4.06819,-1.12582l-4.11853,-0.92485l-4.15895,-0.72165l-4.18935,-0.51671l-4.20965,-0.31052l-4.21982,-0.10359z" data-paper-data="{&quot;fillable&quot;:true}" stroke="#2a2a3a" stroke-width="1.5"/><path d="M441.32981,300.22101l4.84614,2.14815l4.7349,2.38335l4.61225,2.61281l4.47849,2.83597l4.33394,3.0523l4.17895,3.26128l4.01389,3.46241l3.83917,3.65519l-15.55635,15.55635l-3.05711,-2.91061l-3.19625,-2.7571l-3.32768,-2.59695l-3.4511,-2.43054l-3.5662,-2.25827l-3.67272,-2.08057l-3.77038,-1.89785l-3.85896,-1.71056z" data-paper-data="{&quot;fillable&quot;:true}" stroke="#2a2a3a" stroke-width="1.5"/><path d="M476.36753,323.63247l3.65519,3.83917l3.46241,4.01389l3.26128,4.17895l3.0523,4.33394l2.83597,4.47849l2.61281,4.61225l2.38335,4.7349l2.14815,4.84614l-20.32535,8.41904l-1.71056,-3.85896l-1.89785,-3.77038l-2.08057,-3.67272l-2.25827,-3.5662l-2.43054,-3.4511l-2.59695,-3.32768l-2.7571,-3.19625l-2.91061,-3.05711z" data-paper-data="{&quot;fillable&quot;:true}" stroke="#2a2a3a" stroke-width="1.5"/><path d="M499.77899,358.67019l1.90777,4.94571l1.6628,5.03336l1.41382,5.10889l1.16143,5.1721l0.90625,5.22286l0.64889,5.26104l0.38996,5.28654l0.13009,5.29931h-22l-0.10359,-4.21982l-0.31052,-4.20965l-0.51671,-4.18935l-0.72165,-4.15895l-0.92485,-4.11853l-1.12582,-4.06819l-1.32408,-4.00805l-1.51915,-3.93825z" data-paper-data="{&quot;fillable&quot;:true}" stroke="#2a2a3a" stroke-width="1.5"/><path d="M486,400l-0.11786,4.50089l-0.35326,4.48856l-0.58769,4.46392l-0.8205,4.42704l-1.05107,4.37803l-1.27876,4.31702l-1.50294,4.24418l-1.72301,4.15971l-1.93835,4.06383l-2.14838,3.95682l-2.35252,3.83896l-2.55021,3.71057l-2.74091,3.57202l-2.9241,3.42368l-3.09927,3.26595l-33.94113,-33.94113l1.36945,-1.44309l1.29204,-1.51279l1.2111,-1.57834l1.12684,-1.63956l1.03948,-1.69628l0.94928,-1.74836l0.85648,-1.79565l0.76133,-1.83801l0.66409,-1.87534l0.56503,-1.90752l0.46443,-1.93448l0.36255,-1.95613l0.25968,-1.97243l0.15609,-1.98332l0.05208,-1.98877z" data-paper-data="{&quot;fillable&quot;:true}" stroke="#2a2a3a" stroke-width="1.5"/><path d="M460.81118,460.81118l-3.26595,3.09927l-3.42368,2.9241l-3.57202,2.74091l-3.71057,2.55021l-3.83896,2.35252l-3.95682,2.14838l-4.06383,1.93835l-4.15971,1.72301l-4.24418,1.50294l-4.31702,1.27876l-4.37803,1.05107l-4.42704,0.8205l-4.46392,0.58769l-4.48856,0.35326l-4.50089,0.11786v-48l1.98877,-0.05208l1.98332,-0.15609l1.97243,-0.25968l1.95613,-0.36255l1.93448,-0.46443l1.90752,-0.56503l1.87534,-0.66409l1.83801,-0.76133l1.79565,-0.85648l1.74836,-0.94928l1.69628,-1.03948l1.63956,-1.12684l1.57834,-1.2111l1.51279,-1.29204l1.44309,-1.36945z" data-paper-data="{&quot;fillable&quot;:true}" stroke="#2a2a3a" stroke-width="1.5"/><path d="M400,486l-4.50089,-0.11786l-4.48856,-0.35326l-4.46392,-0.58769l-4.42704,-0.8205l-4.37803,-1.05107l-4.31702,-1.27876l-4.24418,-1.50294l-4.15971,-1.72301l-4.06383,-1.93835l-3.95682,-2.14838l-3.83896,-2.35252l-3.71057,-2.55021l-3.57202,-2.74091l-3.42368,-2.9241l-3.26595,-3.09927l33.94113,-33.94113l1.44309,1.36945l1.51279,1.29204l1.57834,1.2111l1.63956,1.12684l1.69628,1.03948l1.74836,0.94928l1.79565,0.85648l1.83801,0.76133l1.87534,0.66409l1.90752,0.56503l1.93448,0.46443l1.95613,0.36255l1.97243,0.25968l1.98332,0.15609l1.98877,0.05208z" data-paper-data="{&quot;fillable&quot;:true}" stroke="#2a2a3a" stroke-width="1.5"/><path d="M339.18882,460.81118l-3.09927,-3.26595l-2.9241,-3.42368l-2.74091,-3.57202l-2.55021,-3.71057l-2.35252,-3.83896l-2.14838,-3.95682l-1.93835,-4.06383l-1.72301,-4.15971l-1.50294,-4.24418l-1.27876,-4.31702l-1.05107,-4.37803l-0.8205,-4.42704l-0.58769,-4.46392l-0.35326,-4.48856l-0.11786,-4.50089h48l0.05208,1.98877l0.15609,1.98332l0.25968,1.97243l0.36255,1.95613l0.46443,1.93448l0.56503,1.90752l0.66409,1.87534l0.76133,1.83801l0.85648,1.79565l0.94928,1.74836l1.03948,1.69628l1.12684,1.63956l1.2111,1.57834l1.29204,1.51279l1.36945,1.44309z" data-paper-data="{&quot;fillable&quot;:true}" stroke="#2a2a3a" stroke-width="1.5"/><path d="M314,400l0.11786,-4.50089l0.35326,-4.48856l0.58769,-4.46392l0.8205,-4.42704l1.05107,-4.37803l1.27876,-4.31702l1.50294,-4.24418l1.72301,-4.15971l1.93835,-4.06383l2.14838,-3.95682l2.35252,-3.83896l2.55021,-3.71057l2.74091,-3.57202l2.9241,-3.42368l3.09927,-3.26595l33.94113,33.94113l-1.36945,1.44309l-1.29204,1.51279l-1.2111,1.57834l-1.12684,1.63956l-1.03948,1.69628l-0.94928,1.74836l-0.85648,1.79565l-0.76133,1.83801l-0.66409,1.87534l-0.56503,1.90752l-0.46443,1.93448l-0.36255,1.95613l-0.25968,1.97243l-0.15609,1.98332l-0.05208,1.98877z" data-paper-data="{&quot;fillable&quot;:true}" stroke="#2a2a3a" stroke-width="1.5"/><path d="M339.18882,339.18882l3.26595,-3.09927l3.42368,-2.9241l3.57202,-2.74091l3.71057,-2.55021l3.83896,-2.35252l3.95682,-2.14838l4.06383,-1.93835l4.15971,-1.72301l4.24418,-1.50294l4.31702,-1.27876l4.37803,-1.05107l4.42704,-0.8205l4.46392,-0.58769l4.48856,-0.35326l4.50089,-0.11786v48l-1.98877,0.05208l-1.98332,0.15609l-1.97243,0.25968l-1.95613,0.36255l-1.93448,0.46443l-1.90752,0.56503l-1.87534,0.66409l-1.83801,0.76133l-1.79565,0.85648l-1.74836,0.94928l-1.69628,1.03948l-1.63956,1.12684l-1.57834,1.2111l-1.51279,1.29204l-1.44309,1.36945z" data-paper-data="{&quot;fillable&quot;:true}" stroke="#2a2a3a" stroke-width="1.5"/><path d="M400,314l4.50089,0.11786l4.48856,0.35326l4.46392,0.58769l4.42704,0.8205l4.37803,1.05107l4.31702,1.27876l4.24418,1.50294l4.15971,1.72301l4.06383,1.93835l3.95682,2.14838l3.83896,2.35252l3.71057,2.55021l3.57202,2.74091l3.42368,2.9241l3.26595,3.09927l-33.94113,33.94113l-1.44309,-1.36945l-1.51279,-1.29204l-1.57834,-1.2111l-1.63956,-1.12684l-1.69628,-1.03948l-1.74836,-0.94928l-1.79565,-0.85648l-1.83801,-0.76133l-1.87534,-0.66409l-1.90752,-0.56503l-1.93448,-0.46443l-1.95613,-0.36255l-1.97243,-0.25968l-1.98332,-0.15609l-1.98877,-0.05208z" data-paper-data="{&quot;fillable&quot;:true}" stroke="#2a2a3a" stroke-width="1.5"/><path d="M460.81118,339.18882l3.09927,3.26595l2.9241,3.42368l2.74091,3.57202l2.55021,3.71057l2.35252,3.83896l2.14838,3.95682l1.93835,4.06383l1.72301,4.15971l1.50294,4.24418l1.27876,4.31702l1.05107,4.37803l0.8205,4.42704l0.58769,4.46392l0.35326,4.48856l0.11786,4.50089h-48l-0.05208,-1.98877l-0.15609,-1.98332l-0.25968,-1.97243l-0.36255,-1.95613l-0.46443,-1.93448l-0.56503,-1.90752l-0.66409,-1.87534l-0.76133,-1.83801l-0.85648,-1.79565l-0.94928,-1.74836l-1.03948,-1.69628l-1.12684,-1.63956l-1.2111,-1.57834l-1.29204,-1.51279l-1.36945,-1.44309z" data-paper-data="{&quot;fillable&quot;:true}" stroke="#2a2a3a" stroke-width="1.5"/><path d="M362,400c0,-20.98682 17.01318,-38 38,-38c20.98682,0 38,17.01318 38,38c0,20.98682 -17.01318,38 -38,38c-20.98682,0 -38,-17.01318 -38,-38z" data-paper-data="{&quot;fillable&quot;:true}" stroke="#2a2a3a" stroke-width="1.5"/><path d="M380,400c0,-11.04569 8.95431,-20 20,-20c11.04569,0 20,8.95431 20,20c0,11.04569 -8.95431,20 -20,20c-11.04569,0 -20,-8.95431 -20,-20z" data-paper-data="{&quot;fillable&quot;:true}" stroke="#2a2a3a" stroke-width="1.5"/><path d="M393,400c0,-3.86599 3.13401,-7 7,-7c3.86599,0 7,3.13401 7,7c0,3.86599 -3.13401,7 -7,7c-3.86599,0 -7,-3.13401 -7,-7z" data-paper-data="{&quot;fillable&quot;:true}" stroke="#2a2a3a" stroke-width="1.5"/><path d="M46,100c0,-29.82338 24.17662,-54 54,-54c29.82338,0 54,24.17662 54,54c0,29.82338 -24.17662,54 -54,54c-29.82338,0 -54,-24.17662 -54,-54z" data-paper-data="{&quot;fillable&quot;:true}" stroke="#2a2a3a" stroke-width="1.5"/><path d="M89.74,83.8c0,-11.63112 4.59356,-21.06 10.26,-21.06c5.66644,0 10.26,9.42888 10.26,21.06c0,11.63112 -4.59356,21.06 -10.26,21.06c-5.66644,0 -10.26,-9.42888 -10.26,-21.06z" data-paper-data="{&quot;fillable&quot;:true}" stroke="#2a2a3a" stroke-width="1.5"/><path d="M91.10039,99.21458c10.07284,5.81556 15.94172,14.50814 13.1085,19.41542c-2.83322,4.90728 -13.29565,4.17098 -23.3685,-1.64458c-10.07284,-5.81556 -15.94172,-14.50814 -13.1085,-19.41542c2.83322,-4.90728 13.29565,-4.17098 23.3685,1.64458z" data-paper-data="{&quot;fillable&quot;:true}" stroke="#2a2a3a" stroke-width="1.5"/><path d="M119.15961,116.98542c-10.07284,5.81556 -20.53527,6.55186 -23.3685,1.64458c-2.83322,-4.90728 3.03565,-13.59986 13.1085,-19.41542c10.07284,-5.81556 20.53527,-6.55186 23.3685,-1.64458c2.83322,4.90728 -3.03565,13.59986 -13.1085,19.41542z" data-paper-data="{&quot;fillable&quot;:true}" stroke="#2a2a3a" stroke-width="1.5"/><path d="M91.36,100c0,-4.77174 3.86826,-8.64 8.64,-8.64c4.77174,0 8.64,3.86826 8.64,8.64c0,4.77174 -3.86826,8.64 -8.64,8.64c-4.77174,0 -8.64,-3.86826 -8.64,-8.64z" data-paper-data="{&quot;fillable&quot;:true}" stroke="#2a2a3a" stroke-width="1.5"/><path d="M646,100c0,-29.82338 24.17662,-54 54,-54c29.82338,0 54,24.17662 54,54c0,29.82338 -24.17662,54 -54,54c-29.82338,0 -54,-24.17662 -54,-54z" data-paper-data="{&quot;fillable&quot;:true}" stroke="#2a2a3a" stroke-width="1.5"/><path d="M689.74,83.8c0,-11.63112 4.59356,-21.06 10.26,-21.06c5.66644,0 10.26,9.42888 10.26,21.06c0,11.63112 -4.59356,21.06 -10.26,21.06c-5.66644,0 -10.26,-9.42888 -10.26,-21.06z" data-paper-data="{&quot;fillable&quot;:true}" stroke="#2a2a3a" stroke-width="1.5"/><path d="M691.10039,99.21458c10.07284,5.81556 15.94172,14.50814 13.1085,19.41542c-2.83322,4.90728 -13.29565,4.17098 -23.3685,-1.64458c-10.07284,-5.81556 -15.94172,-14.50814 -13.1085,-19.41542c2.83322,-4.90728 13.29565,-4.17098 23.3685,1.64458z" data-paper-data="{&quot;fillable&quot;:true}" stroke="#2a2a3a" stroke-width="1.5"/><path d="M719.15961,116.98542c-10.07284,5.81556 -20.53527,6.55186 -23.3685,1.64458c-2.83322,-4.90728 3.03565,-13.59986 13.1085,-19.41542c10.07284,-5.81556 20.53527,-6.55186 23.3685,-1.64458c2.83322,4.90728 -3.03565,13.59986 -13.1085,19.41542z" data-paper-data="{&quot;fillable&quot;:true}" stroke="#2a2a3a" stroke-width="1.5"/><path d="M691.36,100c0,-4.77174 3.86826,-8.64 8.64,-8.64c4.77174,0 8.64,3.86826 8.64,8.64c0,4.77174 -3.86826,8.64 -8.64,8.64c-4.77174,0 -8.64,-3.86826 -8.64,-8.64z" data-paper-data="{&quot;fillable&quot;:true}" stroke="#2a2a3a" stroke-width="1.5"/><path d="M46,700c0,-29.82338 24.17662,-54 54,-54c29.82338,0 54,24.17662 54,54c0,29.82338 -24.17662,54 -54,54c-29.82338,0 -54,-24.17662 -54,-54z" data-paper-data="{&quot;fillable&quot;:true}" stroke="#2a2a3a" stroke-width="1.5"/><path d="M89.74,683.8c0,-11.63112 4.59356,-21.06 10.26,-21.06c5.66644,0 10.26,9.42888 10.26,21.06c0,11.63112 -4.59356,21.06 -10.26,21.06c-5.66644,0 -10.26,-9.42888 -10.26,-21.06z" data-paper-data="{&quot;fillable&quot;:true}" stroke="#2a2a3a" stroke-width="1.5"/><path d="M91.10039,699.21458c10.07284,5.81556 15.94172,14.50814 13.1085,19.41542c-2.83322,4.90728 -13.29565,4.17098 -23.3685,-1.64458c-10.07284,-5.81556 -15.94172,-14.50814 -13.1085,-19.41542c2.83322,-4.90728 13.29565,-4.17098 23.3685,1.64458z" data-paper-data="{&quot;fillable&quot;:true}" stroke="#2a2a3a" stroke-width="1.5"/><path d="M119.15961,716.98542c-10.07284,5.81556 -20.53527,6.55186 -23.3685,1.64458c-2.83322,-4.90728 3.03565,-13.59986 13.1085,-19.41542c10.07284,-5.81556 20.53527,-6.55186 23.3685,-1.64458c2.83322,4.90728 -3.03565,13.59986 -13.1085,19.41542z" data-paper-data="{&quot;fillable&quot;:true}" stroke="#2a2a3a" stroke-width="1.5"/><path d="M91.36,700c0,-4.77174 3.86826,-8.64 8.64,-8.64c4.77174,0 8.64,3.86826 8.64,8.64c0,4.77174 -3.86826,8.64 -8.64,8.64c-4.77174,0 -8.64,-3.86826 -8.64,-8.64z" data-paper-data="{&quot;fillable&quot;:true}" stroke="#2a2a3a" stroke-width="1.5"/><path d="M646,700c0,-29.82338 24.17662,-54 54,-54c29.82338,0 54,24.17662 54,54c0,29.82338 -24.17662,54 -54,54c-29.82338,0 -54,-24.17662 -54,-54z" data-paper-data="{&quot;fillable&quot;:true}" stroke="#2a2a3a" stroke-width="1.5"/><path d="M689.74,683.8c0,-11.63112 4.59356,-21.06 10.26,-21.06c5.66644,0 10.26,9.42888 10.26,21.06c0,11.63112 -4.59356,21.06 -10.26,21.06c-5.66644,0 -10.26,-9.42888 -10.26,-21.06z" data-paper-data="{&quot;fillable&quot;:true}" stroke="#2a2a3a" stroke-width="1.5"/><path d="M691.10039,699.21458c10.07284,5.81556 15.94172,14.50814 13.1085,19.41542c-2.83322,4.90728 -13.29565,4.17098 -23.3685,-1.64458c-10.07284,-5.81556 -15.94172,-14.50814 -13.1085,-19.41542c2.83322,-4.90728 13.29565,-4.17098 23.3685,1.64458z" data-paper-data="{&quot;fillable&quot;:true}" stroke="#2a2a3a" stroke-width="1.5"/><path d="M719.15961,716.98542c-10.07284,5.81556 -20.53527,6.55186 -23.3685,1.64458c-2.83322,-4.90728 3.03565,-13.59986 13.1085,-19.41542c10.07284,-5.81556 20.53527,-6.55186 23.3685,-1.64458c2.83322,4.90728 -3.03565,13.59986 -13.1085,19.41542z" data-paper-data="{&quot;fillable&quot;:true}" stroke="#2a2a3a" stroke-width="1.5"/><path d="M691.36,700c0,-4.77174 3.86826,-8.64 8.64,-8.64c4.77174,0 8.64,3.86826 8.64,8.64c0,4.77174 -3.86826,8.64 -8.64,8.64c-4.77174,0 -8.64,-3.86826 -8.64,-8.64z" data-paper-data="{&quot;fillable&quot;:true}" stroke="#2a2a3a" stroke-width="1.5"/><path d="M256.62027,282.62027c0,-14.3594 11.6406,-26 26,-26c14.3594,0 26,11.6406 26,26c0,14.3594 -11.6406,26 -26,26c-14.3594,0 -26,-11.6406 -26,-26z" data-paper-data="{&quot;fillable&quot;:true}" stroke="#2a2a3a" stroke-width="1.5"/><path d="M269.62027,282.62027c0,-7.1797 5.8203,-13 13,-13c7.1797,0 13,5.8203 13,13c0,7.1797 -5.8203,13 -13,13c-7.1797,0 -13,-5.8203 -13,-13z" data-paper-data="{&quot;fillable&quot;:true}" stroke="#2a2a3a" stroke-width="1.5"/><path d="M277.62027,282.62027c0,-2.76142 2.23858,-5 5,-5c2.76142,0 5,2.23858 5,5c0,2.76142 -2.23858,5 -5,5c-2.76142,0 -5,-2.23858 -5,-5z" data-paper-data="{&quot;fillable&quot;:true}" stroke="#2a2a3a" stroke-width="1.5"/><path d="M491.37973,282.62027c0,-14.3594 11.6406,-26 26,-26c14.3594,0 26,11.6406 26,26c0,14.3594 -11.6406,26 -26,26c-14.3594,0 -26,-11.6406 -26,-26z" data-paper-data="{&quot;fillable&quot;:true}" stroke="#2a2a3a" stroke-width="1.5"/><path d="M504.37973,282.62027c0,-7.1797 5.8203,-13 13,-13c7.1797,0 13,5.8203 13,13c0,7.1797 -5.8203,13 -13,13c-7.1797,0 -13,-5.8203 -13,-13z" data-paper-data="{&quot;fillable&quot;:true}" stroke="#2a2a3a" stroke-width="1.5"/><path d="M512.37973,282.62027c0,-2.76142 2.23858,-5 5,-5c2.76142,0 5,2.23858 5,5c0,2.76142 -2.23858,5 -5,5c-2.76142,0 -5,-2.23858 -5,-5z" data-paper-data="{&quot;fillable&quot;:true}" stroke="#2a2a3a" stroke-width="1.5"/><path d="M256.62027,517.37973c0,-14.3594 11.6406,-26 26,-26c14.3594,0 26,11.6406 26,26c0,14.3594 -11.6406,26 -26,26c-14.3594,0 -26,-11.6406 -26,-26z" data-paper-data="{&quot;fillable&quot;:true}" stroke="#2a2a3a" stroke-width="1.5"/><path d="M269.62027,517.37973c0,-7.1797 5.8203,-13 13,-13c7.1797,0 13,5.8203 13,13c0,7.1797 -5.8203,13 -13,13c-7.1797,0 -13,-5.8203 -13,-13z" data-paper-data="{&quot;fillable&quot;:true}" stroke="#2a2a3a" stroke-width="1.5"/><path d="M277.62027,517.37973c0,-2.76142 2.23858,-5 5,-5c2.76142,0 5,2.23858 5,5c0,2.76142 -2.23858,5 -5,5c-2.76142,0 -5,-2.23858 -5,-5z" data-paper-data="{&quot;fillable&quot;:true}" stroke="#2a2a3a" stroke-width="1.5"/><path d="M491.37973,517.37973c0,-14.3594 11.6406,-26 26,-26c14.3594,0 26,11.6406 26,26c0,14.3594 -11.6406,26 -26,26c-14.3594,0 -26,-11.6406 -26,-26z" data-paper-data="{&quot;fillable&quot;:true}" stroke="#2a2a3a" stroke-width="1.5"/><path d="M504.37973,517.37973c0,-7.1797 5.8203,-13 13,-13c7.1797,0 13,5.8203 13,13c0,7.1797 -5.8203,13 -13,13c-7.1797,0 -13,-5.8203 -13,-13z" data-paper-data="{&quot;fillable&quot;:true}" stroke="#2a2a3a" stroke-width="1.5"/><path d="M512.37973,517.37973c0,-2.76142 2.23858,-5 5,-5c2.76142,0 5,2.23858 5,5c0,2.76142 -2.23858,5 -5,5c-2.76142,0 -5,-2.23858 -5,-5z" data-paper-data="{&quot;fillable&quot;:true}" stroke="#2a2a3a" stroke-width="1.5"/></g></svg>