<svg version="1.1" xmlns="http://www.w3.org/2000/svg" xmlns:xlink="http://www.w3.org/1999/xlink" width="800" height="800" viewBox="0,0,800,800"><g fill="#000000" fill-rule="nonzero" stroke="none" stroke-width="none" stroke-linecap="butt" stroke-linejoin="miter" stroke-miterlimit="10" stroke-dasharray="" stroke-dashoffset="0" font-family="none" font-weight="none" font-size="none" text-anchor="none" style="mix-blend-mode: normal"><path d="M0,800v-800h800v800z" stroke="none" stroke-width="1"/><path d="M0,800v-800h800v800z" data-paper-data="{&quot;fillable&quot;:true}" stroke="#2a2a3a" stroke-width="1.5"/><path d="M655,345l-0.13653,8.34337l-0.40944,8.33443l-0.68192,8.31657l-0.95367,8.28981l-1.22439,8.25417l-1.4938,8.20969l-1.76162,8.15641l-2.02754,8.09441l-19.31852,-5.17638l1.86852,-7.45955l1.62345,-7.5167l1.37664,-7.56579l1.12836,-7.60678l0.87887,-7.63963l0.62844,-7.66429l0.37733,-7.68075l0.12582,-7.68898z" data-paper-data="{&quot;fillable&quot;:true}" stroke="#2a2a3a" stroke-width="1.5"/><path d="M646.31109,410.99886l-2.2913,8.02374l-2.5526,7.94447l-2.81117,7.8567l-3.06673,7.76051l-3.31901,7.65602l-3.56773,7.54332l-3.81263,7.42255l-4.05344,7.29383l-17.32051,-10l3.73553,-6.72177l3.5136,-6.84039l3.2879,-6.95169l3.05869,-7.05555l2.8262,-7.15185l2.59069,-7.24049l2.3524,-7.32138l2.11159,-7.39442z" data-paper-data="{&quot;fillable&quot;:true}" stroke="#2a2a3a" stroke-width="1.5"/><path d="M620.83648,472.5l-4.28992,7.1573l-4.52181,7.01311l-4.74885,6.8614l-4.9708,6.70235l-5.18744,6.53612l-5.39851,6.3629l-5.60381,6.18285l-5.80311,5.99619l-14.14214,-14.14214l5.34796,-5.5259l5.1643,-5.69792l4.9751,-5.86384l4.78058,-6.02349l4.58094,-6.17668l4.37639,-6.32325l4.16715,-6.46306l3.95346,-6.59594z" data-paper-data="{&quot;fillable&quot;:true}" stroke="#2a2a3a" stroke-width="1.5"/><path d="M580.31223,525.31223l-5.99619,5.80311l-6.18285,5.60381l-6.3629,5.39851l-6.53612,5.18744l-6.70235,4.9708l-6.8614,4.74885l-7.01311,4.52181l-7.1573,4.28992l-10,-17.32051l6.59594,-3.95346l6.46306,-4.16715l6.32325,-4.37639l6.17668,-4.58094l6.02349,-4.78058l5.86384,-4.9751l5.69792,-5.1643l5.5259,-5.34796z" data-paper-data="{&quot;fillable&quot;:true}" stroke="#2a2a3a" stroke-width="1.5"/><path d="M527.5,565.83648l-7.29383,4.05344l-7.42255,3.81263l-7.54332,3.56773l-7.65602,3.31901l-7.76051,3.06673l-7.8567,2.81117l-7.94447,2.5526l-8.02374,2.2913l-5.17638,-19.31852l7.39442,-2.11159l7.32138,-2.3524l7.24049,-2.59069l7.15185,-2.8262l7.05555,-3.05869l6.95169,-3.2879l6.84039,-3.5136l6.72177,-3.73553z" data-paper-data="{&quot;fillable&quot;:true}" stroke="#2a2a3a" stroke-width="1.5"/><path d="M465.99886,591.31109l-8.09441,2.02754l-8.15641,1.76162l-8.20969,1.4938l-8.25417,1.22439l-8.28981,0.95367l-8.31657,0.68192l-8.33443,0.40944l-8.34337,0.13653v-20l7.68898,-0.12582l7.68075,-0.37733l7.66429,-0.62844l7.63963,-0.87887l7.60678,-1.12836l7.56579,-1.37664l7.5167,-1.62345l7.45955,-1.86852z" data-paper-data="{&quot;fillable&quot;:true}" stroke="#2a2a3a" stroke-width="1.5"/><path d="M400,600l-8.34337,-0.13653l-8.33443,-0.40944l-8.31657,-0.68192l-8.28981,-0.95367l-8.25417,-1.22439l-8.20969,-1.4938l-8.15641,-1.76162l-8.09441,-2.02754l5.17638,-19.31852l7.45955,1.86852l7.5167,1.62345l7.56579,1.37664l7.60678,1.12836l7.63963,0.87887l7.66429,0.62844l7.68075,0.37733l7.68898,0.12582z" data-paper-data="{&quot;fillable&quot;:true}" stroke="#2a2a3a" stroke-width="1.5"/><path d="M334.00114,591.31109l-8.02374,-2.2913l-7.94447,-2.5526l-7.8567,-2.81117l-7.76051,-3.06673l-7.65602,-3.31901l-7.54332,-3.56773l-7.42255,-3.81263l-7.29383,-4.05344l10,-17.32051l6.72177,3.73553l6.84039,3.5136l6.95169,3.2879l7.05555,3.05869l7.15185,2.8262l7.24049,2.59069l7.32138,2.3524l7.39442,2.11159z" data-paper-data="{&quot;fillable&quot;:true}" stroke="#2a2a3a" stroke-width="1.5"/><path d="M272.5,565.83648l-7.1573,-4.28992l-7.01311,-4.52181l-6.8614,-4.74885l-6.70235,-4.9708l-6.53612,-5.18744l-6.3629,-5.39851l-6.18285,-5.60381l-5.99619,-5.80311l14.14214,-14.14214l5.5259,5.34796l5.69792,5.1643l5.86384,4.9751l6.02349,4.78058l6.17668,4.58094l6.32325,4.37639l6.46306,4.16715l6.59594,3.95346z" data-paper-data="{&quot;fillable&quot;:true}" stroke="#2a2a3a" stroke-width="1.5"/><path d="M219.68777,525.31223l-5.80311,-5.99619l-5.60381,-6.18285l-5.39851,-6.3629l-5.18744,-6.53612l-4.9708,-6.70235l-4.74885,-6.8614l-4.52181,-7.01311l-4.28992,-7.1573l17.32051,-10l3.95346,6.59594l4.16715,6.46306l4.37639,6.32325l4.58094,6.17668l4.78058,6.02349l4.9751,5.86384l5.1643,5.69792l5.34796,5.5259z" data-paper-data="{&quot;fillable&quot;:true}" stroke="#2a2a3a" stroke-width="1.5"/><path d="M179.16352,472.5l-4.05344,-7.29383l-3.81263,-7.42255l-3.56773,-7.54332l-3.31901,-7.65602l-3.06673,-7.76051l-2.81117,-7.8567l-2.5526,-7.94447l-2.2913,-8.02374l19.31852,-5.17638l2.11159,7.39442l2.3524,7.32138l2.59069,7.24049l2.8262,7.15185l3.05869,7.05555l3.2879,6.95169l3.5136,6.84039l3.73553,6.72177z" data-paper-data="{&quot;fillable&quot;:true}" stroke="#2a2a3a" stroke-width="1.5"/><path d="M153.68891,410.99886l-2.02754,-8.09441l-1.76162,-8.15641l-1.4938,-8.20969l-1.22439,-8.25417l-0.95367,-8.28981l-0.68192,-8.31657l-0.40944,-8.33443l-0.13653,-8.34337h20l0.12582,7.68898l0.37733,7.68075l0.62844,7.66429l0.87887,7.63963l1.12836,7.60678l1.37664,7.56579l1.62345,7.5167l1.86852,7.45955z" data-paper-data="{&quot;fillable&quot;:true}" stroke="#2a2a3a" stroke-width="1.5"/><path d="M145,345l0.13653,-8.34337l0.40944,-8.33443l0.68192,-8.31657l0.95367,-8.28981l1.22439,-8.25417l1.4938,-8.20969l1.76162,-8.15641l2.02754,-8.09441l19.31852,5.17638l-1.86852,7.45955l-1.62345,7.5167l-1.37664,7.56579l-1.12836,7.60678l-0.87887,7.63963l-0.62844,7.66429l-0.37733,7.68075l-0.12582,7.68898z" data-paper-data="{&quot;fillable&quot;:true}" stroke="#2a2a3a" stroke-width="1.5"/><path d="M153.68891,279.00114l2.2913,-8.02374l2.5526,-7.94447l2.81117,-7.8567l3.06673,-7.76051l3.31901,-7.65602l3.56773,-7.54332l3.81263,-7.42255l4.05344,-7.29383l17.32051,10l-3.73553,6.72177l-3.5136,6.84039l-3.2879,6.95169l-3.05869,7.05555l-2.8262,7.15185l-2.59069,7.24049l-2.3524,7.32138l-2.11159,7.39442z" data-paper-data="{&quot;fillable&quot;:true}" stroke="#2a2a3a" stroke-width="1.5"/><path d="M179.16352,217.5l4.28992,-7.1573l4.52181,-7.01311l4.74885,-6.8614l4.9708,-6.70235l5.18744,-6.53612l5.39851,-6.3629l5.60381,-6.18285l5.80311,-5.99619l14.14214,14.14214l-5.34796,5.5259l-5.1643,5.69792l-4.9751,5.86384l-4.78058,6.02349l-4.58094,6.17668l-4.37639,6.32325l-4.16715,6.46306l-3.95346,6.59594z" data-paper-data="{&quot;fillable&quot;:true}" stroke="#2a2a3a" stroke-width="1.5"/><path d="M219.68777,164.68777l5.99619,-5.80311l6.18285,-5.60381l6.3629,-5.39851l6.53612,-5.18744l6.70235,-4.9708l6.8614,-4.74885l7.01311,-4.52181l7.1573,-4.28992l10,17.32051l-6.59594,3.95346l-6.46306,4.16715l-6.32325,4.37639l-6.17668,4.58094l-6.02349,4.78058l-5.86384,4.9751l-5.69792,5.1643l-5.5259,5.34796z" data-paper-data="{&quot;fillable&quot;:true}" stroke="#2a2a3a" stroke-width="1.5"/><path d="M272.5,124.16352l7.29383,-4.05344l7.42255,-3.81263l7.54332,-3.56773l7.65602,-3.31901l7.76051,-3.06673l7.8567,-2.81117l7.94447,-2.5526l8.02374,-2.2913l5.17638,19.31852l-7.39442,2.11159l-7.32138,2.3524l-7.24049,2.59069l-7.15185,2.8262l-7.05555,3.05869l-6.95169,3.2879l-6.84039,3.5136l-6.72177,3.73553z" data-paper-data="{&quot;fillable&quot;:true}" stroke="#2a2a3a" stroke-width="1.5"/><path d="M334.00114,98.68891l8.09441,-2.02754l8.15641,-1.76162l8.20969,-1.4938l8.25417,-1.22439l8.28981,-0.95367l8.31657,-0.68192l8.33443,-0.40944l8.34337,-0.13653v20l-7.68898,0.12582l-7.68075,0.37733l-7.66429,0.62844l-7.63963,0.87887l-7.60678,1.12836l-7.56579,1.37664l-7.5167,1.62345l-7.45955,1.86852z" data-paper-data="{&quot;fillable&quot;:true}" stroke="#2a2a3a" stroke-width="1.5"/><path d="M400,90l8.34337,0.13653l8.33443,0.40944l8.31657,0.68192l8.28981,0.95367l8.25417,1.22439l8.20969,1.4938l8.15641,1.76162l8.09441,2.02754l-5.17638,19.31852l-7.45955,-1.86852l-7.5167,-1.62345l-7.56579,-1.37664l-7.60678,-1.12836l-7.63963,-0.87887l-7.66429,-0.62844l-7.68075,-0.37733l-7.68898,-0.12582z" data-paper-data="{&quot;fillable&quot;:true}" stroke="#2a2a3a" stroke-width="1.5"/><path d="M465.99886,98.68891l8.02374,2.2913l7.94447,2.5526l7.8567,2.81117l7.76051,3.06673l7.65602,3.31901l7.54332,3.56773l7.42255,3.81263l7.29383,4.05344l-10,17.32051l-6.72177,-3.73553l-6.84039,-3.5136l-6.95169,-3.2879l-7.05555,-3.05869l-7.15185,-2.8262l-7.24049,-2.59069l-7.32138,-2.3524l-7.39442,-2.11159z" data-paper-data="{&quot;fillable&quot;:true}" stroke="#2a2a3a" stroke-width="1.5"/><path d="M527.5,124.16352l7.1573,4.28992l7.01311,4.52181l6.8614,4.74885l6.70235,4.9708l6.53612,5.18744l6.3629,5.39851l6.18285,5.60381l5.99619,5.80311l-14.14214,14.14214l-5.5259,-5.34796l-5.69792,-5.1643l-5.86384,-4.9751l-6.02349,-4.78058l-6.17668,-4.58094l-6.32325,-4.37639l-6.46306,-4.16715l-6.59594,-3.95346z" data-paper-data="{&quot;fillable&quot;:true}" stroke="#2a2a3a" stroke-width="1.5"/><path d="M580.31223,164.68777l5.80311,5.99619l5.60381,6.18285l5.39851,6.3629l5.18744,6.53612l4.9708,6.70235l4.74885,6.8614l4.52181,7.01311l4.28992,7.1573l-17.32051,10l-3.95346,-6.59594l-4.16715,-6.46306l-4.37639,-6.32325l-4.58094,-6.17668l-4.78058,-6.02349l-4.9751,-5.86384l-5.1643,-5.69792l-5.34796,-5.5259z" data-paper-data="{&quot;fillable&quot;:true}" stroke="#2a2a3a" stroke-width="1.5"/><path d="M620.83648,217.5l4.05344,7.29383l3.81263,7.42255l3.56773,7.54332l3.31901,7.65602l3.06673,7.76051l2.81117,7.8567l2.5526,7.94447l2.2913,8.02374l-19.31852,5.17638l-2.11159,-7.39442l-2.3524,-7.32138l-2.59069,-7.24049l-2.8262,-7.15185l-3.05869,-7.05555l-3.2879,-6.95169l-3.5136,-6.84039l-3.73553,-6.72177z" data-paper-data="{&quot;fillable&quot;:true}" stroke="#2a2a3a" stroke-width="1.5"/><path d="M646.31109,279.00114l2.02754,8.09441l1.76162,8.15641l1.4938,8.20969l1.22439,8.25417l0.95367,8.28981l0.68192,8.31657l0.40944,8.33443l0.13653,8.34337h-20l-0.12582,-7.68898l-0.37733,-7.68075l-0.62844,-7.66429l-0.87887,-7.63963l-1.12836,-7.60678l-1.37664,-7.56579l-1.62345,-7.5167l-1.86852,-7.45955z" data-paper-data="{&quot;fillable&quot;:true}" stroke="#2a2a3a" stroke-width="1.5"/><path d="M628,345c0,-3.86599 3.13401,-7 7,-7c3.86599,0 7,3.13401 7,7c0,3.86599 -3.13401,7 -7,7c-3.86599,0 -7,-3.13401 -7,-7z" data-paper-data="{&quot;fillable&quot;:true}" stroke="#2a2a3a" stroke-width="1.5"/><path d="M596.51597,462.5c0,-3.86599 3.13401,-7 7,-7c3.86599,0 7,3.13401 7,7c0,3.86599 -3.13401,7 -7,7c-3.86599,0 -7,-3.13401 -7,-7z" data-paper-data="{&quot;fillable&quot;:true}" stroke="#2a2a3a" stroke-width="1.5"/><path d="M510.5,548.51597c0,-3.86599 3.13401,-7 7,-7c3.86599,0 7,3.13401 7,7c0,3.86599 -3.13401,7 -7,7c-3.86599,0 -7,-3.13401 -7,-7z" data-paper-data="{&quot;fillable&quot;:true}" stroke="#2a2a3a" stroke-width="1.5"/><path d="M393,580c0,-3.86599 3.13401,-7 7,-7c3.86599,0 7,3.13401 7,7c0,3.86599 -3.13401,7 -7,7c-3.86599,0 -7,-3.13401 -7,-7z" data-paper-data="{&quot;fillable&quot;:true}" stroke="#2a2a3a" stroke-width="1.5"/><path d="M275.5,548.51597c0,-3.86599 3.13401,-7 7,-7c3.86599,0 7,3.13401 7,7c0,3.86599 -3.13401,7 -7,7c-3.86599,0 -7,-3.13401 -7,-7z" data-paper-data="{&quot;fillable&quot;:true}" stroke="#2a2a3a" stroke-width="1.5"/><path d="M189.48403,462.5c0,-3.86599 3.13401,-7 7,-7c3.86599,0 7,3.13401 7,7c0,3.86599 -3.13401,7 -7,7c-3.86599,0 -7,-3.13401 -7,-7z" data-paper-data="{&quot;fillable&quot;:true}" stroke="#2a2a3a" stroke-width="1.5"/><path d="M158,345c0,-3.86599 3.13401,-7 7,-7c3.86599,0 7,3.13401 7,7c0,3.86599 -3.13401,7 -7,7c-3.86599,0 -7,-3.13401 -7,-7z" data-paper-data="{&quot;fillable&quot;:true}" stroke="#2a2a3a" stroke-width="1.5"/><path d="M189.48403,227.5c0,-3.86599 3.13401,-7 7,-7c3.86599,0 7,3.13401 7,7c0,3.86599 -3.13401,7 -7,7c-3.86599,0 -7,-3.13401 -7,-7z" data-paper-data="{&quot;fillable&quot;:true}" stroke="#2a2a3a" stroke-width="1.5"/><path d="M275.5,141.48403c0,-3.86599 3.13401,-7 7,-7c3.86599,0 7,3.13401 7,7c0,3.86599 -3.13401,7 -7,7c-3.86599,0 -7,-3.13401 -7,-7z" data-paper-data="{&quot;fillable&quot;:true}" stroke="#2a2a3a" stroke-width="1.5"/><path d="M393,110c0,-3.86599 3.13401,-7 7,-7c3.86599,0 7,3.13401 7,7c0,3.86599 -3.13401,7 -7,7c-3.86599,0 -7,-3.13401 -7,-7z" data-paper-data="{&quot;fillable&quot;:true}" stroke="#2a2a3a" stroke-width="1.5"/><path d="M510.5,141.48403c0,-3.86599 3.13401,-7 7,-7c3.86599,0 7,3.13401 7,7c0,3.86599 -3.13401,7 -7,7c-3.86599,0 -7,-3.13401 -7,-7z" data-paper-data="{&quot;fillable&quot;:true}" stroke="#2a2a3a" stroke-width="1.5"/><path d="M596.51597,227.5c0,-3.86599 3.13401,-7 7,-7c3.86599,0 7,3.13401 7,7c0,3.86599 -3.13401,7 -7,7c-3.86599,0 -7,-3.13401 -7,-7z" data-paper-data="{&quot;fillable&quot;:true}" stroke="#2a2a3a" stroke-width="1.5"/><path d="M636.65183,408.41067c0,1.66667 2.88101,4.91885 4.5,5c1.70185,0.08531 5.5,-3.33333 5.5,-5c0,-1.66667 -3.79815,-5.08531 -5.5,-5c-1.61899,0.08115 -4.5,3.33333 -4.5,5z" data-paper-data="{&quot;fillable&quot;:true}" stroke="#2a2a3a" stroke-width="1.5"/><path d="M636.65183,408.41067c-1.58509,0.51503 -3.78782,4.26001 -3.36471,5.82484c0.44477,1.64492 4.86978,4.20075 6.45488,3.68573c1.58509,-0.51503 3.66272,-5.1837 3.05569,-6.7759c-0.57747,-1.51467 -4.56076,-3.2497 -6.14586,-2.73467z" data-paper-data="{&quot;fillable&quot;:true}" stroke="#2a2a3a" stroke-width="1.5"/><path d="M636.65183,408.41067c-0.97964,-1.34836 -5.22201,-2.28602 -6.5795,-1.40005c-1.42697,0.93131 -2.49031,5.92954 -1.51067,7.2779c0.97964,1.34836 6.06183,1.8816 7.38852,0.81227c1.26209,-1.01727 1.68129,-5.34176 0.70165,-6.69012z" data-paper-data="{&quot;fillable&quot;:true}" stroke="#2a2a3a" stroke-width="1.5"/><path d="M636.65183,408.41067c0.97964,-1.34836 0.56044,-5.67285 -0.70165,-6.69012c-1.32669,-1.06934 -6.40888,-0.5361 -7.38852,0.81227c-0.97964,1.34836 0.0837,6.34659 1.51067,7.2779c1.35749,0.88596 5.59986,-0.05169 6.5795,-1.40005z" data-paper-data="{&quot;fillable&quot;:true}" stroke="#2a2a3a" stroke-width="1.5"/><path d="M636.65183,408.41067c1.58509,0.51503 5.56838,-1.22 6.14586,-2.73467c0.60703,-1.5922 -1.47059,-6.26087 -3.05569,-6.7759c-1.58509,-0.51503 -6.0101,2.04081 -6.45488,3.68573c-0.42311,1.56483 1.77961,5.30981 3.36471,5.82484z" data-paper-data="{&quot;fillable&quot;:true}" stroke="#2a2a3a" stroke-width="1.5"/><path d="M632.65183,408.41067c0,-2.20914 1.79086,-4 4,-4c2.20914,0 4,1.79086 4,4c0,2.20914 -1.79086,4 -4,4c-2.20914,0 -4,-1.79086 -4,-4z" data-paper-data="{&quot;fillable&quot;:true}" stroke="#2a2a3a" stroke-width="1.5"/><path d="M463.41067,581.65183c0,1.66667 2.88101,4.91885 4.5,5c1.70185,0.08531 5.5,-3.33333 5.5,-5c0,-1.66667 -3.79815,-5.08531 -5.5,-5c-1.61899,0.08115 -4.5,3.33333 -4.5,5z" data-paper-data="{&quot;fillable&quot;:true}" stroke="#2a2a3a" stroke-width="1.5"/><path d="M463.41067,581.65183c-1.58509,0.51503 -3.78782,4.26001 -3.36471,5.82484c0.44477,1.64492 4.86978,4.20075 6.45488,3.68573c1.58509,-0.51503 3.66272,-5.1837 3.05569,-6.7759c-0.57747,-1.51467 -4.56076,-3.2497 -6.14586,-2.73467z" data-paper-data="{&quot;fillable&quot;:true}" stroke="#2a2a3a" stroke-width="1.5"/><path d="M463.41067,581.65183c-0.97964,-1.34836 -5.22201,-2.28602 -6.5795,-1.40005c-1.42697,0.93131 -2.49031,5.92954 -1.51067,7.2779c0.97964,1.34836 6.06183,1.8816 7.38852,0.81227c1.26209,-1.01727 1.68129,-5.34176 0.70165,-6.69012z" data-paper-data="{&quot;fillable&quot;:true}" stroke="#2a2a3a" stroke-width="1.5"/><path d="M463.41067,581.65183c0.97964,-1.34836 0.56044,-5.67285 -0.70165,-6.69012c-1.32669,-1.06934 -6.40888,-0.5361 -7.38852,0.81227c-0.97964,1.34836 0.0837,6.34659 1.51067,7.2779c1.35749,0.88596 5.59986,-0.05169 6.5795,-1.40005z" data-paper-data="{&quot;fillable&quot;:true}" stroke="#2a2a3a" stroke-width="1.5"/><path d="M463.41067,581.65183c1.58509,0.51503 5.56838,-1.22 6.14586,-2.73467c0.60703,-1.5922 -1.47059,-6.26087 -3.05569,-6.7759c-1.58509,-0.51503 -6.0101,2.04081 -6.45488,3.68573c-0.42311,1.56483 1.77961,5.30981 3.36471,5.82484z" data-paper-data="{&quot;fillable&quot;:true}" stroke="#2a2a3a" stroke-width="1.5"/><path d="M459.41067,581.65183c0,-2.20914 1.79086,-4 4,-4c2.20914,0 4,1.79086 4,4c0,2.20914 -1.79086,4 -4,4c-2.20914,0 -4,-1.79086 -4,-4z" data-paper-data="{&quot;fillable&quot;:true}" stroke="#2a2a3a" stroke-width="1.5"/><path d="M226.75884,518.24116c0,1.66667 2.88101,4.91885 4.5,5c1.70185,0.08531 5.5,-3.33333 5.5,-5c0,-1.66667 -3.79815,-5.08531 -5.5,-5c-1.61899,0.08115 -4.5,3.33333 -4.5,5z" data-paper-data="{&quot;fillable&quot;:true}" stroke="#2a2a3a" stroke-width="1.5"/><path d="M226.75884,518.24116c-1.58509,0.51503 -3.78782,4.26001 -3.36471,5.82484c0.44477,1.64492 4.86978,4.20075 6.45488,3.68573c1.58509,-0.51503 3.66272,-5.1837 3.05569,-6.7759c-0.57747,-1.51467 -4.56076,-3.2497 -6.14586,-2.73467z" data-paper-data="{&quot;fillable&quot;:true}" stroke="#2a2a3a" stroke-width="1.5"/><path d="M226.75884,518.24116c-0.97964,-1.34836 -5.22201,-2.28602 -6.5795,-1.40005c-1.42697,0.93131 -2.49031,5.92954 -1.51067,7.2779c0.97964,1.34836 6.06183,1.8816 7.38852,0.81227c1.26209,-1.01727 1.68129,-5.34176 0.70165,-6.69012z" data-paper-data="{&quot;fillable&quot;:true}" stroke="#2a2a3a" stroke-width="1.5"/><path d="M226.75884,518.24116c0.97964,-1.34836 0.56044,-5.67285 -0.70165,-6.69012c-1.32669,-1.06934 -6.40888,-0.5361 -7.38852,0.81227c-0.97964,1.34836 0.0837,6.34659 1.51067,7.2779c1.35749,0.88596 5.59986,-0.05169 6.5795,-1.40005z" data-paper-data="{&quot;fillable&quot;:true}" stroke="#2a2a3a" stroke-width="1.5"/><path d="M226.75884,518.24116c1.58509,0.51503 5.56838,-1.22 6.14586,-2.73467c0.60703,-1.5922 -1.47059,-6.26087 -3.05569,-6.7759c-1.58509,-0.51503 -6.0101,2.04081 -6.45488,3.68573c-0.42311,1.56483 1.77961,5.30981 3.36471,5.82484z" data-paper-data="{&quot;fillable&quot;:true}" stroke="#2a2a3a" stroke-width="1.5"/><path d="M222.75884,518.24116c0,-2.20914 1.79086,-4 4,-4c2.20914,0 4,1.79086 4,4c0,2.20914 -1.79086,4 -4,4c-2.20914,0 -4,-1.79086 -4,-4z" data-paper-data="{&quot;fillable&quot;:true}" stroke="#2a2a3a" stroke-width="1.5"/><path d="M163.34817,281.58933c0,1.66667 2.88101,4.91885 4.5,5c1.70185,0.08531 5.5,-3.33333 5.5,-5c0,-1.66667 -3.79815,-5.08531 -5.5,-5c-1.61899,0.08115 -4.5,3.33333 -4.5,5z" data-paper-data="{&quot;fillable&quot;:true}" stroke="#2a2a3a" stroke-width="1.5"/><path d="M163.34817,281.58933c-1.58509,0.51503 -3.78782,4.26001 -3.36471,5.82484c0.44477,1.64492 4.86978,4.20075 6.45488,3.68573c1.58509,-0.51503 3.66272,-5.1837 3.05569,-6.7759c-0.57747,-1.51467 -4.56076,-3.2497 -6.14586,-2.73467z" data-paper-data="{&quot;fillable&quot;:true}" stroke="#2a2a3a" stroke-width="1.5"/><path d="M163.34817,281.58933c-0.97964,-1.34836 -5.22201,-2.28602 -6.5795,-1.40005c-1.42697,0.93131 -2.49031,5.92954 -1.51067,7.2779c0.97964,1.34836 6.06183,1.8816 7.38852,0.81227c1.26209,-1.01727 1.68129,-5.34176 0.70165,-6.69012z" data-paper-data="{&quot;fillable&quot;:true}" stroke="#2a2a3a" stroke-width="1.5"/><path d="M163.34817,281.58933c0.97964,-1.34836 0.56044,-5.67285 -0.70165,-6.69012c-1.32669,-1.06934 -6.40888,-0.5361 -7.38852,0.81227c-0.97964,1.34836 0.0837,6.34659 1.51067,7.2779c1.35749,0.88596 5.59986,-0.05169 6.5795,-1.40005z" data-paper-data="{&quot;fillable&quot;:true}" stroke="#2a2a3a" stroke-width="1.5"/><path d="M163.34817,281.58933c1.58509,0.51503 5.56838,-1.22 6.14586,-2.73467c0.60703,-1.5922 -1.47059,-6.26087 -3.05569,-6.7759c-1.58509,-0.51503 -6.0101,2.04081 -6.45488,3.68573c-0.42311,1.56483 1.77961,5.30981 3.36471,5.82484z" data-paper-data="{&quot;fillable&quot;:true}" stroke="#2a2a3a" stroke-width="1.5"/><path d="M159.34817,281.58933c0,-2.20914 1.79086,-4 4,-4c2.20914,0 4,1.79086 4,4c0,2.20914 -1.79086,4 -4,4c-2.20914,0 -4,-1.79086 -4,-4z" data-paper-data="{&quot;fillable&quot;:true}" stroke="#2a2a3a" stroke-width="1.5"/><path d="M336.58933,108.34817c0,1.66667 2.88101,4.91885 4.5,5c1.70185,0.08531 5.5,-3.33333 5.5,-5c0,-1.66667 -3.79815,-5.08531 -5.5,-5c-1.61899,0.08115 -4.5,3.33333 -4.5,5z" data-paper-data="{&quot;fillable&quot;:true}" stroke="#2a2a3a" stroke-width="1.5"/><path d="M336.58933,108.34817c-1.58509,0.51503 -3.78782,4.26001 -3.36471,5.82484c0.44477,1.64492 4.86978,4.20075 6.45488,3.68573c1.58509,-0.51503 3.66272,-5.1837 3.05569,-6.7759c-0.57747,-1.51467 -4.56076,-3.2497 -6.14586,-2.73467z" data-paper-data="{&quot;fillable&quot;:true}" stroke="#2a2a3a" stroke-width="1.5"/><path d="M336.58933,108.34817c-0.97964,-1.34836 -5.22201,-2.28602 -6.5795,-1.40005c-1.42697,0.93131 -2.49031,5.92954 -1.51067,7.2779c0.97964,1.34836 6.06183,1.8816 7.38852,0.81227c1.26209,-1.01727 1.68129,-5.34176 0.70165,-6.69012z" data-paper-data="{&quot;fillable&quot;:true}" stroke="#2a2a3a" stroke-width="1.5"/><path d="M336.58933,108.34817c0.97964,-1.34836 0.56044,-5.67285 -0.70165,-6.69012c-1.32669,-1.06934 -6.40888,-0.5361 -7.38852,0.81227c-0.97964,1.34836 0.0837,6.34659 1.51067,7.2779c1.35749,0.88596 5.59986,-0.05169 6.5795,-1.40005z" data-paper-data="{&quot;fillable&quot;:true}" stroke="#2a2a3a" stroke-width="1.5"/><path d="M336.58933,108.34817c1.58509,0.51503 5.56838,-1.22 6.14586,-2.73467c0.60703,-1.5922 -1.47059,-6.26087 -3.05569,-6.7759c-1.58509,-0.51503 -6.0101,2.04081 -6.45488,3.68573c-0.42311,1.56483 1.77961,5.30981 3.36471,5.82484z" data-paper-data="{&quot;fillable&quot;:true}" stroke="#2a2a3a" stroke-width="1.5"/><path d="M332.58933,108.34817c0,-2.20914 1.79086,-4 4,-4c2.20914,0 4,1.79086 4,4c0,2.20914 -1.79086,4 -4,4c-2.20914,0 -4,-1.79086 -4,-4z" data-paper-data="{&quot;fillable&quot;:true}" stroke="#2a2a3a" stroke-width="1.5"/><path d="M573.24116,171.75884c0,1.66667 2.88101,4.91885 4.5,5c1.70185,0.08531 5.5,-3.33333 5.5,-5c0,-1.66667 -3.79815,-5.08531 -5.5,-5c-1.61899,0.08115 -4.5,3.33333 -4.5,5z" data-paper-data="{&quot;fillable&quot;:true}" stroke="#2a2a3a" stroke-width="1.5"/><path d="M573.24116,171.75884c-1.58509,0.51503 -3.78782,4.26001 -3.36471,5.82484c0.44477,1.64492 4.86978,4.20075 6.45488,3.68573c1.58509,-0.51503 3.66272,-5.1837 3.05569,-6.7759c-0.57747,-1.51467 -4.56076,-3.2497 -6.14586,-2.73467z" data-paper-data="{&quot;fillable&quot;:true}" stroke="#2a2a3a" stroke-width="1.5"/><path d="M573.24116,171.75884c-0.97964,-1.34836 -5.22201,-2.28602 -6.5795,-1.40005c-1.42697,0.93131 -2.49031,5.92954 -1.51067,7.2779c0.97964,1.34836 6.06183,1.8816 7.38852,0.81227c1.26209,-1.01727 1.68129,-5.34176 0.70165,-6.69012z" data-paper-data="{&quot;fillable&quot;:true}" stroke="#2a2a3a" stroke-width="1.5"/><path d="M573.24116,171.75884c0.97964,-1.34836 0.56044,-5.67285 -0.70165,-6.69012c-1.32669,-1.06934 -6.40888,-0.5361 -7.38852,0.81227c-0.97964,1.34836 0.0837,6.34659 1.51067,7.2779c1.35749,0.88596 5.59986,-0.05169 6.5795,-1.40005z" data-paper-data="{&quot;fillable&quot;:true}" stroke="#2a2a3a" stroke-width="1.5"/><path d="M573.24116,171.75884c1.58509,0.51503 5.56838,-1.22 6.14586,-2.73467c0.60703,-1.5922 -1.47059,-6.26087 -3.05569,-6.7759c-1.58509,-0.51503 -6.0101,2.04081 -6.45488,3.68573c-0.42311,1.56483 1.77961,5.30981 3.36471,5.82484z" data-paper-data="{&quot;fillable&quot;:true}" stroke="#2a2a3a" stroke-width="1.5"/><path d="M569.24116,171.75884c0,-2.20914 1.79086,-4 4,-4c2.20914,0 4,1.79086 4,4c0,2.20914 -1.79086,4 -4,4c-2.20914,0 -4,-1.79086 -4,-4z" data-paper-data="{&quot;fillable&quot;:true}" stroke="#2a2a3a" stroke-width="1.5"/><path d="M459.4,345l-0.08141,3.10876l-0.24399,3.10023l-0.40591,3.08322l-0.56672,3.05775l-0.72597,3.0239l-0.88324,2.98176l-1.03808,2.93145l-1.19008,2.8731l-1.33881,2.80688l-1.48388,2.73296l-1.62488,2.65156l-1.76142,2.56289l-1.89314,2.46719l-2.01967,2.36473l-2.14066,2.25578l-30.68843,-30.68843l0.57661,-0.60762l0.54402,-0.63696l0.50994,-0.66456l0.47446,-0.69034l0.43768,-0.71422l0.3997,-0.73615l0.36062,-0.75606l0.32056,-0.7739l0.27962,-0.78962l0.23791,-0.80317l0.19555,-0.81452l0.15265,-0.82364l0.10934,-0.8305l0.06572,-0.83508l0.02193,-0.83738z" data-paper-data="{&quot;fillable&quot;:true}" stroke="#2a2a3a" stroke-width="1.5"/><path d="M442.00214,387.00214l-2.25578,2.14066l-2.36473,2.01967l-2.46719,1.89314l-2.56289,1.76142l-2.65156,1.62488l-2.73296,1.48388l-2.80688,1.33881l-2.8731,1.19008l-2.93145,1.03808l-2.98176,0.88324l-3.0239,0.72597l-3.05775,0.56672l-3.08322,0.40591l-3.10023,0.24399l-3.10876,0.08141v-43.4l0.83738,-0.02193l0.83508,-0.06572l0.8305,-0.10934l0.82364,-0.15265l0.81452,-0.19555l0.80317,-0.23791l0.78962,-0.27962l0.7739,-0.32056l0.75606,-0.36062l0.73615,-0.3997l0.71422,-0.43768l0.69034,-0.47446l0.66456,-0.50994l0.63696,-0.54402l0.60762,-0.57661z" data-paper-data="{&quot;fillable&quot;:true}" stroke="#2a2a3a" stroke-width="1.5"/><path d="M400,404.4l-3.10876,-0.08141l-3.10023,-0.24399l-3.08322,-0.40591l-3.05775,-0.56672l-3.0239,-0.72597l-2.98176,-0.88324l-2.93145,-1.03808l-2.8731,-1.19008l-2.80688,-1.33881l-2.73296,-1.48388l-2.65156,-1.62488l-2.56289,-1.76142l-2.46719,-1.89314l-2.36473,-2.01967l-2.25578,-2.14066l30.68843,-30.68843l0.60762,0.57661l0.63696,0.54402l0.66456,0.50994l0.69034,0.47446l0.71422,0.43768l0.73615,0.3997l0.75606,0.36062l0.7739,0.32056l0.78962,0.27962l0.80317,0.23791l0.81452,0.19555l0.82364,0.15265l0.8305,0.10934l0.83508,0.06572l0.83738,0.02193z" data-paper-data="{&quot;fillable&quot;:true}" stroke="#2a2a3a" stroke-width="1.5"/><path d="M357.99786,387.00214l-2.14066,-2.25578l-2.01967,-2.36473l-1.89314,-2.46719l-1.76142,-2.56289l-1.62488,-2.65156l-1.48388,-2.73296l-1.33881,-2.80688l-1.19008,-2.8731l-1.03808,-2.93145l-0.88324,-2.98176l-0.72597,-3.0239l-0.56672,-3.05775l-0.40591,-3.08322l-0.24399,-3.10023l-0.08141,-3.10876h43.4l0.02193,0.83738l0.06572,0.83508l0.10934,0.8305l0.15265,0.82364l0.19555,0.81452l0.23791,0.80317l0.27962,0.78962l0.32056,0.7739l0.36062,0.75606l0.3997,0.73615l0.43768,0.71422l0.47446,0.69034l0.50994,0.66456l0.54402,0.63696l0.57661,0.60762z" data-paper-data="{&quot;fillable&quot;:true}" stroke="#2a2a3a" stroke-width="1.5"/><path d="M340.6,345l0.08141,-3.10876l0.24399,-3.10023l0.40591,-3.08322l0.56672,-3.05775l0.72597,-3.0239l0.88324,-2.98176l1.03808,-2.93145l1.19008,-2.8731l1.33881,-2.80688l1.48388,-2.73296l1.62488,-2.65156l1.76142,-2.56289l1.89314,-2.46719l2.01967,-2.36473l2.14066,-2.25578l30.68843,30.68843l-0.57661,0.60762l-0.54402,0.63696l-0.50994,0.66456l-0.47446,0.69034l-0.43768,0.71422l-0.3997,0.73615l-0.36062,0.75606l-0.32056,0.7739l-0.27962,0.78962l-0.23791,0.80317l-0.19555,0.81452l-0.15265,0.82364l-0.10934,0.8305l-0.06572,0.83508l-0.02193,0.83738z" data-paper-data="{&quot;fillable&quot;:true}" stroke="#2a2a3a" stroke-width="1.5"/><path d="M357.99786,302.99786l2.25578,-2.14066l2.36473,-2.01967l2.46719,-1.89314l2.56289,-1.76142l2.65156,-1.62488l2.73296,-1.48388l2.80688,-1.33881l2.8731,-1.19008l2.93145,-1.03808l2.98176,-0.88324l3.0239,-0.72597l3.05775,-0.56672l3.08322,-0.40591l3.10023,-0.24399l3.10876,-0.08141v43.4l-0.83738,0.02193l-0.83508,0.06572l-0.8305,0.10934l-0.82364,0.15265l-0.81452,0.19555l-0.80317,0.23791l-0.78962,0.27962l-0.7739,0.32056l-0.75606,0.36062l-0.73615,0.3997l-0.71422,0.43768l-0.69034,0.47446l-0.66456,0.50994l-0.63696,0.54402l-0.60762,0.57661z" data-paper-data="{&quot;fillable&quot;:true}" stroke="#2a2a3a" stroke-width="1.5"/><path d="M400,285.6l3.10876,0.08141l3.10023,0.24399l3.08322,0.40591l3.05775,0.56672l3.0239,0.72597l2.98176,0.88324l2.93145,1.03808l2.8731,1.19008l2.80688,1.33881l2.73296,1.48388l2.65156,1.62488l2.56289,1.76142l2.46719,1.89314l2.36473,2.01967l2.25578,2.14066l-30.68843,30.68843l-0.60762,-0.57661l-0.63696,-0.54402l-0.66456,-0.50994l-0.69034,-0.47446l-0.71422,-0.43768l-0.73615,-0.3997l-0.75606,-0.36062l-0.7739,-0.32056l-0.78962,-0.27962l-0.80317,-0.23791l-0.81452,-0.19555l-0.82364,-0.15265l-0.8305,-0.10934l-0.83508,-0.06572l-0.83738,-0.02193z" data-paper-data="{&quot;fillable&quot;:true}" stroke="#2a2a3a" stroke-width="1.5"/><path d="M442.00214,302.99786l2.14066,2.25578l2.01967,2.36473l1.89314,2.46719l1.76142,2.56289l1.62488,2.65156l1.48388,2.73296l1.33881,2.80688l1.19008,2.8731l1.03808,2.93145l0.88324,2.98176l0.72597,3.0239l0.56672,3.05775l0.40591,3.08322l0.24399,3.10023l0.08141,3.10876h-43.4l-0.02193,-0.83738l-0.06572,-0.83508l-0.10934,-0.8305l-0.15265,-0.82364l-0.19555,-0.81452l-0.23791,-0.80317l-0.27962,-0.78962l-0.32056,-0.7739l-0.36062,-0.75606l-0.3997,-0.73615l-0.43768,-0.71422l-0.47446,-0.69034l-0.50994,-0.66456l-0.54402,-0.63696l-0.57661,-0.60762z" data-paper-data="{&quot;fillable&quot;:true}" stroke="#2a2a3a" stroke-width="1.5"/><path d="M454.4,345c0,-2.76142 2.23858,-5 5,-5c2.76142,0 5,2.23858 5,5c0,2.76142 -2.23858,5 -5,5c-2.76142,0 -5,-2.23858 -5,-5z" data-paper-data="{&quot;fillable&quot;:true}" stroke="#2a2a3a" stroke-width="1.5"/><path d="M437.00214,387.00214c0,-2.76142 2.23858,-5 5,-5c2.76142,0 5,2.23858 5,5c0,2.76142 -2.23858,5 -5,5c-2.76142,0 -5,-2.23858 -5,-5z" data-paper-data="{&quot;fillable&quot;:true}" stroke="#2a2a3a" stroke-width="1.5"/><path d="M395,404.4c0,-2.76142 2.23858,-5 5,-5c2.76142,0 5,2.23858 5,5c0,2.76142 -2.23858,5 -5,5c-2.76142,0 -5,-2.23858 -5,-5z" data-paper-data="{&quot;fillable&quot;:true}" stroke="#2a2a3a" stroke-width="1.5"/><path d="M352.99786,387.00214c0,-2.76142 2.23858,-5 5,-5c2.76142,0 5,2.23858 5,5c0,2.76142 -2.23858,5 -5,5c-2.76142,0 -5,-2.23858 -5,-5z" data-paper-data="{&quot;fillable&quot;:true}" stroke="#2a2a3a" stroke-width="1.5"/><path d="M335.6,345c0,-2.76142 2.23858,-5 5,-5c2.76142,0 5,2.23858 5,5c0,2.76142 -2.23858,5 -5,5c-2.76142,0 -5,-2.23858 -5,-5z" data-paper-data="{&quot;fillable&quot;:true}" stroke="#2a2a3a" stroke-width="1.5"/><path d="M352.99786,302.99786c0,-2.76142 2.23858,-5 5,-5c2.76142,0 5,2.23858 5,5c0,2.76142 -2.23858,5 -5,5c-2.76142,0 -5,-2.23858 -5,-5z" data-paper-data="{&quot;fillable&quot;:true}" stroke="#2a2a3a" stroke-width="1.5"/><path d="M395,285.6c0,-2.76142 2.23858,-5 5,-5c2.76142,0 5,2.23858 5,5c0,2.76142 -2.23858,5 -5,5c-2.76142,0 -5,-2.23858 -5,-5z" data-paper-data="{&quot;fillable&quot;:true}" stroke="#2a2a3a" stroke-width="1.5"/><path d="M437.00214,302.99786c0,-2.76142 2.23858,-5 5,-5c2.76142,0 5,2.23858 5,5c0,2.76142 -2.23858,5 -5,5c-2.76142,0 -5,-2.23858 -5,-5z" data-paper-data="{&quot;fillable&quot;:true}" stroke="#2a2a3a" stroke-width="1.5"/><path d="M502.8,345l-0.14088,5.38014l-0.42227,5.36539l-0.70249,5.33594l-0.98079,5.29186l-1.2564,5.23328l-1.52857,5.16035l-1.79654,5.07328l-2.05959,4.9723l-2.317,4.8577l-2.56806,4.72978l-2.81208,4.58889l-3.04839,4.43543l-3.27634,4.26981l-3.49532,4.09249l-3.70471,3.90395l-30.68843,-30.68843l2.14066,-2.25578l2.01967,-2.36473l1.89314,-2.46719l1.76142,-2.56289l1.62488,-2.65156l1.48388,-2.73296l1.33881,-2.80688l1.19008,-2.8731l1.03808,-2.93145l0.88324,-2.98176l0.72597,-3.0239l0.56672,-3.05775l0.40591,-3.08322l0.24399,-3.10023l0.08141,-3.10876z" data-paper-data="{&quot;fillable&quot;:true}" stroke="#2a2a3a" stroke-width="1.5"/><path d="M472.69058,417.69058l-3.90395,3.70471l-4.09249,3.49532l-4.26981,3.27634l-4.43543,3.04839l-4.58889,2.81208l-4.72978,2.56806l-4.8577,2.317l-4.9723,2.05959l-5.07328,1.79654l-5.16035,1.52857l-5.23328,1.2564l-5.29186,0.98079l-5.33594,0.70249l-5.36539,0.42227l-5.38014,0.14088v-43.4l3.10876,-0.08141l3.10023,-0.24399l3.08322,-0.40591l3.05775,-0.56672l3.0239,-0.72597l2.98176,-0.88324l2.93145,-1.03808l2.8731,-1.19008l2.80688,-1.33881l2.73296,-1.48388l2.65156,-1.62488l2.56289,-1.76142l2.46719,-1.89314l2.36473,-2.01967l2.25578,-2.14066z" data-paper-data="{&quot;fillable&quot;:true}" stroke="#2a2a3a" stroke-width="1.5"/><path d="M400,447.8l-5.38014,-0.14088l-5.36539,-0.42227l-5.33594,-0.70249l-5.29186,-0.98079l-5.23328,-1.2564l-5.16035,-1.52857l-5.07328,-1.79654l-4.9723,-2.05959l-4.8577,-2.317l-4.72978,-2.56806l-4.58889,-2.81208l-4.43543,-3.04839l-4.26981,-3.27634l-4.09249,-3.49532l-3.90395,-3.70471l30.68843,-30.68843l2.25578,2.14066l2.36473,2.01967l2.46719,1.89314l2.56289,1.76142l2.65156,1.62488l2.73296,1.48388l2.80688,1.33881l2.8731,1.19008l2.93145,1.03808l2.98176,0.88324l3.0239,0.72597l3.05775,0.56672l3.08322,0.40591l3.10023,0.24399l3.10876,0.08141z" data-paper-data="{&quot;fillable&quot;:true}" stroke="#2a2a3a" stroke-width="1.5"/><path d="M327.30942,417.69058l-3.70471,-3.90395l-3.49532,-4.09249l-3.27634,-4.26981l-3.04839,-4.43543l-2.81208,-4.58889l-2.56806,-4.72978l-2.317,-4.8577l-2.05959,-4.9723l-1.79654,-5.07328l-1.52857,-5.16035l-1.2564,-5.23328l-0.98079,-5.29186l-0.70249,-5.33594l-0.42227,-5.36539l-0.14088,-5.38014h43.4l0.08141,3.10876l0.24399,3.10023l0.40591,3.08322l0.56672,3.05775l0.72597,3.0239l0.88324,2.98176l1.03808,2.93145l1.19008,2.8731l1.33881,2.80688l1.48388,2.73296l1.62488,2.65156l1.76142,2.56289l1.89314,2.46719l2.01967,2.36473l2.14066,2.25578z" data-paper-data="{&quot;fillable&quot;:true}" stroke="#2a2a3a" stroke-width="1.5"/><path d="M297.2,345l0.14088,-5.38014l0.42227,-5.36539l0.70249,-5.33594l0.98079,-5.29186l1.2564,-5.23328l1.52857,-5.16035l1.79654,-5.07328l2.05959,-4.9723l2.317,-4.8577l2.56806,-4.72978l2.81208,-4.58889l3.04839,-4.43543l3.27634,-4.26981l3.49532,-4.09249l3.70471,-3.90395l30.68843,30.68843l-2.14066,2.25578l-2.01967,2.36473l-1.89314,2.46719l-1.76142,2.56289l-1.62488,2.65156l-1.48388,2.73296l-1.33881,2.80688l-1.19008,2.8731l-1.03808,2.93145l-0.88324,2.98176l-0.72597,3.0239l-0.56672,3.05775l-0.40591,3.08322l-0.24399,3.10023l-0.08141,3.10876z" data-paper-data="{&quot;fillable&quot;:true}" stroke="#2a2a3a" stroke-width="1.5"/><path d="M327.30942,272.30942l3.90395,-3.70471l4.09249,-3.49532l4.26981,-3.27634l4.43543,-3.04839l4.58889,-2.81208l4.72978,-2.56806l4.8577,-2.317l4.9723,-2.05959l5.07328,-1.79654l5.16035,-1.52857l5.23328,-1.2564l5.29186,-0.98079l5.33594,-0.70249l5.36539,-0.42227l5.38014,-0.14088v43.4l-3.10876,0.08141l-3.10023,0.24399l-3.08322,0.40591l-3.05775,0.56672l-3.0239,0.72597l-2.98176,0.88324l-2.93145,1.03808l-2.8731,1.19008l-2.80688,1.33881l-2.73296,1.48388l-2.65156,1.62488l-2.56289,1.76142l-2.46719,1.89314l-2.36473,2.01967l-2.25578,2.14066z" data-paper-data="{&quot;fillable&quot;:true}" stroke="#2a2a3a" stroke-width="1.5"/><path d="M400,242.2l5.38014,0.14088l5.36539,0.42227l5.33594,0.70249l5.29186,0.98079l5.23328,1.2564l5.16035,1.52857l5.07328,1.79654l4.9723,2.05959l4.8577,2.317l4.72978,2.56806l4.58889,2.81208l4.43543,3.04839l4.26981,3.27634l4.09249,3.49532l3.90395,3.70471l-30.68843,30.68843l-2.25578,-2.14066l-2.36473,-2.01967l-2.46719,-1.89314l-2.56289,-1.76142l-2.65156,-1.62488l-2.73296,-1.48388l-2.80688,-1.33881l-2.8731,-1.19008l-2.93145,-1.03808l-2.98176,-0.88324l-3.0239,-0.72597l-3.05775,-0.56672l-3.08322,-0.40591l-3.10023,-0.24399l-3.10876,-0.08141z" data-paper-data="{&quot;fillable&quot;:true}" stroke="#2a2a3a" stroke-width="1.5"/><path d="M472.69058,272.30942l3.70471,3.90395l3.49532,4.09249l3.27634,4.26981l3.04839,4.43543l2.81208,4.58889l2.56806,4.72978l2.317,4.8577l2.05959,4.9723l1.79654,5.07328l1.52857,5.16035l1.2564,5.23328l0.98079,5.29186l0.70249,5.33594l0.42227,5.36539l0.14088,5.38014h-43.4l-0.08141,-3.10876l-0.24399,-3.10023l-0.40591,-3.08322l-0.56672,-3.05775l-0.72597,-3.0239l-0.88324,-2.98176l-1.03808,-2.93145l-1.19008,-2.8731l-1.33881,-2.80688l-1.48388,-2.73296l-1.62488,-2.65156l-1.76142,-2.56289l-1.89314,-2.46719l-2.01967,-2.36473l-2.14066,-2.25578z" data-paper-data="{&quot;fillable&quot;:true}" stroke="#2a2a3a" stroke-width="1.5"/><path d="M497.8,345c0,-2.76142 2.23858,-5 5,-5c2.76142,0 5,2.23858 5,5c0,2.76142 -2.23858,5 -5,5c-2.76142,0 -5,-2.23858 -5,-5z" data-paper-data="{&quot;fillable&quot;:true}" stroke="#2a2a3a" stroke-width="1.5"/><path d="M467.69058,417.69058c0,-2.76142 2.23858,-5 5,-5c2.76142,0 5,2.23858 5,5c0,2.76142 -2.23858,5 -5,5c-2.76142,0 -5,-2.23858 -5,-5z" data-paper-data="{&quot;fillable&quot;:true}" stroke="#2a2a3a" stroke-width="1.5"/><path d="M395,447.8c0,-2.76142 2.23858,-5 5,-5c2.76142,0 5,2.23858 5,5c0,2.76142 -2.23858,5 -5,5c-2.76142,0 -5,-2.23858 -5,-5z" data-paper-data="{&quot;fillable&quot;:true}" stroke="#2a2a3a" stroke-width="1.5"/><path d="M322.30942,417.69058c0,-2.76142 2.23858,-5 5,-5c2.76142,0 5,2.23858 5,5c0,2.76142 -2.23858,5 -5,5c-2.76142,0 -5,-2.23858 -5,-5z" data-paper-data="{&quot;fillable&quot;:true}" stroke="#2a2a3a" stroke-width="1.5"/><path d="M292.2,345c0,-2.76142 2.23858,-5 5,-5c2.76142,0 5,2.23858 5,5c0,2.76142 -2.23858,5 -5,5c-2.76142,0 -5,-2.23858 -5,-5z" data-paper-data="{&quot;fillable&quot;:true}" stroke="#2a2a3a" stroke-width="1.5"/><path d="M322.30942,272.30942c0,-2.76142 2.23858,-5 5,-5c2.76142,0 5,2.23858 5,5c0,2.76142 -2.23858,5 -5,5c-2.76142,0 -5,-2.23858 -5,-5z" data-paper-data="{&quot;fillable&quot;:true}" stroke="#2a2a3a" stroke-width="1.5"/><path d="M395,242.2c0,-2.76142 2.23858,-5 5,-5c2.76142,0 5,2.23858 5,5c0,2.76142 -2.23858,5 -5,5c-2.76142,0 -5,-2.23858 -5,-5z" data-paper-data="{&quot;fillable&quot;:true}" stroke="#2a2a3a" stroke-width="1.5"/><path d="M467.69058,272.30942c0,-2.76142 2.23858,-5 5,-5c2.76142,0 5,2.23858 5,5c0,2.76142 -2.23858,5 -5,5c-2.76142,0 -5,-2.23858 -5,-5z" data-paper-data="{&quot;fillable&quot;:true}" stroke="#2a2a3a" stroke-width="1.5"/><path d="M546.2,345l-0.20036,7.65152l-0.60054,7.63054l-0.99907,7.58866l-1.39486,7.52597l-1.78682,7.44266l-2.17389,7.33894l-2.555,7.21511l-2.92911,7.0715l-3.29519,6.90851l-3.65224,6.72659l-3.99928,6.52623l-4.33535,6.30798l-4.65955,6.07244l-4.97097,5.82025l-5.26876,5.55212l-30.68843,-30.68843l3.70471,-3.90395l3.49532,-4.09249l3.27634,-4.26981l3.04839,-4.43543l2.81208,-4.58889l2.56806,-4.72978l2.317,-4.8577l2.05959,-4.9723l1.79654,-5.07328l1.52857,-5.16035l1.2564,-5.23328l0.98079,-5.29186l0.70249,-5.33594l0.42227,-5.36539l0.14088,-5.38014z" data-paper-data="{&quot;fillable&quot;:true}" stroke="#2a2a3a" stroke-width="1.5"/><path d="M503.37901,448.37901l-5.55212,5.26876l-5.82025,4.97097l-6.07244,4.65955l-6.30798,4.33535l-6.52623,3.99928l-6.72659,3.65224l-6.90851,3.29519l-7.0715,2.92911l-7.21511,2.555l-7.33894,2.17389l-7.44266,1.78682l-7.52597,1.39486l-7.58866,0.99907l-7.63054,0.60054l-7.65152,0.20036v-43.4l5.38014,-0.14088l5.36539,-0.42227l5.33594,-0.70249l5.29186,-0.98079l5.23328,-1.2564l5.16035,-1.52857l5.07328,-1.79654l4.9723,-2.05959l4.8577,-2.317l4.72978,-2.56806l4.58889,-2.81208l4.43543,-3.04839l4.26981,-3.27634l4.09249,-3.49532l3.90395,-3.70471z" data-paper-data="{&quot;fillable&quot;:true}" stroke="#2a2a3a" stroke-width="1.5"/><path d="M400,491.2l-7.65152,-0.20036l-7.63054,-0.60054l-7.58866,-0.99907l-7.52597,-1.39486l-7.44266,-1.78682l-7.33894,-2.17389l-7.21511,-2.555l-7.0715,-2.92911l-6.90851,-3.29519l-6.72659,-3.65224l-6.52623,-3.99928l-6.30798,-4.33535l-6.07244,-4.65955l-5.82025,-4.97097l-5.55212,-5.26876l30.68843,-30.68843l3.90395,3.70471l4.09249,3.49532l4.26981,3.27634l4.43543,3.04839l4.58889,2.81208l4.72978,2.56806l4.8577,2.317l4.9723,2.05959l5.07328,1.79654l5.16035,1.52857l5.23328,1.2564l5.29186,0.98079l5.33594,0.70249l5.36539,0.42227l5.38014,0.14088z" data-paper-data="{&quot;fillable&quot;:true}" stroke="#2a2a3a" stroke-width="1.5"/><path d="M296.62099,448.37901l-5.26876,-5.55212l-4.97097,-5.82025l-4.65955,-6.07244l-4.33535,-6.30798l-3.99928,-6.52623l-3.65224,-6.72659l-3.29519,-6.90851l-2.92911,-7.0715l-2.555,-7.21511l-2.17389,-7.33894l-1.78682,-7.44266l-1.39486,-7.52597l-0.99907,-7.58866l-0.60054,-7.63054l-0.20036,-7.65152h43.4l0.14088,5.38014l0.42227,5.36539l0.70249,5.33594l0.98079,5.29186l1.2564,5.23328l1.52857,5.16035l1.79654,5.07328l2.05959,4.9723l2.317,4.8577l2.56806,4.72978l2.81208,4.58889l3.04839,4.43543l3.27634,4.26981l3.49532,4.09249l3.70471,3.90395z" data-paper-data="{&quot;fillable&quot;:true}" stroke="#2a2a3a" stroke-width="1.5"/><path d="M253.8,345l0.20036,-7.65152l0.60054,-7.63054l0.99907,-7.58866l1.39486,-7.52597l1.78682,-7.44266l2.17389,-7.33894l2.555,-7.21511l2.92911,-7.0715l3.29519,-6.90851l3.65224,-6.72659l3.99928,-6.52623l4.33535,-6.30798l4.65955,-6.07244l4.97097,-5.82025l5.26876,-5.55212l30.68843,30.68843l-3.70471,3.90395l-3.49532,4.09249l-3.27634,4.26981l-3.04839,4.43543l-2.81208,4.58889l-2.56806,4.72978l-2.317,4.8577l-2.05959,4.9723l-1.79654,5.07328l-1.52857,5.16035l-1.2564,5.23328l-0.98079,5.29186l-0.70249,5.33594l-0.42227,5.36539l-0.14088,5.38014z" data-paper-data="{&quot;fillable&quot;:true}" stroke="#2a2a3a" stroke-width="1.5"/><path d="M296.62099,241.62099l5.55212,-5.26876l5.82025,-4.97097l6.07244,-4.65955l6.30798,-4.33535l6.52623,-3.99928l6.72659,-3.65224l6.90851,-3.29519l7.0715,-2.92911l7.21511,-2.555l7.33894,-2.17389l7.44266,-1.78682l7.52597,-1.39486l7.58866,-0.99907l7.63054,-0.60054l7.65152,-0.20036v43.4l-5.38014,0.14088l-5.36539,0.42227l-5.33594,0.70249l-5.29186,0.98079l-5.23328,1.2564l-5.16035,1.52857l-5.07328,1.79654l-4.9723,2.05959l-4.8577,2.317l-4.72978,2.56806l-4.58889,2.81208l-4.43543,3.04839l-4.26981,3.27634l-4.09249,3.49532l-3.90395,3.70471z" data-paper-data="{&quot;fillable&quot;:true}" stroke="#2a2a3a" stroke-width="1.5"/><path d="M400,198.8l7.65152,0.20036l7.63054,0.60054l7.58866,0.99907l7.52597,1.39486l7.44266,1.78682l7.33894,2.17389l7.21511,2.555l7.0715,2.92911l6.90851,3.29519l6.72659,3.65224l6.52623,3.99928l6.30798,4.33535l6.07244,4.65955l5.82025,4.97097l5.55212,5.26876l-30.68843,30.68843l-3.90395,-3.70471l-4.09249,-3.49532l-4.26981,-3.27634l-4.43543,-3.04839l-4.58889,-2.81208l-4.72978,-2.56806l-4.8577,-2.317l-4.9723,-2.05959l-5.07328,-1.79654l-5.16035,-1.52857l-5.23328,-1.2564l-5.29186,-0.98079l-5.33594,-0.70249l-5.36539,-0.42227l-5.38014,-0.14088z" data-paper-data="{&quot;fillable&quot;:true}" stroke="#2a2a3a" stroke-width="1.5"/><path d="M503.37901,241.62099l5.26876,5.55212l4.97097,5.82025l4.65955,6.07244l4.33535,6.30798l3.99928,6.52623l3.65224,6.72659l3.29519,6.90851l2.92911,7.0715l2.555,7.21511l2.17389,7.33894l1.78682,7.44266l1.39486,7.52597l0.99907,7.58866l0.60054,7.63054l0.20036,7.65152l-43.4,0l-0.14088,-5.38014l-0.42227,-5.36539l-0.70249,-5.33594l-0.98079,-5.29186l-1.2564,-5.23328l-1.52857,-5.16035l-1.79654,-5.07328l-2.05959,-4.9723l-2.317,-4.8577l-2.56806,-4.72978l-2.81208,-4.58889l-3.04839,-4.43543l-3.27634,-4.26981l-3.49532,-4.09249l-3.70471,-3.90395z" data-paper-data="{&quot;fillable&quot;:true}" stroke="#2a2a3a" stroke-width="1.5"/><path d="M541.2,345c0,-2.76142 2.23858,-5 5,-5c2.76142,0 5,2.23858 5,5c0,2.76142 -2.23858,5 -5,5c-2.76142,0 -5,-2.23858 -5,-5z" data-paper-data="{&quot;fillable&quot;:true}" stroke="#2a2a3a" stroke-width="1.5"/><path d="M498.37901,448.37901c0,-2.76142 2.23858,-5 5,-5c2.76142,0 5,2.23858 5,5c0,2.76142 -2.23858,5 -5,5c-2.76142,0 -5,-2.23858 -5,-5z" data-paper-data="{&quot;fillable&quot;:true}" stroke="#2a2a3a" stroke-width="1.5"/><path d="M395,491.2c0,-2.76142 2.23858,-5 5,-5c2.76142,0 5,2.23858 5,5c0,2.76142 -2.23858,5 -5,5c-2.76142,0 -5,-2.23858 -5,-5z" data-paper-data="{&quot;fillable&quot;:true}" stroke="#2a2a3a" stroke-width="1.5"/><path d="M291.62099,448.37901c0,-2.76142 2.23858,-5 5,-5c2.76142,0 5,2.23858 5,5c0,2.76142 -2.23858,5 -5,5c-2.76142,0 -5,-2.23858 -5,-5z" data-paper-data="{&quot;fillable&quot;:true}" stroke="#2a2a3a" stroke-width="1.5"/><path d="M248.8,345c0,-2.76142 2.23858,-5 5,-5c2.76142,0 5,2.23858 5,5c0,2.76142 -2.23858,5 -5,5c-2.76142,0 -5,-2.23858 -5,-5z" data-paper-data="{&quot;fillable&quot;:true}" stroke="#2a2a3a" stroke-width="1.5"/><path d="M291.62099,241.62099c0,-2.76142 2.23858,-5 5,-5c2.76142,0 5,2.23858 5,5c0,2.76142 -2.23858,5 -5,5c-2.76142,0 -5,-2.23858 -5,-5z" data-paper-data="{&quot;fillable&quot;:true}" stroke="#2a2a3a" stroke-width="1.5"/><path d="M395,198.8c0,-2.76142 2.23858,-5 5,-5c2.76142,0 5,2.23858 5,5c0,2.76142 -2.23858,5 -5,5c-2.76142,0 -5,-2.23858 -5,-5z" data-paper-data="{&quot;fillable&quot;:true}" stroke="#2a2a3a" stroke-width="1.5"/><path d="M498.37901,241.62099c0,-2.76142 2.23858,-5 5,-5c2.76142,0 5,2.23858 5,5c0,2.76142 -2.23858,5 -5,5c-2.76142,0 -5,-2.23858 -5,-5z" data-paper-data="{&quot;fillable&quot;:true}" stroke="#2a2a3a" stroke-width="1.5"/><path d="M589.6,345l-0.25984,9.9229l-0.77881,9.8957l-1.29564,9.84138l-1.80892,9.76008l-2.31725,9.65203l-2.81922,9.51753l-3.31347,9.35694l-3.79863,9.1707l-4.27338,8.95933l-4.73642,8.7234l-5.18648,8.46356l-5.62232,8.18052l-6.04275,7.87506l-6.44662,7.54802l-6.83281,7.20028l-30.68843,-30.68843l5.26876,-5.55212l4.97097,-5.82025l4.65955,-6.07244l4.33535,-6.30798l3.99928,-6.52623l3.65224,-6.72659l3.29519,-6.90851l2.92911,-7.0715l2.555,-7.21511l2.17389,-7.33894l1.78682,-7.44266l1.39486,-7.52597l0.99907,-7.58866l0.60054,-7.63054l0.20036,-7.65152z" data-paper-data="{&quot;fillable&quot;:true}" stroke="#2a2a3a" stroke-width="1.5"/><path d="M534.06745,479.06745l-7.20028,6.83281l-7.54802,6.44662l-7.87506,6.04275l-8.18052,5.62232l-8.46356,5.18648l-8.7234,4.73642l-8.95933,4.27338l-9.1707,3.79863l-9.35694,3.31347l-9.51753,2.81922l-9.65203,2.31725l-9.76008,1.80892l-9.84138,1.29564l-9.8957,0.77881l-9.9229,0.25984v-43.4l7.65152,-0.20036l7.63054,-0.60054l7.58866,-0.99907l7.52597,-1.39486l7.44266,-1.78682l7.33894,-2.17389l7.21511,-2.555l7.0715,-2.92911l6.90851,-3.29519l6.72659,-3.65224l6.52623,-3.99928l6.30798,-4.33535l6.07244,-4.65955l5.82025,-4.97097l5.55212,-5.26876z" data-paper-data="{&quot;fillable&quot;:true}" stroke="#2a2a3a" stroke-width="1.5"/><path d="M400,534.6l-9.9229,-0.25984l-9.8957,-0.77881l-9.84138,-1.29564l-9.76008,-1.80892l-9.65203,-2.31725l-9.51753,-2.81922l-9.35694,-3.31347l-9.1707,-3.79863l-8.95933,-4.27338l-8.7234,-4.73642l-8.46356,-5.18648l-8.18052,-5.62232l-7.87506,-6.04275l-7.54802,-6.44662l-7.20028,-6.83281l30.68843,-30.68843l5.55212,5.26876l5.82025,4.97097l6.07244,4.65955l6.30798,4.33535l6.52623,3.99928l6.72659,3.65224l6.90851,3.29519l7.0715,2.92911l7.21511,2.555l7.33894,2.17389l7.44266,1.78682l7.52597,1.39486l7.58866,0.99907l7.63054,0.60054l7.65152,0.20036z" data-paper-data="{&quot;fillable&quot;:true}" stroke="#2a2a3a" stroke-width="1.5"/><path d="M265.93255,479.06745l-6.83281,-7.20028l-6.44662,-7.54802l-6.04275,-7.87506l-5.62232,-8.18052l-5.18648,-8.46356l-4.73642,-8.7234l-4.27338,-8.95933l-3.79863,-9.1707l-3.31347,-9.35694l-2.81922,-9.51753l-2.31725,-9.65203l-1.80892,-9.76008l-1.29564,-9.84138l-0.77881,-9.8957l-0.25984,-9.9229h43.4l0.20036,7.65152l0.60054,7.63054l0.99907,7.58866l1.39486,7.52597l1.78682,7.44266l2.17389,7.33894l2.555,7.21511l2.92911,7.0715l3.29519,6.90851l3.65224,6.72659l3.99928,6.52623l4.33535,6.30798l4.65955,6.07244l4.97097,5.82025l5.26876,5.55212z" data-paper-data="{&quot;fillable&quot;:true}" stroke="#2a2a3a" stroke-width="1.5"/><path d="M210.4,345l0.25984,-9.9229l0.77881,-9.8957l1.29564,-9.84138l1.80892,-9.76008l2.31725,-9.65203l2.81922,-9.51753l3.31347,-9.35694l3.79863,-9.1707l4.27338,-8.95933l4.73642,-8.7234l5.18648,-8.46356l5.62232,-8.18052l6.04275,-7.87506l6.44662,-7.54802l6.83281,-7.20028l30.68843,30.68843l-5.26876,5.55212l-4.97097,5.82025l-4.65955,6.07244l-4.33535,6.30798l-3.99928,6.52623l-3.65224,6.72659l-3.29519,6.90851l-2.92911,7.0715l-2.555,7.21511l-2.17389,7.33894l-1.78682,7.44266l-1.39486,7.52597l-0.99907,7.58866l-0.60054,7.63054l-0.20036,7.65152z" data-paper-data="{&quot;fillable&quot;:true}" stroke="#2a2a3a" stroke-width="1.5"/><path d="M265.93255,210.93255l7.20028,-6.83281l7.54802,-6.44662l7.87506,-6.04275l8.18052,-5.62232l8.46356,-5.18648l8.7234,-4.73642l8.95933,-4.27338l9.1707,-3.79863l9.35694,-3.31347l9.51753,-2.81922l9.65203,-2.31725l9.76008,-1.80892l9.84138,-1.29564l9.8957,-0.77881l9.9229,-0.25984l0,43.4l-7.65152,0.20036l-7.63054,0.60054l-7.58866,0.99907l-7.52597,1.39486l-7.44266,1.78682l-7.33894,2.17389l-7.21511,2.555l-7.0715,2.92911l-6.90851,3.29519l-6.72659,3.65224l-6.52623,3.99928l-6.30798,4.33535l-6.07244,4.65955l-5.82025,4.97097l-5.55212,5.26876z" data-paper-data="{&quot;fillable&quot;:true}" stroke="#2a2a3a" stroke-width="1.5"/><path d="M400,155.4l9.9229,0.25984l9.8957,0.77881l9.84138,1.29564l9.76008,1.80892l9.65203,2.31725l9.51753,2.81922l9.35694,3.31347l9.1707,3.79863l8.95933,4.27338l8.7234,4.73642l8.46356,5.18648l8.18052,5.62232l7.87506,6.04275l7.54802,6.44662l7.20028,6.83281l-30.68843,30.68843l-5.55212,-5.26876l-5.82025,-4.97097l-6.07244,-4.65955l-6.30798,-4.33535l-6.52623,-3.99928l-6.72659,-3.65224l-6.90851,-3.29519l-7.0715,-2.92911l-7.21511,-2.555l-7.33894,-2.17389l-7.44266,-1.78682l-7.52597,-1.39486l-7.58866,-0.99907l-7.63054,-0.60054l-7.65152,-0.20036z" data-paper-data="{&quot;fillable&quot;:true}" stroke="#2a2a3a" stroke-width="1.5"/><path d="M534.06745,210.93255l6.83281,7.20028l6.44662,7.54802l6.04275,7.87506l5.62232,8.18052l5.18648,8.46356l4.73642,8.7234l4.27338,8.95933l3.79863,9.1707l3.31347,9.35694l2.81922,9.51753l2.31725,9.65203l1.80892,9.76008l1.29564,9.84138l0.77881,9.8957l0.25984,9.9229h-43.4l-0.20036,-7.65152l-0.60054,-7.63054l-0.99907,-7.58866l-1.39486,-7.52597l-1.78682,-7.44266l-2.17389,-7.33894l-2.555,-7.21511l-2.92911,-7.0715l-3.29519,-6.90851l-3.65224,-6.72659l-3.99928,-6.52623l-4.33535,-6.30798l-4.65955,-6.07244l-4.97097,-5.82025l-5.26876,-5.55212z" data-paper-data="{&quot;fillable&quot;:true}" stroke="#2a2a3a" stroke-width="1.5"/><path d="M584.6,345c0,-2.76142 2.23858,-5 5,-5c2.76142,0 5,2.23858 5,5c0,2.76142 -2.23858,5 -5,5c-2.76142,0 -5,-2.23858 -5,-5z" data-paper-data="{&quot;fillable&quot;:true}" stroke="#2a2a3a" stroke-width="1.5"/><path d="M529.06745,479.06745c0,-2.76142 2.23858,-5 5,-5c2.76142,0 5,2.23858 5,5c0,2.76142 -2.23858,5 -5,5c-2.76142,0 -5,-2.23858 -5,-5z" data-paper-data="{&quot;fillable&quot;:true}" stroke="#2a2a3a" stroke-width="1.5"/><path d="M395,534.6c0,-2.76142 2.23858,-5 5,-5c2.76142,0 5,2.23858 5,5c0,2.76142 -2.23858,5 -5,5c-2.76142,0 -5,-2.23858 -5,-5z" data-paper-data="{&quot;fillable&quot;:true}" stroke="#2a2a3a" stroke-width="1.5"/><path d="M260.93255,479.06745c0,-2.76142 2.23858,-5 5,-5c2.76142,0 5,2.23858 5,5c0,2.76142 -2.23858,5 -5,5c-2.76142,0 -5,-2.23858 -5,-5z" data-paper-data="{&quot;fillable&quot;:true}" stroke="#2a2a3a" stroke-width="1.5"/><path d="M205.4,345c0,-2.76142 2.23858,-5 5,-5c2.76142,0 5,2.23858 5,5c0,2.76142 -2.23858,5 -5,5c-2.76142,0 -5,-2.23858 -5,-5z" data-paper-data="{&quot;fillable&quot;:true}" stroke="#2a2a3a" stroke-width="1.5"/><path d="M260.93255,210.93255c0,-2.76142 2.23858,-5 5,-5c2.76142,0 5,2.23858 5,5c0,2.76142 -2.23858,5 -5,5c-2.76142,0 -5,-2.23858 -5,-5z" data-paper-data="{&quot;fillable&quot;:true}" stroke="#2a2a3a" stroke-width="1.5"/><path d="M395,155.4c0,-2.76142 2.23858,-5 5,-5c2.76142,0 5,2.23858 5,5c0,2.76142 -2.23858,5 -5,5c-2.76142,0 -5,-2.23858 -5,-5z" data-paper-data="{&quot;fillable&quot;:true}" stroke="#2a2a3a" stroke-width="1.5"/><path d="M529.06745,210.93255c0,-2.76142 2.23858,-5 5,-5c2.76142,0 5,2.23858 5,5c0,2.76142 -2.23858,5 -5,5c-2.76142,0 -5,-2.23858 -5,-5z" data-paper-data="{&quot;fillable&quot;:true}" stroke="#2a2a3a" stroke-width="1.5"/><path d="M633,345l-0.31932,12.19428l-0.95708,12.16085l-1.59222,12.0941l-2.22299,11.99419l-2.84767,11.86141l-3.46455,11.69612l-4.07193,11.49877l-4.66815,11.26991l-5.25157,11.01015l-5.8206,10.72021l-6.37368,10.4009l-6.90928,10.05307l-7.42595,9.67769l-7.92226,9.27578l-8.39686,8.84845l-30.68843,-30.68843l6.83281,-7.20028l6.44662,-7.54802l6.04275,-7.87506l5.62232,-8.18052l5.18648,-8.46356l4.73642,-8.7234l4.27338,-8.95933l3.79863,-9.1707l3.31347,-9.35694l2.81922,-9.51753l2.31725,-9.65203l1.80892,-9.76008l1.29564,-9.84138l0.77881,-9.8957l0.25984,-9.9229z" data-paper-data="{&quot;fillable&quot;:true}" stroke="#2a2a3a" stroke-width="1.5"/><path d="M564.75588,509.75588l-8.84845,8.39686l-9.27578,7.92226l-9.67769,7.42595l-10.05307,6.90928l-10.4009,6.37368l-10.72021,5.8206l-11.01015,5.25157l-11.26991,4.66815l-11.49877,4.07193l-11.69612,3.46455l-11.86141,2.84767l-11.99419,2.22299l-12.0941,1.59222l-12.16085,0.95708l-12.19428,0.31932v-43.4l9.9229,-0.25984l9.8957,-0.77881l9.84138,-1.29564l9.76008,-1.80892l9.65203,-2.31725l9.51753,-2.81922l9.35694,-3.31347l9.1707,-3.79863l8.95933,-4.27338l8.7234,-4.73642l8.46356,-5.18648l8.18052,-5.62232l7.87506,-6.04275l7.54802,-6.44662l7.20028,-6.83281z" data-paper-data="{&quot;fillable&quot;:true}" stroke="#2a2a3a" stroke-width="1.5"/><path d="M400,578l-12.19428,-0.31932l-12.16085,-0.95708l-12.0941,-1.59222l-11.99419,-2.22299l-11.86141,-2.84767l-11.69612,-3.46455l-11.49877,-4.07193l-11.26991,-4.66815l-11.01015,-5.25157l-10.72021,-5.8206l-10.4009,-6.37368l-10.05307,-6.90928l-9.67769,-7.42595l-9.27578,-7.92226l-8.84845,-8.39686l30.68843,-30.68843l7.20028,6.83281l7.54802,6.44662l7.87506,6.04275l8.18052,5.62232l8.46356,5.18648l8.7234,4.73642l8.95933,4.27338l9.1707,3.79863l9.35694,3.31347l9.51753,2.81922l9.65203,2.31725l9.76008,1.80892l9.84138,1.29564l9.8957,0.77881l9.9229,0.25984z" data-paper-data="{&quot;fillable&quot;:true}" stroke="#2a2a3a" stroke-width="1.5"/><path d="M235.24412,509.75588l-8.39686,-8.84845l-7.92226,-9.27578l-7.42595,-9.67769l-6.90928,-10.05307l-6.37368,-10.4009l-5.8206,-10.72021l-5.25157,-11.01015l-4.66815,-11.26991l-4.07193,-11.49877l-3.46455,-11.69612l-2.84767,-11.86141l-2.22299,-11.99419l-1.59222,-12.0941l-0.95708,-12.16085l-0.31932,-12.19428l43.4,0l0.25984,9.9229l0.77881,9.8957l1.29564,9.84138l1.80892,9.76008l2.31725,9.65203l2.81922,9.51753l3.31347,9.35694l3.79863,9.1707l4.27338,8.95933l4.73642,8.7234l5.18648,8.46356l5.62232,8.18052l6.04275,7.87506l6.44662,7.54802l6.83281,7.20028z" data-paper-data="{&quot;fillable&quot;:true}" stroke="#2a2a3a" stroke-width="1.5"/><path d="M167,345l0.31932,-12.19428l0.95708,-12.16085l1.59222,-12.0941l2.22299,-11.99419l2.84767,-11.86141l3.46455,-11.69612l4.07193,-11.49877l4.66815,-11.26991l5.25157,-11.01015l5.8206,-10.72021l6.37368,-10.4009l6.90928,-10.05307l7.42595,-9.67769l7.92226,-9.27578l8.39686,-8.84845l30.68843,30.68843l-6.83281,7.20028l-6.44662,7.54802l-6.04275,7.87506l-5.62232,8.18052l-5.18648,8.46356l-4.73642,8.7234l-4.27338,8.95933l-3.79863,9.1707l-3.31347,9.35694l-2.81922,9.51753l-2.31725,9.65203l-1.80892,9.76008l-1.29564,9.84138l-0.77881,9.8957l-0.25984,9.9229z" data-paper-data="{&quot;fillable&quot;:true}" stroke="#2a2a3a" stroke-width="1.5"/><path d="M235.24412,180.24412l8.84845,-8.39686l9.27578,-7.92226l9.67769,-7.42595l10.05307,-6.90928l10.4009,-6.37368l10.72021,-5.8206l11.01015,-5.25157l11.26991,-4.66815l11.49877,-4.07193l11.69612,-3.46455l11.86141,-2.84767l11.99419,-2.22299l12.0941,-1.59222l12.16085,-0.95708l12.19428,-0.31932v43.4l-9.9229,0.25984l-9.8957,0.77881l-9.84138,1.29564l-9.76008,1.80892l-9.65203,2.31725l-9.51753,2.81922l-9.35694,3.31347l-9.1707,3.79863l-8.95933,4.27338l-8.7234,4.73642l-8.46356,5.18648l-8.18052,5.62232l-7.87506,6.04275l-7.54802,6.44662l-7.20028,6.83281z" data-paper-data="{&quot;fillable&quot;:true}" stroke="#2a2a3a" stroke-width="1.5"/><path d="M400,112l12.19428,0.31932l12.16085,0.95708l12.0941,1.59222l11.99419,2.22299l11.86141,2.84767l11.69612,3.46455l11.49877,4.07193l11.26991,4.66815l11.01015,5.25157l10.72021,5.8206l10.4009,6.37368l10.05307,6.90928l9.67769,7.42595l9.27578,7.92226l8.84845,8.39686l-30.68843,30.68843l-7.20028,-6.83281l-7.54802,-6.44662l-7.87506,-6.04275l-8.18052,-5.62232l-8.46356,-5.18648l-8.7234,-4.73642l-8.95933,-4.27338l-9.1707,-3.79863l-9.35694,-3.31347l-9.51753,-2.81922l-9.65203,-2.31725l-9.76008,-1.80892l-9.84138,-1.29564l-9.8957,-0.77881l-9.9229,-0.25984z" data-paper-data="{&quot;fillable&quot;:true}" stroke="#2a2a3a" stroke-width="1.5"/><path d="M564.75588,180.24412l8.39686,8.84845l7.92226,9.27578l7.42595,9.67769l6.90928,10.05307l6.37368,10.4009l5.8206,10.72021l5.25157,11.01015l4.66815,11.26991l4.07193,11.49877l3.46455,11.69612l2.84767,11.86141l2.22299,11.99419l1.59222,12.0941l0.95708,12.16085l0.31932,12.19428h-43.4l-0.25984,-9.9229l-0.77881,-9.8957l-1.29564,-9.84138l-1.80892,-9.76008l-2.31725,-9.65203l-2.81922,-9.51753l-3.31347,-9.35694l-3.79863,-9.1707l-4.27338,-8.95933l-4.73642,-8.7234l-5.18648,-8.46356l-5.62232,-8.18052l-6.04275,-7.87506l-6.44662,-7.54802l-6.83281,-7.20028z" data-paper-data="{&quot;fillable&quot;:true}" stroke="#2a2a3a" stroke-width="1.5"/><path d="M628,345c0,-2.76142 2.23858,-5 5,-5c2.76142,0 5,2.23858 5,5c0,2.76142 -2.23858,5 -5,5c-2.76142,0 -5,-2.23858 -5,-5z" data-paper-data="{&quot;fillable&quot;:true}" stroke="#2a2a3a" stroke-width="1.5"/><path d="M559.75588,509.75588c0,-2.76142 2.23858,-5 5,-5c2.76142,0 5,2.23858 5,5c0,2.76142 -2.23858,5 -5,5c-2.76142,0 -5,-2.23858 -5,-5z" data-paper-data="{&quot;fillable&quot;:true}" stroke="#2a2a3a" stroke-width="1.5"/><path d="M395,578c0,-2.76142 2.23858,-5 5,-5c2.76142,0 5,2.23858 5,5c0,2.76142 -2.23858,5 -5,5c-2.76142,0 -5,-2.23858 -5,-5z" data-paper-data="{&quot;fillable&quot;:true}" stroke="#2a2a3a" stroke-width="1.5"/><path d="M230.24412,509.75588c0,-2.76142 2.23858,-5 5,-5c2.76142,0 5,2.23858 5,5c0,2.76142 -2.23858,5 -5,5c-2.76142,0 -5,-2.23858 -5,-5z" data-paper-data="{&quot;fillable&quot;:true}" stroke="#2a2a3a" stroke-width="1.5"/><path d="M162,345c0,-2.76142 2.23858,-5 5,-5c2.76142,0 5,2.23858 5,5c0,2.76142 -2.23858,5 -5,5c-2.76142,0 -5,-2.23858 -5,-5z" data-paper-data="{&quot;fillable&quot;:true}" stroke="#2a2a3a" stroke-width="1.5"/><path d="M230.24412,180.24412c0,-2.76142 2.23858,-5 5,-5c2.76142,0 5,2.23858 5,5c0,2.76142 -2.23858,5 -5,5c-2.76142,0 -5,-2.23858 -5,-5z" data-paper-data="{&quot;fillable&quot;:true}" stroke="#2a2a3a" stroke-width="1.5"/><path d="M395,112c0,-2.76142 2.23858,-5 5,-5c2.76142,0 5,2.23858 5,5c0,2.76142 -2.23858,5 -5,5c-2.76142,0 -5,-2.23858 -5,-5z" data-paper-data="{&quot;fillable&quot;:true}" stroke="#2a2a3a" stroke-width="1.5"/><path d="M559.75588,180.24412c0,-2.76142 2.23858,-5 5,-5c2.76142,0 5,2.23858 5,5c0,2.76142 -2.23858,5 -5,5c-2.76142,0 -5,-2.23858 -5,-5z" data-paper-data="{&quot;fillable&quot;:true}" stroke="#2a2a3a" stroke-width="1.5"/><path d="M384,345c0,-8.83656 7.16344,-16 16,-16c8.83656,0 16,7.16344 16,16c0,8.83656 -7.16344,16 -16,16c-8.83656,0 -16,-7.16344 -16,-16z" data-paper-data="{&quot;fillable&quot;:true}" stroke="#2a2a3a" stroke-width="1.5"/><path d="M392,345c0,-4.41828 3.58172,-8 8,-8c4.41828,0 8,3.58172 8,8c0,4.41828 -3.58172,8 -8,8c-4.41828,0 -8,-3.58172 -8,-8z" data-paper-data="{&quot;fillable&quot;:true}" stroke="#2a2a3a" stroke-width="1.5"/><path d="M330,610c0,-2.76142 2.23858,-5 5,-5c2.76142,0 5,2.23858 5,5c0,2.76142 -2.23858,5 -5,5c-2.76142,0 -5,-2.23858 -5,-5z" data-paper-data="{&quot;fillable&quot;:true}" stroke="#2a2a3a" stroke-width="1.5"/><path d="M330,622c0,-2.76142 2.23858,-5 5,-5c2.76142,0 5,2.23858 5,5c0,2.76142 -2.23858,5 -5,5c-2.76142,0 -5,-2.23858 -5,-5z" data-paper-data="{&quot;fillable&quot;:true}" stroke="#2a2a3a" stroke-width="1.5"/><path d="M330,634c0,-2.76142 2.23858,-5 5,-5c2.76142,0 5,2.23858 5,5c0,2.76142 -2.23858,5 -5,5c-2.76142,0 -5,-2.23858 -5,-5z" data-paper-data="{&quot;fillable&quot;:true}" stroke="#2a2a3a" stroke-width="1.5"/><path d="M304.13508,623.90842c-5.70919,-29.83431 -1.14692,-55.77851 10.19012,-57.94801c11.33704,-2.16949 25.15573,20.25727 30.86492,50.09158c5.70919,29.83431 1.14692,55.77851 -10.19012,57.94801c-11.33704,2.16949 -25.15573,-20.25727 -30.86492,-50.09158z" data-paper-data="{&quot;fillable&quot;:true}" stroke="#2a2a3a" stroke-width="1.5"/><path d="M319.80082,620.91057c-5.02409,-26.25419 -6.92022,-47.95396 -4.23513,-48.46778c2.68509,-0.51383 8.93461,20.35286 13.95869,46.60705c5.02409,26.25419 6.92022,47.95396 4.23513,48.46778c-2.68509,0.51383 -8.93461,-20.35286 -13.95869,-46.60705z" data-paper-data="{&quot;fillable&quot;:true}" stroke="#2a2a3a" stroke-width="1.5"/><path d="M331.34034,644.2629c0.28526,-0.92344 4.46911,-0.45103 9.34488,1.05517c4.87577,1.50619 8.59711,3.4758 8.31184,4.39924c-0.28526,0.92344 -4.46911,0.45103 -9.34488,-1.05517c-4.87577,-1.50619 -8.59711,-3.4758 -8.31184,-4.39924z" data-paper-data="{&quot;fillable&quot;:true}" stroke="#2a2a3a" stroke-width="1.5"/><path d="M332.97099,652.78411c-0.60605,-0.75288 2.12518,-3.95727 6.10036,-7.15721c3.97519,-3.19994 7.68901,-5.18368 8.29506,-4.4308c0.60605,0.75288 -2.12518,3.95727 -6.10036,7.15721c-3.97519,3.19994 -7.68901,5.18368 -8.29506,4.4308z" data-paper-data="{&quot;fillable&quot;:true}" stroke="#2a2a3a" stroke-width="1.5"/><path d="M338.61103,617.90233c0.28526,-0.92344 3.52801,-0.74174 7.24289,0.40583c3.71487,1.14758 6.49512,2.82647 6.20985,3.74991c-0.28526,0.92344 -3.52801,0.74174 -7.24289,-0.40583c-3.71487,-1.14758 -6.49512,-2.82647 -6.20985,-3.74991z" data-paper-data="{&quot;fillable&quot;:true}" stroke="#2a2a3a" stroke-width="1.5"/><path d="M339.85343,624.39469c-0.60605,-0.75288 1.35791,-3.33963 4.38662,-5.77769c3.02871,-2.43805 5.97527,-3.80416 6.58132,-3.05128c0.60605,0.75288 -1.35791,3.33963 -4.38662,5.77769c-3.02871,2.43805 -5.97527,3.80416 -6.58132,3.05128z" data-paper-data="{&quot;fillable&quot;:true}" stroke="#2a2a3a" stroke-width="1.5"/><path d="M345.88172,591.54177c0.28526,-0.92344 2.58692,-1.03246 5.1409,-0.2435c2.55397,0.78896 4.39313,2.17713 4.10786,3.10057c-0.28526,0.92344 -2.58692,1.03246 -5.1409,0.2435c-2.55397,-0.78896 -4.39313,-2.17713 -4.10786,-3.10057z" data-paper-data="{&quot;fillable&quot;:true}" stroke="#2a2a3a" stroke-width="1.5"/><path d="M346.73587,596.00527c-0.60605,-0.75288 0.59064,-2.722 2.67288,-4.39816c2.08224,-1.67616 4.26153,-2.42463 4.86758,-1.67175c0.60605,0.75288 -0.59064,2.722 -2.67288,4.39816c-2.08224,1.67616 -4.26153,2.42463 -4.86758,1.67175z" data-paper-data="{&quot;fillable&quot;:true}" stroke="#2a2a3a" stroke-width="1.5"/><path d="M330,674c0,-2.76142 2.23858,-5 5,-5c2.76142,0 5,2.23858 5,5c0,2.76142 -2.23858,5 -5,5c-2.76142,0 -5,-2.23858 -5,-5z" data-paper-data="{&quot;fillable&quot;:true}" stroke="#2a2a3a" stroke-width="1.5"/><path d="M362.5,610c0,-2.76142 2.23858,-5 5,-5c2.76142,0 5,2.23858 5,5c0,2.76142 -2.23858,5 -5,5c-2.76142,0 -5,-2.23858 -5,-5z" data-paper-data="{&quot;fillable&quot;:true}" stroke="#2a2a3a" stroke-width="1.5"/><path d="M362.5,622c0,-2.76142 2.23858,-5 5,-5c2.76142,0 5,2.23858 5,5c0,2.76142 -2.23858,5 -5,5c-2.76142,0 -5,-2.23858 -5,-5z" data-paper-data="{&quot;fillable&quot;:true}" stroke="#2a2a3a" stroke-width="1.5"/><path d="M362.5,634c0,-2.76142 2.23858,-5 5,-5c2.76142,0 5,2.23858 5,5c0,2.76142 -2.23858,5 -5,5c-2.76142,0 -5,-2.23858 -5,-5z" data-paper-data="{&quot;fillable&quot;:true}" stroke="#2a2a3a" stroke-width="1.5"/><path d="M341.50144,613.21852c-2.8674,-30.24002 4.12358,-55.6377 15.61479,-56.72732c11.49121,-1.08961 23.13116,22.54146 25.99856,52.78148c2.8674,30.24002 -4.12358,55.6377 -15.61479,56.72732c-11.49121,1.08961 -23.13116,-22.54146 -25.99856,-52.78148z" data-paper-data="{&quot;fillable&quot;:true}" stroke="#2a2a3a" stroke-width="1.5"/><path d="M357.38022,611.71287c-2.52331,-26.61122 -2.36256,-48.39308 0.35904,-48.65114c2.7216,-0.25807 6.97344,21.10538 9.49675,47.7166c2.52331,26.61122 2.36256,48.39308 -0.35904,48.65114c-2.7216,0.25807 -6.97344,-21.10538 -9.49675,-47.7166z" data-paper-data="{&quot;fillable&quot;:true}" stroke="#2a2a3a" stroke-width="1.5"/><path d="M361.56445,635.07439c0.37116,-0.89239 4.49173,-0.02714 9.20354,1.93259c4.71181,1.95973 8.23061,4.27183 7.85945,5.16422c-0.37116,0.89239 -4.49173,0.02714 -9.20354,-1.93259c-4.71181,-1.95973 -8.23061,-4.27183 -7.85945,-5.16422z" data-paper-data="{&quot;fillable&quot;:true}" stroke="#2a2a3a" stroke-width="1.5"/><path d="M362.38343,643.71149c-0.53227,-0.80672 2.48924,-3.73899 6.74875,-6.54939c4.2595,-2.8104 8.14401,-4.43471 8.67628,-3.62798c0.53227,0.80672 -2.48924,3.73899 -6.74875,6.54939c-4.2595,2.8104 -8.14401,4.43471 -8.67628,3.62798z" data-paper-data="{&quot;fillable&quot;:true}" stroke="#2a2a3a" stroke-width="1.5"/><path d="M366.1917,608.54205c0.37116,-0.89239 3.58228,-0.40539 7.17223,1.08773c3.58995,1.49313 6.1993,3.42697 5.82814,4.31936c-0.37116,0.89239 -3.58228,0.40539 -7.17223,-1.08773c-3.58995,-1.49313 -6.1993,-3.42697 -5.82814,-4.31936z" data-paper-data="{&quot;fillable&quot;:true}" stroke="#2a2a3a" stroke-width="1.5"/><path d="M366.81568,615.12269c-0.53227,-0.80672 1.6671,-3.19654 4.91244,-5.3378c3.24534,-2.14126 6.30769,-3.22311 6.83997,-2.41639c0.53227,0.80672 -1.6671,3.19654 -4.91244,5.3378c-3.24534,2.14126 -6.30769,3.22311 -6.83997,2.41639z" data-paper-data="{&quot;fillable&quot;:true}" stroke="#2a2a3a" stroke-width="1.5"/><path d="M370.81895,582.00971c0.37116,-0.89239 2.67283,-0.78365 5.14093,0.24288c2.46809,1.02653 4.16799,2.58211 3.79683,3.4745c-0.37116,0.89239 -2.67283,0.78365 -5.14093,-0.24288c-2.46809,-1.02653 -4.16799,-2.58211 -3.79683,-3.4745z" data-paper-data="{&quot;fillable&quot;:true}" stroke="#2a2a3a" stroke-width="1.5"/><path d="M371.24794,586.5339c-0.53227,-0.80672 0.84495,-2.65409 3.07612,-4.12621c2.23117,-1.47212 4.47138,-2.01152 5.00365,-1.2048c0.53227,0.80672 -0.84495,2.65409 -3.07612,4.12621c-2.23117,1.47212 -4.47138,2.01152 -5.00365,1.2048z" data-paper-data="{&quot;fillable&quot;:true}" stroke="#2a2a3a" stroke-width="1.5"/><path d="M362.5,666c0,-2.76142 2.23858,-5 5,-5c2.76142,0 5,2.23858 5,5c0,2.76142 -2.23858,5 -5,5c-2.76142,0 -5,-2.23858 -5,-5z" data-paper-data="{&quot;fillable&quot;:true}" stroke="#2a2a3a" stroke-width="1.5"/><path d="M395,610c0,-2.76142 2.23858,-5 5,-5c2.76142,0 5,2.23858 5,5c0,2.76142 -2.23858,5 -5,5c-2.76142,0 -5,-2.23858 -5,-5z" data-paper-data="{&quot;fillable&quot;:true}" stroke="#2a2a3a" stroke-width="1.5"/><path d="M395,622c0,-2.76142 2.23858,-5 5,-5c2.76142,0 5,2.23858 5,5c0,2.76142 -2.23858,5 -5,5c-2.76142,0 -5,-2.23858 -5,-5z" data-paper-data="{&quot;fillable&quot;:true}" stroke="#2a2a3a" stroke-width="1.5"/><path d="M395,634c0,-2.76142 2.23858,-5 5,-5c2.76142,0 5,2.23858 5,5c0,2.76142 -2.23858,5 -5,5c-2.76142,0 -5,-2.23858 -5,-5z" data-paper-data="{&quot;fillable&quot;:true}" stroke="#2a2a3a" stroke-width="1.5"/><path d="M379.1,603c0,-30.37566 9.35725,-55 20.9,-55c11.54275,0 20.9,24.62434 20.9,55c0,30.37566 -9.35725,55 -20.9,55c-11.54275,0 -20.9,-24.62434 -20.9,-55z" data-paper-data="{&quot;fillable&quot;:true}" stroke="#2a2a3a" stroke-width="1.5"/><path d="M395.05,603c0,-26.73058 2.21619,-48.4 4.95,-48.4c2.73381,0 4.95,21.66942 4.95,48.4c0,26.73058 -2.21619,48.4 -4.95,48.4c-2.73381,0 -4.95,-21.66942 -4.95,-48.4z" data-paper-data="{&quot;fillable&quot;:true}" stroke="#2a2a3a" stroke-width="1.5"/><path d="M391.84156,626.16208c0.45374,-0.85337 4.47423,0.39699 8.98001,2.79276c4.50578,2.39577 7.7906,5.02971 7.33686,5.88308c-0.45374,0.85337 -4.47423,-0.39699 -8.98001,-2.79276c-4.50578,-2.39577 -7.7906,-5.02971 -7.33686,-5.88308z" data-paper-data="{&quot;fillable&quot;:true}" stroke="#2a2a3a" stroke-width="1.5"/><path d="M391.84156,634.83792c-0.45374,-0.85337 2.83108,-3.48731 7.33686,-5.88308c4.50578,-2.39577 8.52627,-3.64613 8.98001,-2.79276c0.45374,0.85337 -2.83108,3.48731 -7.33686,5.88308c-4.50578,2.39577 -8.52627,3.64613 -8.98001,2.79276z" data-paper-data="{&quot;fillable&quot;:true}" stroke="#2a2a3a" stroke-width="1.5"/><path d="M393.78405,599.69492c0.45374,-0.85337 3.60455,-0.06542 7.03753,1.75992c3.43297,1.82535 5.84812,3.99687 5.39438,4.85024c-0.45374,0.85337 -3.60455,0.06542 -7.03753,-1.75992c-3.43297,-1.82535 -5.84812,-3.99687 -5.39438,-4.85024z" data-paper-data="{&quot;fillable&quot;:true}" stroke="#2a2a3a" stroke-width="1.5"/><path d="M393.78405,606.30508c-0.45374,-0.85337 1.9614,-3.02489 5.39438,-4.85024c3.43297,-1.82535 6.58378,-2.61329 7.03753,-1.75992c0.45374,0.85337 -1.9614,3.02489 -5.39438,4.85024c-3.43297,1.82535 -6.58378,2.61329 -7.03753,1.75992z" data-paper-data="{&quot;fillable&quot;:true}" stroke="#2a2a3a" stroke-width="1.5"/><path d="M395.72653,573.22776c0.45374,-0.85337 2.73487,-0.52784 5.09504,0.72708c2.36017,1.25492 3.90563,2.96403 3.45189,3.8174c-0.45374,0.85337 -2.73487,0.52784 -5.09504,-0.72708c-2.36017,-1.25492 -3.90563,-2.96403 -3.45189,-3.8174z" data-paper-data="{&quot;fillable&quot;:true}" stroke="#2a2a3a" stroke-width="1.5"/><path d="M395.72653,577.77224c-0.45374,-0.85337 1.09172,-2.56248 3.45189,-3.8174c2.36017,-1.25492 4.6413,-1.58045 5.09504,-0.72708c0.45374,0.85337 -1.09172,2.56248 -3.45189,3.8174c-2.36017,1.25492 -4.6413,1.58045 -5.09504,0.72708z" data-paper-data="{&quot;fillable&quot;:true}" stroke="#2a2a3a" stroke-width="1.5"/><path d="M395,658c0,-2.76142 2.23858,-5 5,-5c2.76142,0 5,2.23858 5,5c0,2.76142 -2.23858,5 -5,5c-2.76142,0 -5,-2.23858 -5,-5z" data-paper-data="{&quot;fillable&quot;:true}" stroke="#2a2a3a" stroke-width="1.5"/><path d="M427.5,610c0,-2.76142 2.23858,-5 5,-5c2.76142,0 5,2.23858 5,5c0,2.76142 -2.23858,5 -5,5c-2.76142,0 -5,-2.23858 -5,-5z" data-paper-data="{&quot;fillable&quot;:true}" stroke="#2a2a3a" stroke-width="1.5"/><path d="M427.5,622c0,-2.76142 2.23858,-5 5,-5c2.76142,0 5,2.23858 5,5c0,2.76142 -2.23858,5 -5,5c-2.76142,0 -5,-2.23858 -5,-5z" data-paper-data="{&quot;fillable&quot;:true}" stroke="#2a2a3a" stroke-width="1.5"/><path d="M427.5,634c0,-2.76142 2.23858,-5 5,-5c2.76142,0 5,2.23858 5,5c0,2.76142 -2.23858,5 -5,5c-2.76142,0 -5,-2.23858 -5,-5z" data-paper-data="{&quot;fillable&quot;:true}" stroke="#2a2a3a" stroke-width="1.5"/><path d="M416.88521,609.27268c2.8674,-30.24002 14.50735,-53.8711 25.99856,-52.78148c11.49121,1.08961 18.48219,26.4873 15.61479,56.72732c-2.8674,30.24002 -14.50735,53.8711 -25.99856,52.78148c-11.49121,-1.08961 -18.48219,-26.4873 -15.61479,-56.72732z" data-paper-data="{&quot;fillable&quot;:true}" stroke="#2a2a3a" stroke-width="1.5"/><path d="M432.76399,610.77833c2.52331,-26.61122 6.77515,-47.97467 9.49675,-47.7166c2.7216,0.25807 2.88235,22.03992 0.35904,48.65114c-2.52331,26.61122 -6.77515,47.97467 -9.49675,47.7166c-2.7216,-0.25807 -2.88235,-22.03992 -0.35904,-48.65114z" data-paper-data="{&quot;fillable&quot;:true}" stroke="#2a2a3a" stroke-width="1.5"/><path d="M422.19154,633.53411c0.53227,-0.80672 4.41678,0.81758 8.67628,3.62798c4.2595,2.8104 7.28102,5.74266 6.74875,6.54939c-0.53227,0.80672 -4.41678,-0.81758 -8.67628,-3.62798c-4.2595,-2.8104 -7.28102,-5.74266 -6.74875,-6.54939z" data-paper-data="{&quot;fillable&quot;:true}" stroke="#2a2a3a" stroke-width="1.5"/><path d="M421.37256,642.17121c-0.37116,-0.89239 3.14763,-3.20449 7.85945,-5.16422c4.71181,-1.95973 8.83238,-2.82498 9.20354,-1.93259c0.37116,0.89239 -3.14763,3.20449 -7.85945,5.16422c-4.71181,1.95973 -8.83238,2.82498 -9.20354,1.93259z" data-paper-data="{&quot;fillable&quot;:true}" stroke="#2a2a3a" stroke-width="1.5"/><path d="M421.43191,607.36851c0.53227,-0.80672 3.59463,0.27513 6.83997,2.41639c3.24534,2.14126 5.44471,4.53107 4.91244,5.3378c-0.53227,0.80672 -3.59463,-0.27513 -6.83997,-2.41639c-3.24534,-2.14126 -5.44471,-4.53107 -4.91244,-5.3378z" data-paper-data="{&quot;fillable&quot;:true}" stroke="#2a2a3a" stroke-width="1.5"/><path d="M420.80793,613.94915c-0.37116,-0.89239 2.23819,-2.82623 5.82814,-4.31936c3.58995,-1.49313 6.80107,-1.98012 7.17223,-1.08773c0.37116,0.89239 -2.23819,2.82623 -5.82814,4.31936c-3.58995,1.49313 -6.80107,1.98012 -7.17223,1.08773z" data-paper-data="{&quot;fillable&quot;:true}" stroke="#2a2a3a" stroke-width="1.5"/><path d="M420.67228,581.2029c0.53227,-0.80672 2.77249,-0.26732 5.00365,1.2048c2.23117,1.47212 3.6084,3.31948 3.07612,4.12621c-0.53227,0.80672 -2.77249,0.26732 -5.00365,-1.2048c-2.23117,-1.47212 -3.6084,-3.31948 -3.07612,-4.12621z" data-paper-data="{&quot;fillable&quot;:true}" stroke="#2a2a3a" stroke-width="1.5"/><path d="M420.24329,585.72709c-0.37116,-0.89239 1.32874,-2.44798 3.79683,-3.4745c2.46809,-1.02653 4.76976,-1.13527 5.14093,-0.24288c0.37116,0.89239 -1.32874,2.44798 -3.79683,3.4745c-2.46809,1.02653 -4.76976,1.13527 -5.14093,0.24288z" data-paper-data="{&quot;fillable&quot;:true}" stroke="#2a2a3a" stroke-width="1.5"/><path d="M427.5,666c0,-2.76142 2.23858,-5 5,-5c2.76142,0 5,2.23858 5,5c0,2.76142 -2.23858,5 -5,5c-2.76142,0 -5,-2.23858 -5,-5z" data-paper-data="{&quot;fillable&quot;:true}" stroke="#2a2a3a" stroke-width="1.5"/><path d="M460,610c0,-2.76142 2.23858,-5 5,-5c2.76142,0 5,2.23858 5,5c0,2.76142 -2.23858,5 -5,5c-2.76142,0 -5,-2.23858 -5,-5z" data-paper-data="{&quot;fillable&quot;:true}" stroke="#2a2a3a" stroke-width="1.5"/><path d="M460,622c0,-2.76142 2.23858,-5 5,-5c2.76142,0 5,2.23858 5,5c0,2.76142 -2.23858,5 -5,5c-2.76142,0 -5,-2.23858 -5,-5z" data-paper-data="{&quot;fillable&quot;:true}" stroke="#2a2a3a" stroke-width="1.5"/><path d="M460,634c0,-2.76142 2.23858,-5 5,-5c2.76142,0 5,2.23858 5,5c0,2.76142 -2.23858,5 -5,5c-2.76142,0 -5,-2.23858 -5,-5z" data-paper-data="{&quot;fillable&quot;:true}" stroke="#2a2a3a" stroke-width="1.5"/><path d="M454.80988,616.05199c5.70919,-29.83431 19.52789,-52.26107 30.86492,-50.09158c11.33704,2.16949 15.89931,28.1137 10.19012,57.94801c-5.70919,29.83431 -19.52789,52.26107 -30.86492,50.09158c-11.33704,-2.16949 -15.89931,-28.1137 -10.19012,-57.94801z" data-paper-data="{&quot;fillable&quot;:true}" stroke="#2a2a3a" stroke-width="1.5"/><path d="M470.47562,619.04984c5.02409,-26.25419 11.27361,-47.12088 13.95869,-46.60705c2.68509,0.51383 0.78895,22.21359 -4.23513,48.46778c-5.02409,26.25419 -11.27361,47.12088 -13.95869,46.60705c-2.68509,-0.51383 -0.78895,-22.21359 4.23513,-48.46778z" data-paper-data="{&quot;fillable&quot;:true}" stroke="#2a2a3a" stroke-width="1.5"/><path d="M452.63359,641.1961c0.60605,-0.75288 4.31988,1.23086 8.29506,4.4308c3.97519,3.19994 6.70641,6.40433 6.10036,7.15721c-0.60605,0.75288 -4.31988,-1.23086 -8.29506,-4.4308c-3.97519,-3.19994 -6.70641,-6.40433 -6.10036,-7.15721z" data-paper-data="{&quot;fillable&quot;:true}" stroke="#2a2a3a" stroke-width="1.5"/><path d="M451.00294,649.71731c-0.28526,-0.92344 3.43608,-2.89305 8.31184,-4.39924c4.87577,-1.50619 9.05961,-1.97861 9.34488,-1.05517c0.28526,0.92344 -3.43608,2.89305 -8.31184,4.39924c-4.87577,1.50619 -9.05961,1.97861 -9.34488,1.05517z" data-paper-data="{&quot;fillable&quot;:true}" stroke="#2a2a3a" stroke-width="1.5"/><path d="M449.17863,615.56572c0.60605,-0.75288 3.55261,0.61323 6.58132,3.05128c3.02871,2.43805 4.99267,5.02481 4.38662,5.77769c-0.60605,0.75288 -3.55261,-0.61323 -6.58132,-3.05128c-3.02871,-2.43805 -4.99267,-5.02481 -4.38662,-5.77769z" data-paper-data="{&quot;fillable&quot;:true}" stroke="#2a2a3a" stroke-width="1.5"/><path d="M447.93623,622.05808c-0.28526,-0.92344 2.49498,-2.60233 6.20985,-3.74991c3.71487,-1.14758 6.95762,-1.32927 7.24289,-0.40583c0.28526,0.92344 -2.49498,2.60233 -6.20985,3.74991c-3.71487,1.14758 -6.95762,1.32927 -7.24289,0.40583z" data-paper-data="{&quot;fillable&quot;:true}" stroke="#2a2a3a" stroke-width="1.5"/><path d="M445.72367,589.93535c0.60605,-0.75288 2.78534,-0.00441 4.86758,1.67175c2.08224,1.67616 3.27893,3.64528 2.67288,4.39816c-0.60605,0.75288 -2.78534,0.00441 -4.86758,-1.67175c-2.08224,-1.67616 -3.27893,-3.64528 -2.67288,-4.39816z" data-paper-data="{&quot;fillable&quot;:true}" stroke="#2a2a3a" stroke-width="1.5"/><path d="M444.86952,594.39885c-0.28526,-0.92344 1.55389,-2.31162 4.10786,-3.10057c2.55397,-0.78896 4.85563,-0.67994 5.1409,0.2435c0.28526,0.92344 -1.55389,2.31162 -4.10786,3.10057c-2.55397,0.78896 -4.85563,0.67994 -5.1409,-0.2435z" data-paper-data="{&quot;fillable&quot;:true}" stroke="#2a2a3a" stroke-width="1.5"/><path d="M460,674c0,-2.76142 2.23858,-5 5,-5c2.76142,0 5,2.23858 5,5c0,2.76142 -2.23858,5 -5,5c-2.76142,0 -5,-2.23858 -5,-5z" data-paper-data="{&quot;fillable&quot;:true}" stroke="#2a2a3a" stroke-width="1.5"/></g></svg>